<?xml version="1.0" encoding="utf-8"?>
<!-- Generator: Adobe Illustrator 15.0.0, SVG Export Plug-In . SVG Version: 6.00 Build 0)  -->
<!DOCTYPE svg PUBLIC "-//W3C//DTD SVG 1.1//EN" "http://www.w3.org/Graphics/SVG/1.1/DTD/svg11.dtd">
<svg version="1.1" id="Layer_1" xmlns="http://www.w3.org/2000/svg" xmlns:xlink="http://www.w3.org/1999/xlink" x="0px" y="0px"
	 width="2000px" height="2000px" viewBox="0 0 2000 2000" enable-background="new 0 0 2000 2000" xml:space="preserve">
<g>
	<circle fill="#FFFFFF" cx="979.727" cy="953.636" r="945.455"/>
	<g>
		<g opacity="0.8">
			<path fill="#1D1D1D" d="M298.734,1627.65c-14.521-15.648-33.101-36.248-53.611-61.645
				c-20.509-25.384-42.927-55.593-65.033-90.175c-22.121-34.559-43.895-73.504-63.409-115.78
				c-19.533-42.259-36.772-87.843-50.454-135.117c-13.711-47.263-23.851-96.19-30.063-144.803
				c-6.236-48.611-8.559-96.88-7.521-142.816c1.013-45.946,5.371-89.541,11.724-129.074c6.337-39.547,14.657-75.029,23.168-105.137
				c12.941-46.462,27.818-86.368,42.625-120.597c14.842-34.232,29.619-62.816,43.18-86.747c5.743-10.069,6.818-11.738,3.795-6.44
				c-2.984,5.319-10.023,17.641-19.537,36.089c-9.499,18.449-21.441,43.059-33.805,73.002
				c-12.36,29.933-25.117,65.216-36.259,104.692c-9.818,35.325-18.507,74.455-24.771,117.589
				c-6.255,43.121-10.097,90.259-9.878,141.26c0.561-63.54,7.752-125.578,19.283-181.53c11.45-56.001,27.147-105.875,42.727-146.406
				c21.662-60,49.714-118.407,84.211-174.131c37.921-61.283,82.572-117.647,132.589-168.171
				c50.013-50.531,105.378-95.269,164.979-133.159c59.591-37.9,123.396-68.964,190.012-92.457
				c66.611-23.5,136.019-39.464,206.697-47.384c25.622-2.878,58.961-5.546,96.122-5.969c37.15-0.48,78.095,1.353,118.633,6.02
				c40.547,4.589,80.638,12.017,116.296,20.812c35.679,8.748,66.913,18.799,90.354,27.322
				c-98.341-34.597-202.503-52.596-306.799-53.187c-104.296-0.65-208.712,16.121-307.546,49.584
				c-98.859,33.387-192.032,83.55-274.405,147.68c-82.379,64.106-154.25,141.814-211.404,229.228
				c6.292-9.441,12.745-18.697,19.273-27.699c31.776-44.743,67.494-86.657,106.517-125.197
				c39.017-38.548,81.334-73.729,126.398-104.921c45.057-31.199,92.851-58.408,142.649-81.202
				c49.796-22.797,101.586-41.193,154.571-54.914c35.96-9.422,72.885-16.756,111.22-21.747
				c-37.458,5.003-74.622,12.265-111.22,21.747c-47.045,12.365-92.451,28.255-137.292,48.062
				c-44.825,19.832-89.128,43.564-133.498,72.464c-27.45,17.73-55.969,38.137-83.242,60.161
				c-27.285,22.003-53.307,45.613-76.306,68.963c-18.797,19.012-36.23,37.875-52.737,57.121
				c-16.502,19.247-32.098,38.861-47.062,59.464c-18.981,26.723-36.562,54.448-52.644,83.025c-4.58,8.409-9.356,17.482-14.148,26.83
				c0.179-0.317,0.516-0.907,0.653-1.121c5.207-8.751,15.824-27.841,32.205-53.736c16.396-25.869,38.683-58.502,67.34-93.766
				c28.605-35.273,63.638-73.119,104.269-109.592c20.303-18.238,41.981-36.132,64.796-53.254
				c22.82-17.115,46.767-33.467,71.523-48.693c24.753-15.229,50.3-29.348,76.224-42.138c25.925-12.788,52.222-24.25,78.417-34.311
				c52.396-20.146,104.37-34.528,152.011-44.052c47.659-9.561,90.948-14.353,126.414-16.618c35.485-2.264,63.163-2.131,80.137-1.94
				c27.068,0.363,53.538,1.663,79.834,3.965c26.296,2.298,52.42,5.594,78.757,10.078c26.334,4.489,52.881,10.174,79.945,17.406
				c27.061,7.231,54.636,16.029,82.907,26.868c18.893,7.251,35.968,14.799,51.788,22.207c15.824,7.407,30.398,14.673,44.333,21.504
				c2.982,0.902,16.916,7.774,30.673,15.183c35.117,19.941,68.562,42.808,98.716,66.033c30.193,23.206,57.117,46.729,80.241,67.499
				c8.02,7.366,19.003,18.695,30.666,31.947c11.682,13.234,24.018,28.396,35.172,43.072c11.185,14.657,21.181,28.826,28.761,39.747
				c7.572,10.929,12.777,18.588,14.492,20.206c6.25,5.912,9.748,9.347,12.44,12.41c2.685,3.07,4.561,5.779,7.421,10.396
				c2.857,4.619,6.722,11.133,13.143,21.962c6.385,10.851,15.386,25.987,27.669,48.348c2.942,5.425,9.784,16.64,16.964,29.473
				c7.205,12.814,14.708,27.264,19.661,38.633c8.207,19.229,14.536,35.243,20.097,49.789c5.548,14.55,10.325,27.636,15.021,41.166
				c4.681,13.535,9.279,27.518,14.103,43.968c4.804,16.453,9.87,35.372,14.918,58.873c7.675,34.85,11.763,63.337,14.467,88.176
				c2.644,24.855,3.852,46.1,4.511,66.854c0.618,20.76,0.692,41.041,0.211,64.072c-0.521,23.03-1.551,48.821-4.234,80.571
				c-0.354,3.848-1.855,19.116-4.862,39.743c-1.503,10.313-3.394,21.961-5.644,34.185c-2.262,12.222-4.874,25.021-7.752,37.639
				c-5.711,25.25-12.544,49.749-18.146,67.849c-5.596,18.104-9.783,29.863-9.764,29.869c-13.371,36.631-27.459,69.031-41.945,98.567
				c-14.501,29.532-29.403,56.212-44.977,81.211c-15.583,24.993-31.86,48.301-49.502,70.843
				c-17.658,22.525-36.698,44.286-58.121,65.848c-23.033,26.385-49.973,53.315-80.017,79.132
				c-30.028,25.832-63.15,50.543-98.103,72.908c-34.936,22.398-71.672,42.456-108.569,59.672
				c-36.89,17.252-73.927,31.653-109.346,43.469c-35.448,11.811-66.449,19.683-94.737,25.566
				c-28.306,5.846-53.935,9.658-79.065,12.36c-25.137,2.667-49.789,4.228-76.274,4.78c-26.483,0.533-54.813,0.07-87.261-2.115
				c-37.08-2.227-64.8-5.231-86.105-9.062c-10.679-1.924-29.066-4.338-49.259-7.835c-20.196-3.446-42.179-8.041-60.071-13.03
				l9.37,0.633c-6.003-1.598-14.942-4.06-23.826-6.688c-8.886-2.621-17.72-5.397-23.609-7.311
				c-11.767-3.867-8.601-3.493-5.501-3.105c3.117,0.391,6.224,0.745,6.007,0.108c-0.213-0.649-3.769-2.229-13.864-6.007
				c-48.481-17.031-96.665-38.259-143.746-63.995c-47.187-24.186-91.752-52.093-133.258-82.987
				c-2.858-1.215-6.116-2.737-12.206-6.781c-12.325-9.33-24.396-18.937-36.202-28.829c-8.07-4.868-7.003-1.386-12.411-4.716
				c-1.629,1.854-15.325-7.332-27.312-15.721c-11.997-8.355-22.402-15.734-18.466-8.528c1.754,2.694,18.59,20.431,39.667,40.076
				c10.514,9.845,22.077,20.165,33.032,29.62c10.944,9.469,21.287,18.063,29.154,24.718c3.603,3.143,0.718,1.73-4.12-1.06
				c-4.838-2.787-11.614-6.979-15.858-9.242c10.596,8.374,18.792,14.655,24.741,19.305c5.95,4.647,9.668,7.645,11.41,9.31
				c3.504,3.302-0.914,1.295-10.385-4.634c10.211,7.675,20.596,15.038,20.603,15.027c-2.938-1.301-11.765-5.414-11.763-5.425
				c27.69,20.395,57.268,39.99,88.314,58.057c31.04,18.072,63.544,34.609,96.872,49.079c33.323,14.476,67.461,26.892,101.617,36.941
				c34.151,10.065,68.31,17.779,101.597,23.117c14.254,2.395,33.352,4.989,52.91,6.859c19.555,1.908,39.556,3.099,55.554,3.651
				c7.982,0.3,20.756,1.106,33.161,1.676c12.403,0.581,24.432,0.935,30.859,0.978c11.23-0.846,16.008-1.848,19.172-2.799
				c3.163-0.958,4.714-1.906,9.44-2.924c24.72-0.342,56.638-1.937,90.312-5.799c16.834-1.922,34.103-4.38,51.122-7.314
				c17.02-2.938,33.786-6.356,49.642-10.059c31.722-7.381,59.744-15.98,79.224-23.013c19.486-7.045,30.502-12.294,28.458-13.176
				c18.697-6.782,33.401-12.896,46.161-18.588c12.756-5.703,23.571-10.988,34.369-16.51c10.792-5.532,21.573-11.292,34.129-18.232
				c12.545-6.96,26.887-15.064,44.566-25.697c23.408-14.101,47.769-30.18,72.361-48.218c24.594-18.035,49.394-38.061,73.721-59.893
				c24.327-21.83,48.184-45.456,70.961-70.568c22.781-25.105,44.48-51.69,64.612-79.27c21.89-30.251,41.717-61.099,59.625-92.72
				c17.915-31.616,33.928-63.999,48.096-97.354c10.543-24.9,19.709-49.541,27.532-73.286
				c21.178-64.357,34.872-128.774,42.131-192.18c7.24-63.422,8.052-125.853,3.215-186.654
				c-4.848-60.808-15.343-120.002-30.973-177.14c-15.646-57.136-36.424-112.229-62.057-164.854
				c-51.27-105.234-121.938-200.706-210.561-282.323c-44.332-40.778-93.25-78.04-146.74-110.68
				c-53.477-32.635-111.521-60.665-173.792-82.744c-62.759-22.266-128.18-38.094-194.664-46.977
				c-66.48-8.901-134.015-10.879-200.926-5.843c-66.912,5.018-133.193,17.026-197.194,35.678
				c-64.009,18.634-125.725,43.903-183.686,74.964c-57.972,31.051-112.177,67.873-161.561,109.167
				c-49.389,41.297-94.027,86.97-133.256,135.653c-39.241,48.682-72.998,100.407-101.048,153.655
				c-28.074,53.247-50.426,108.011-67.363,162.805C50.681,731.181,39.153,786.013,32.38,839.612
				c-6.781,53.61-8.798,105.986-6.97,156.152c1.827,50.177,7.502,98.144,15.994,143.221c8.481,45.09,19.781,87.288,32.77,126.208
				c12.998,38.927,27.678,74.58,42.978,106.808c15.29,32.241,31.194,61.061,46.677,86.524c15.489,25.468,30.58,47.569,44.387,66.475
				c13.814,18.905,26.355,34.612,36.936,47.28C262.292,1591.459,280.176,1609.931,298.734,1627.65z"/>
		</g>
	</g>
</g>
</svg>
