<?xml version="1.0" encoding="utf-8"?>
<!-- Generator: Adobe Illustrator 15.0.0, SVG Export Plug-In . SVG Version: 6.00 Build 0)  -->
<!DOCTYPE svg PUBLIC "-//W3C//DTD SVG 1.1//EN" "http://www.w3.org/Graphics/SVG/1.1/DTD/svg11.dtd">
<svg version="1.1" id="Layer_1" xmlns="http://www.w3.org/2000/svg" xmlns:xlink="http://www.w3.org/1999/xlink" x="0px" y="0px"
	 width="256px" height="128px" viewBox="0 0 256 128" enable-background="new 0 0 256 128" xml:space="preserve">
<g>
	<path fill="#FFFFFF" d="M253,72.571C253,78.883,245.684,84,236.659,84H23.341C14.316,84,7,78.883,7,72.571V20.429
		C7,14.117,14.316,9,23.341,9h213.318C245.684,9,253,14.117,253,20.429V72.571z"/>
	<g>
		<g opacity="0.8">
			<path fill="#1F1F1F" d="M247.371,72.041c1.219-8.782,1.905-28.09,2.418-48.45c2.39-9.9-8.068-13.421-17.277-12.802
				c-9.522-0.214-18.122-0.431-24.616-0.693c-10.007-0.23-17.643-0.462-23.36-0.743c-4.818-0.239,6.34,0.053,23.36,0.743
				l27.169,0.541c-13.166-1.047-25.82-2.082-34.886-2.932l-20.224-0.233C149.857,7.085,120.74,7.022,90.96,6.376
				c-10.8-0.257-34.362-0.32-44.828-0.837l131.216,0.774l-3.534-0.184l-68.983-1.116c-3.904-0.016-7.849-0.068-11.912-0.194
				l11.912,0.194c10.218,0.035,20.145-0.215,31.276-0.265c6.87,0.065,14.717,0.456,21.6,0.517
				c5.612,0.089,10.774,0.546,16.107,0.864l10.298,0.168c1.006-0.045,2.078-0.083,3.177-0.097c-0.037-0.008-0.106-0.019-0.133-0.029
				C178.632,4.098,91.926,1.187,77.54,1.578C66.077,1.839,55.622,3.526,42.863,3.722c-4.263,0.065-7.862-0.389-11.131,0
				c-0.324,0.258-1.959,0.454-3.601,0.651c-1.061,0.017-2.124,0.016-3.182,0.003l-1.597-0.026c-0.612-0.008-1.224,0.002-1.835,0.026
				c-2.443,0.113-4.87,0.529-7.168,1.314C12.056,6.477,9.88,7.629,8.052,9.227c-1.909,1.649-3.375,3.815-3.992,5.969
				c-0.248,0.746-0.56,1.654-0.794,2.721c-0.248,1.001-0.341,2.487-0.515,3.254c-0.337,1.856-0.81,3.913-1.268,5.857
				c-0.916,3.888-1.776,7.326-1.386,7.815c2.856,3.587,0.78,0.98,0.519,11.78c-0.062,1.311,1.105,5.56,0.978,8.18
				C1.236,59.215,1.3,62.077,1.495,65.104l0.353,4.877l0.093,1.417c0.032,0.731,0.07,1.488,0.197,2.267
				c0.242,1.555,0.785,3.199,1.721,4.818c1.413,2.368,3.408,4.15,5.03,5.269c1.684,1.173,3.295,1.961,4.814,2.572
				c3.043,1.201,5.73,1.72,8.361,1.921c1.412,0.088,2.395,0.078,3.521,0.088c1.111,0.001,2.253-0.017,3.467-0.065
				c2.428-0.1,5.146-0.327,8.497-0.78c1.628-0.197,22.566-1.365,22.566-1.365c16.358,0.257,26.497-1.172,39.262,0.838
				c14.718-1.754,34.356,0.322,50.057-0.006c15.703-0.326,22.255,1.103,36,2.334c3.924,0.194,6.869,0.063,9.158,0.451
				c2.293,0.392,7.849-0.714,11.773-0.52l-0.977,0.779l5.238,0.256c1.312,0.067,0.979,0.327,0.655,0.587
				c-0.655,0.52-1.304,1.04,0.986,1.428c5.472,0.441,11.064,0.782,16.793,1.024l8.73-0.643c3.868-0.356,7.682-1.371,11.257-3.25
				c0.276-0.518,0.613-1.057,1.451-1.85c1.974-1.32,3.84-2.959,5.405-5.046c0.4-1.707-0.618-1.814-0.472-2.897
				c-0.461-0.313-0.556-1.117-0.647-2.094c-0.089-0.979-0.197-2.139-0.504-3.133c-0.621-2.023-1.858-3.115-2.814-2.34
				c-0.272,0.262-0.504,2.272-2.196,3.988c-1.617,1.758-4.428,2.93-6.265,2.981c-0.857-0.029,0.688-1.331,0.897-2.354
				c-1.782,0.869-2.994,0.864-3.388,0.66c-0.42-0.214-0.125-0.664,0.52-1.212c-0.866,0.182-1.771,0.26-1.771,0.258
				c0.195-0.288,0.667-1.182,0.657-1.18c-0.557,0.058-1.129,0.082-1.709,0.073c-0.29-0.003-0.581-0.02-0.874-0.04l-1.016-0.092
				l-5.459-0.44c-3.667-0.298-7.38-0.593-11.083-0.828c-7.403-0.469-14.766-0.695-21.635-0.208
				c-2.945,0.128-7.849,0.714-11.118,1.104c-1.632,0.194-5.23-0.26-6.544-0.325c-2.291,0.714-1.96,1.557-2.939,2.336
				c-10.144-0.776-32.069-2.137-31.406,0.654c-8.177-0.129-9.815,1.168-18.32,1.299c-11.27,0.221-25.563,0.381-39.656,0.488
				c-7.706,0.186-15.118-0.049-22.596-0.049L57.481,79H37.134l-9.76,0.123l-2.404,0.072l-2.237,0.011
				c-1.305-0.066-2.584-0.236-3.8-0.56c-1.214-0.326-2.365-0.768-3.385-1.336c-1.002-0.543-1.955-1.295-2.526-1.931
				c-0.602-0.657-1.069-1.436-1.301-2.285c-0.256-0.922-0.145-1.449-0.142-3.264l0.214-18.188l0.127-18.125l0.006-9.14l-0.015-4.357
				c-0.019-0.824,0.204-1.65,0.613-2.374c0.203-0.364,0.45-0.703,0.728-1.018c0.261-0.296,0.603-0.623,1.029-0.96
				c0.829-0.652,1.838-1.224,2.944-1.679c1.107-0.456,2.314-0.789,3.568-1.003c1.307-0.217,2.398-0.263,4.155-0.286
				c6.461-0.144,13.077-0.342,19.899-0.607c55.02-2.139,112.828-1.601,160.271-0.449l17.279,0.456l8.227,0.242l4.002,0.123
				l1.972,0.063c0.579,0.023,1.079,0.059,1.609,0.122c2.087,0.244,4.047,0.841,5.68,1.705c0.808,0.439,1.547,0.927,2.143,1.465
				c0.633,0.558,0.95,0.979,1.301,1.532c0.314,0.538,0.528,1.115,0.619,1.704c0.037,0.295,0.058,0.588,0.038,0.879l-0.028,0.49
				l-0.03,0.843l-0.239,6.53c-0.623,16.893-1.142,29.551-1.298,36.326L247.371,72.041z"/>
		</g>
	</g>
</g>
<g>
	<path fill="#4C4C4C" d="M104.095,33.704c-0.478,1.399-1.194,3.891-1.365,4.881c-0.137,0.648-0.308,1.194-0.308,1.194
		c-0.068,0-0.068,0.068-0.034,0.103c0.068,0.103-0.034,0.888-0.137,1.092c-0.102,0.171-0.102,0.171-0.17-0.103
		c-0.034-0.239-0.239-0.307-0.239-0.102c0.034,0.205-0.205,0.136-0.239-0.068c-0.068-0.41-0.068-0.41-0.17-0.239
		c-0.171,0.307-0.239,0.17-0.205-0.785l0.034-0.307l-0.103,0.341c-0.068,0.409-0.205,0.546-0.342,0.478
		c-0.068,0-0.204-0.034-0.238-0.034c-0.171,0-0.956-0.307-0.99-0.41c-0.034,0-0.103-0.034-0.137-0.034
		c-0.068,0-0.238-0.103-0.409-0.205s-0.308-0.205-0.342-0.136c-0.034,0.034-0.034-0.308-0.068-0.956c0-0.136,0.068-0.41,0.103-0.546
		c0.034-0.137,0.103-0.546,0.137-1.024c0.068-0.409,0.137-0.785,0.171-0.819c0.137-0.171,0.068-0.341-0.103-0.307
		c-0.137,0-0.308-0.034-0.376-0.034c-0.102-0.034-0.17-0.034-0.17-0.034c0,0.068-0.171,0.136-0.342,0.17
		c-0.888,0.137-1.877,0.478-2.936,1.058c-0.785,0.41-1.16,0.649-2.014,1.4c-0.922,0.785-2.458,2.662-2.423,2.935
		c0,0.068,1.229,0.375,2.355,0.546c1.399,0.239,2.048,0.41,2.082,0.546c0,0.034,0.103,0.068,0.171,0.068
		c0.512-0.068,2.321,1.229,3.141,2.219c0.272,0.341,0.717,0.819,0.955,1.092c1.059,1.126,1.536,1.946,1.639,2.799
		c0.239,1.912-1.604,4.847-3.959,6.417c-1.366,0.921-2.39,1.263-3.994,1.468c-0.614,0.068-1.365,0.103-1.672,0.103
		c-1.058-0.103-1.4-0.239-1.946-0.819c-0.273-0.273-0.819-0.854-1.297-1.263c-0.41-0.443-0.888-0.921-1.024-1.092
		c-0.307-0.341-0.41-0.751-0.205-1.058l0.136-0.205l0.375,0.375c0.751,0.717,0.854,0.785,1.4,0.785
		c0.546,0.034,2.219-0.137,2.662-0.273c0.068-0.068,0.376-0.136,0.58-0.239c0.205-0.068,0.479-0.137,0.581-0.205
		c0.375-0.103,1.297-0.615,1.945-1.024c0.854-0.58,1.877-1.604,2.39-2.355c0.818-1.126,1.399-2.765,1.126-3.208
		c-0.137-0.239-1.365-0.649-2.287-0.819c-1.468-0.205-2.219-0.375-3.242-0.683c-1.536-0.478-1.878-0.683-2.628-1.536
		c-0.273-0.307-0.888-0.99-1.366-1.502c-1.058-1.126-1.263-1.399-1.229-1.912c0.034-0.546,0.102-0.785,0.512-1.434
		c0.683-1.161,2.424-2.833,3.755-3.754c2.321-1.536,5.188-2.185,7.646-1.707c0.342,0.068,0.684,0.103,0.717,0.103
		c0-0.034,0.103-0.341,0.308-0.751c0.308-0.751,0.614-1.195,0.717-1.024c0,0.068,0.068,0.103,0.137,0.103
		c0.171-0.034,1.058,0.683,1.194,0.853c0.068,0.137,0.137,0.171,0.273,0.103c0.137-0.034,0.171-0.034,0.205,0.171
		c0,0.136,0.034,0.239,0.068,0.205c0.067,0,0.102,0.103,0.136,0.137c0,0.17,0.034,0.136,0.103,0
		c0.137-0.205,0.171-0.205,0.751,0.239C104.266,32.918,104.3,33.055,104.095,33.704z M91.09,38.38
		c-0.136,0.103-0.17,0.171-0.136,0.171S91.056,38.482,91.09,38.38C91.192,38.244,91.192,38.244,91.09,38.38z M101.331,38.551
		c-0.034,0.068-0.068,0.239-0.068,0.307c0.034,0.068-0.034,0.137-0.103,0.103c-0.171-0.034-0.171,0.068,0,0.205
		c0.137,0.068,0.205,0,0.239-0.444C101.399,38.482,101.399,38.448,101.331,38.551z M101.569,37.697c0-0.034-0.068-0.034-0.068,0
		c-0.067,0.068-0.067,0.171-0.067,0.273c0.033,0.171,0.033,0.171,0.067,0C101.535,37.868,101.569,37.766,101.569,37.697z
		 M101.74,36.912c0-0.068-0.034-0.068-0.103,0.034c0,0.103-0.034,0.205-0.034,0.273c0,0.137,0,0.137,0.068,0
		C101.74,37.151,101.74,37.015,101.74,36.912z M104.027,32.918c0-0.068-0.034-0.136-0.034-0.136c-0.034,0-0.034,0.068-0.103,0.136
		c0,0.103,0.034,0.137,0.068,0.137C104.027,33.055,104.061,33.021,104.027,32.918z"/>
	<path fill="#4C4C4C" d="M120.613,34.045c-0.068,0-0.239,0-0.444,0.034c-0.512,0.034-1.058,0.103-1.16,0.171
		c-0.205,0.102,0.034,0.17,0.478,0.136c0.273-0.034,0.478,0,0.478,0.034c0,0.068-0.17,0.103-0.375,0.137
		c-0.443,0-2.936,0.307-3.004,0.41c-0.034,0.034-0.171,0.956-0.307,2.048c-0.171,1.126-0.444,2.901-0.581,3.959
		c-0.17,1.058-0.341,2.321-0.409,2.833c-0.068,0.512-0.376,2.628-0.717,4.676c-0.273,2.083-0.58,4.028-0.614,4.335
		c-0.068,0.307-0.205,1.194-0.308,2.014c-0.272,1.604-0.409,2.287-0.648,2.56c-0.103,0.239-0.409,0.341-0.308,0.137
		c0.068-0.103,0.068-0.103-0.033,0c-0.171,0.136-0.342,0.136-0.41-0.068c-0.034-0.103-0.034-0.103-0.103,0
		c-0.068,0.068-0.068,0.068-0.137-0.034c-0.067-0.103-0.136-0.103-0.375-0.068c-0.308,0.103-1.911-0.103-2.014-0.273
		c-0.205-0.307-0.239-0.819-0.137-1.57c0.137-1.161,0.751-5.018,1.365-8.841c0.205-1.16,0.375-2.252,0.409-2.389
		c0.068-0.785,1.195-7.612,1.366-8.567c0.067-0.239,0.067-0.239-0.205-0.205c-0.444,0.103-3.413,0.546-4.949,0.785
		c-0.888,0.137-1.639,0.273-1.741,0.273c-0.239,0.068-0.273-0.068-0.034-0.239c0.103-0.068,0.103-0.068-0.034-0.034
		c-0.171,0.034-0.205,0.034-0.205-0.103c0-0.102,0.034-0.205,0.103-0.273c0.103-0.068,0.103-0.103-0.034-0.034
		c-0.136,0.034-0.17,0-0.17-0.17c0-0.137-0.068-0.342-0.137-0.444c-0.171-0.273-0.648-1.468-0.648-1.673
		c0-0.205,0.409-0.443,0.887-0.58c0.888-0.205,5.052-0.921,6.35-1.092c0.17,0,0.887-0.137,1.638-0.205
		c0.717-0.103,1.536-0.171,1.775-0.239c0.273,0,0.751-0.068,1.126-0.136c0.717-0.068,2.492-0.205,3.789-0.308
		c0.648,0,0.854,0,0.854,0.068c0,0.103,0.034,0.103,0.103,0c0.034-0.068,0.171-0.068,0.239-0.068c0.136,0,0.375,0.308,0.375,0.478
		c-0.034,0.068,0,0.103,0.034,0.103s0.068,0.239,0.068,0.546c0.034,0.478,0,0.581-0.103,0.444c-0.137-0.103-0.819-0.103-0.888,0.034
		c0,0.034,0,0.103,0.068,0.103s0.103,0.068,0.103,0.102c0,0.103-0.103,0.137-0.341,0.137c-0.205,0-0.376,0.034-0.41,0.068
		c-0.034,0-0.171,0-0.239-0.068c-0.102,0-0.238,0-0.375,0.068c-0.103,0.103-0.239,0.103-0.342,0.103
		c-0.034-0.034-0.17-0.034-0.238,0.034c-0.068,0.034-0.103,0.068-0.103,0.034s-0.137-0.034-0.239,0.034
		c-0.137,0.034-0.204,0.034-0.204,0c0-0.068-0.068-0.068-0.137,0c-0.103,0.034-0.239,0.034-0.342,0
		c-0.238-0.102-0.272-0.102-0.341,0.034c0,0.103,0,0.137,0.103,0.103c0.067-0.034,0.102-0.034,0.102,0.034
		c0,0.103-0.136,0.103-0.375,0c-0.103-0.034-0.205,0-0.273,0.068c-0.068,0.068-0.137,0.068-0.204,0.068
		c-0.034-0.034-0.103-0.034-0.171,0c-0.205,0.103,0.103,0.171,0.478,0.103c0.273,0,0.41,0,0.41,0.068s0,0.034,0.034-0.034
		c0.067-0.068,0.204-0.103,0.443-0.034c0.205,0,0.341,0,0.409-0.068c0-0.034,0.103-0.102,0.171-0.102
		c0.137,0,0.137,0.034,0.034,0.102c-0.103,0.068-0.103,0.068,0.103,0.068c0.137,0,0.239,0,0.239-0.068
		c0-0.034,0.102-0.034,0.238-0.034s0.273,0.034,0.308,0.034s0.034,0.068-0.034,0.137c-0.068,0.103-0.068,0.137,0.034,0.137
		c0.068,0,0.137-0.068,0.137-0.137c0-0.103,0.102-0.137,0.272-0.137c0.205,0,0.239,0.034,0.205,0.137
		c-0.034,0.068,0.034,0.137,0.137,0.137C120.681,33.875,120.783,34.011,120.613,34.045z M113.342,48.416
		c-0.103-0.137-0.137-0.068-0.137,0.273c0,0.205,0,0.341,0.034,0.205c0.034-0.068,0.068-0.17,0.103-0.239
		S113.376,48.518,113.342,48.416z M114.093,43.125c-0.034-0.068-0.068-0.068-0.068,0.034s0.034,0.137,0.068,0.103
		C114.127,43.261,114.127,43.159,114.093,43.125z M114.195,42.442c-0.067-0.103-0.067-0.068-0.067,0.034
		c0,0.068,0,0.137,0.033,0.103C114.195,42.544,114.195,42.476,114.195,42.442z M117.438,34.489c-0.034,0-0.103-0.034-0.171,0
		s-0.034,0.068,0.068,0.068C117.404,34.557,117.472,34.523,117.438,34.489z M117.746,34.455c0-0.034-0.068-0.103-0.103-0.103
		s-0.103,0.068-0.103,0.103c0,0.068,0.068,0.103,0.103,0.103S117.746,34.523,117.746,34.455z M117.916,34.352
		c-0.034,0-0.103,0.068-0.103,0.103c0,0.068,0.034,0.103,0.068,0.103s0.103-0.034,0.137-0.103
		C118.052,34.42,118.018,34.352,117.916,34.352z M118.701,34.284c-0.238-0.103-0.512-0.034-0.512,0.102
		c-0.034,0.137,0,0.137,0.308,0.034C118.769,34.352,118.837,34.318,118.701,34.284z M119.077,32.884
		c0.034,0.068,0.068,0.103,0.103,0.034c0.034-0.034,0.272-0.068,0.512-0.102c0.307-0.034,0.546,0,0.614,0
		c0.137,0.102,0.342-0.034,0.342-0.205c0-0.068-0.239-0.068-1.264,0.103C119.111,32.748,119.042,32.816,119.077,32.884z
		 M119.281,33.875c0-0.068-0.034-0.103-0.034-0.103c-0.033,0-0.067,0.034-0.102,0.103c-0.034,0.034-0.034,0.068,0.034,0.068
		C119.247,33.942,119.281,33.909,119.281,33.875z M120.203,33.806c-0.068,0-0.137-0.034-0.205,0c-0.034,0.034,0,0.068,0.068,0.068
		C120.168,33.875,120.203,33.84,120.203,33.806z M120.374,34.352c0,0.068-0.068,0.103-0.171,0.103s-0.137-0.034-0.137-0.103
		c0.034-0.034,0.137-0.068,0.171-0.068C120.305,34.284,120.374,34.318,120.374,34.352z M120.783,33.669c-0.17,0-0.341,0-0.307-0.034
		c0.103-0.068,0.683-0.136,0.683-0.034C121.159,33.635,120.988,33.669,120.783,33.669z M121.773,33.875
		c0.103,0.068,0.103,0.068-0.443,0.102c-0.273,0.034-0.444-0.034-0.41-0.068c0.034-0.034,0.103-0.103,0.205-0.103
		c0.137-0.034,0.205-0.103,0.205-0.171s0.068-0.136,0.204-0.136c0.171,0,0.239,0.068,0.205,0.136S121.739,33.806,121.773,33.875z
		 M121.398,32.748c0.067,0.034,0.102,0.068,0.033,0.068c-0.033,0-0.136,0.034-0.238,0.068c-0.068,0.034-0.137,0-0.137-0.034
		C121.056,32.68,121.227,32.646,121.398,32.748z M122.353,33.909c0,0.034-0.034,0.034-0.068,0.034c-0.068,0-0.103-0.068-0.103-0.068
		c0-0.068,0.034-0.068,0.103-0.068C122.319,33.875,122.353,33.875,122.353,33.909z"/>
	<path fill="#4C4C4C" d="M135.768,52c-0.034-0.171-0.068-0.444-0.068-0.648c-0.068-0.239-0.068-0.512-0.103-0.649
		c-0.034-0.136-0.034-0.341-0.103-0.409c0-0.068-0.068-0.205-0.068-0.273s-0.068-0.17-0.068-0.205c-0.034,0-0.034-0.103,0-0.171
		c0-0.068-0.034-0.136-0.103-0.136c-0.067,0-0.102,0.068-0.067,0.273c0.136,0.41,0.17,0.854,0.067,0.854
		c-0.067,0-0.067,0.068,0,0.102c0.103,0.068,0.103,0.171,0.068,0.375c-0.034,0.205,0,0.307,0.034,0.307
		c0.068,0,0.068,0.034,0.068,0.103c-0.034,0,0,0.171,0.034,0.375c0.034,0.171,0.034,0.273,0,0.239c-0.103-0.034-0.103,0.034,0,0.239
		c0.103,0.239,0.171,0.683,0.068,0.717c-0.068,0.068-0.034,0.068,0.034,0.136c0.103,0.068,0.171,1.195,0.068,1.195
		c-0.068,0-0.068,0-0.068-0.068c-0.034,0-0.068-0.17-0.068-0.307c-0.034-0.136-0.068-0.444-0.068-0.648
		c0-0.239-0.068-0.444-0.103-0.478c-0.068-0.068-0.068-0.205-0.068-0.273c0.034-0.103,0-0.205-0.067-0.239
		c-0.034-0.034-0.034-0.068,0-0.205c0.102-0.17,0.102-0.17,0-0.102c-0.068,0.034-0.068,0-0.034-0.137s0.034-0.239-0.034-0.239
		c-0.034-0.034-0.068,0-0.068,0.068c0,0.239-0.239,0.103-0.239-0.102c-0.034-0.103,0-0.171,0.103-0.171
		c0.068,0,0.137-0.103,0.137-0.307c0-0.171-0.068-0.307-0.103-0.307c-0.068,0-0.137,0.17-0.068,0.444
		c0,0.068-0.068,0.034-0.137-0.068c-0.103-0.137-0.137-0.273-0.137-0.341c0-0.103-0.034-0.239-0.103-0.375
		c-0.17-0.273-0.272-0.99-0.136-1.058c0.068,0,0.068-0.068,0-0.205c-0.068-0.102-0.103-0.307-0.068-0.375c0-0.102,0-0.17-0.103-0.17
		c-0.137-0.068-0.103-0.239,0.068-0.41c0.103-0.103,0.103-0.103-0.034-0.034c-0.103,0-0.137-0.034-0.171-0.171
		c-0.068-0.102-0.068-0.273-0.068-0.341c0.034-0.034,0-0.17,0-0.239c-0.034-0.068-0.137-0.444-0.171-0.888
		c-0.102-0.512-0.102-0.717-0.067-0.819c0.102-0.068,0.067-0.137-0.034-0.239c-0.068-0.068-0.137-0.136-0.137-0.136
		c0-0.171-0.034-0.171-0.103-0.034c-0.103,0.273-0.103,0.648,0,0.648c0.068,0,0.103,0.137,0.068,0.375
		c0,0.205,0.034,0.41,0.103,0.444c0.103,0.103,0.204,0.751,0.103,0.683c-0.137-0.103-0.171,0.137-0.034,0.273
		c0.034,0.068,0.102,0.137,0.102,0.205c0,0.034,0,0.136,0.034,0.239c0.103,0.444,0.137,0.717,0.068,0.648
		c-0.068,0-0.103,0.034-0.103,0.137s0.034,0.17,0.103,0.17c0.034,0,0.034,0.103,0,0.239c-0.103,0.273,0,0.443,0.171,0.307
		c0.137-0.034,0.103,0.307-0.034,0.41c-0.068,0.102-0.103,0.205-0.068,0.41c0.068,0.136,0.068,0.273,0,0.273
		c-0.034,0-0.034,0.068,0,0.17c0,0.103,0.068,0.171,0.137,0.171s0.137,0.034,0.137,0.103c0,0.034-0.034,0.068-0.103,0.034
		c-0.034-0.034-0.068,0-0.068,0.034c0,0.034,0.068,0.103,0.137,0.137c0.137,0.034,0.137,0.034,0,0.034
		c-0.068,0-0.103,0.068-0.103,0.103c0.034,0.068,0.034,0.273,0.068,0.443c0.034,0.273,0.034,0.308-0.068,0.273
		c-0.137-0.034-0.171,0.102,0,0.17c0.034,0.034,0,0.034-0.137,0.034c-0.238-0.068-0.238-0.068-0.238,0.478
		c0.033,0.307,0.067,0.546,0.102,0.512c0.034,0,0.068,0.068,0.068,0.205c0,0.17-0.068,0.273-0.103,0.273
		c-0.102,0-0.102,0.239,0,0.273c0.068,0.034,0.103,0.273,0.137,0.581s0.103,0.614,0.171,0.683c0.034,0.068,0.034,0.103,0,0.103
		c-0.068,0-0.137-0.034-0.205-0.103c-0.068-0.103-0.103-0.171-0.103-0.307c0-0.034-0.034,0-0.067,0.034
		c-0.103,0.102,0,0.375,0.238,0.648c0.171,0.17,0.239,0.307,0.137,0.307c-0.068,0-0.137-0.034-0.205-0.103
		c-0.068-0.068-0.103-0.034-0.068,0.103c0,0.137,0.034,0.307,0.068,0.41c0,0.273,0.171,0.273,0.171-0.034
		c0-0.239,0.137-0.239,0.205,0c0.103,0.307,0,0.546-0.171,0.478c-0.068-0.034-0.137-0.034-0.137,0.034
		c0,0.034,0.103,0.068,0.171,0.102c0.137,0.034,0.205,0.103,0.171,0.171c-0.034,0.103,0,0.17,0.103,0.17
		c0.204,0.068,0.136,0.239-0.068,0.239c-0.137,0-0.205-0.068-0.205-0.205v-0.205l-0.068,0.239c-0.034,0.103-0.068,0.239-0.034,0.273
		c0,0.034-0.068,0.068-0.205,0.068c-0.102,0-0.17,0.034-0.204,0.103s-0.068,0.068-0.137,0c-0.068-0.103-0.103-0.103-0.137,0
		c-0.034,0.137-0.342,0.171-0.512,0.034c-0.205-0.137-0.376-0.854-0.205-0.785c0.068,0.034,0.137,0,0.103-0.103
		c-0.103-0.546-0.171-0.648-0.205-0.614c-0.068,0.068-0.103,0.034-0.103,0s0.034-0.103,0.103-0.137
		c0.034-0.034,0.034-0.068,0.034-0.102s-0.034-0.273-0.103-0.512c-0.034-0.444-0.137-0.717-0.137-0.478c0,0.034,0,0.103-0.067,0.103
		c-0.068,0-0.068-0.137-0.068-0.307c0.034-0.137,0-0.307,0-0.307c-0.103,0-0.308-1.024-0.239-1.092c0.034-0.034,0-0.103-0.034-0.171
		s-0.137-0.444-0.171-0.751c-0.137-0.887-0.137-0.921-0.375-2.287c-0.273-1.468-0.785-4.335-0.854-4.506
		c-0.034-0.068-0.273-0.034-0.819,0.103c-0.375,0.136-0.888,0.273-0.991,0.307c-0.136,0.034-0.443,0.136-0.683,0.205
		c-0.238,0.068-1.126,0.307-1.945,0.546c-2.185,0.648-2.048,0.58-2.219,0.956c-0.103,0.205-0.171,0.444-0.171,0.478
		c0,0.136-0.375,0.785-0.478,0.785c-0.034-0.034-0.034,0,0,0.068c0.068,0.17-0.068,0.17-0.171,0
		c-0.103-0.137-0.341-0.068-0.272,0.068c0.034,0.034,0.034,0.068,0,0.068c-0.103,0-0.239,0.307-0.239,0.444
		c0.034,0.034,0,0.068-0.068,0.068s-0.171,0.307-0.171,0.443c0.034,0.034-0.034,0.068-0.103,0.068c-0.034,0-0.034,0.068-0.034,0.137
		c0.034,0.068,0,0.137-0.067,0.17c-0.068,0-0.137,0.068-0.068,0.103c0,0.068,0,0.103-0.068,0.103s-0.068,0.034-0.034,0.103
		c0.068,0.102-0.103,0.205-0.205,0.136c-0.068-0.034-0.034-0.205,0.034-0.41c0.137-0.41,0.137-0.614,0-0.273
		c-0.103,0.273-0.308,0.375-0.308,0.171c0-0.034,0.068-0.068,0.103-0.068s0.068-0.034,0.034-0.068c-0.034-0.068,0-0.171,0.068-0.273
		c0.103-0.103,0.239-0.444,0.273-0.751c0-0.034,0.103-0.239,0.204-0.478c0.103-0.239,0.205-0.478,0.205-0.546
		c0-0.034,0.034-0.103,0.068-0.103s0.068-0.068,0.068-0.137c0-0.17-0.068-0.17-0.342-0.034c-0.102,0.068-0.204,0.171-0.17,0.239
		c0,0.034-0.068,0.068-0.171,0.068c-0.137,0-0.137,0-0.103-0.137c0.034-0.103,0.034-0.137-0.034-0.034
		c-0.103,0.068-0.068,0.137,0,0.341c0.137,0.273,0.137,0.375-0.103,0.375c-0.103,0-0.171,0.068-0.171,0.205
		c0,0.136-0.033,0.273-0.102,0.307c-0.068,0-0.513,0.853-0.547,1.092c0,0.068-0.102,0.17-0.204,0.239
		c-0.137,0.068-0.205,0.137-0.137,0.137c0.034,0,0,0.034-0.068,0.068c-0.068,0.068-0.068,0.103,0.103,0.103
		c0.205,0,0.205,0,0.068,0.103c-0.103,0.034-0.205,0.034-0.239,0.034c-0.034-0.034-0.068,0.034-0.034,0.17
		c0.034,0.137,0.034,0.307-0.034,0.307c-0.068,0.068-0.068,0.137-0.068,0.171c0.034,0.034,0,0.068-0.068,0.068
		c-0.103,0-0.137,0.068-0.137,0.273c0,0.171-0.033,0.239-0.067,0.205c-0.068-0.102-0.103-0.068-0.171,0.068
		c-0.103,0.103-0.103,0.137,0.034,0.137c0.103,0,0.103,0.034,0.068,0.034c-0.068,0.068-0.137,0.17-0.171,0.273
		c-0.034,0.137-0.103,0.171-0.137,0.171c-0.068-0.068-0.068-0.034-0.034,0.034c0.068,0.136-0.103,0.409-0.239,0.409
		c-0.136,0-0.136,0,0-0.205c0.068-0.103,0.137-0.239,0.068-0.239c0-0.068,0-0.137,0.068-0.171c0.034-0.068,0-0.137-0.068-0.205
		c-0.102-0.103-0.136-0.103-0.136,0c0,0.239-0.068,0.443-0.137,0.512c-0.034,0-0.068,0.103-0.068,0.205
		c0,0.068-0.068,0.17-0.103,0.205c-0.103,0.034-0.137-0.034-0.068-0.136c0.034-0.103,0-0.137-0.068-0.068
		c-0.103,0-0.171,0.034-0.205,0.034c-0.033,0,0,0.034,0.034,0.068c0,0.068,0,0.137-0.102,0.171c-0.171,0.068-0.171,0.205,0,0.205
		c0.067,0,0.136-0.068,0.136-0.136s0.034-0.137,0.103-0.103c0.068,0,0.103,0.103,0.103,0.171c-0.034,0.102,0,0.17,0.137,0.17
		c0.273,0.034,0.307,0.034,0.478,0.171c0.103,0.102,0.137,0.17,0.068,0.239c-0.103,0.103-0.922,0.17-1.74,0.103
		c-0.513-0.034-0.649-0.068-0.684-0.205c-0.033-0.102-0.067-0.17-0.136-0.17s-0.068-0.239,0-0.478
		c0.034-0.068,0.068-0.103,0.103-0.034c0.067,0.068,0.136,0,0.17-0.17c0.103-0.239,0.103-0.239-0.034-0.137
		c-0.136,0.103-0.136,0.103-0.068-0.103c0.068-0.102,0.171-0.205,0.205-0.205s0.103-0.068,0.068-0.171
		c-0.034-0.239,0.41-1.399,0.888-2.458c0.068-0.205,0.171-0.375,0.171-0.41s0.512-1.263,0.818-1.979
		c0.068-0.137,0.239-0.512,0.376-0.888c0.137-0.341,0.308-0.751,0.375-0.888c0.171-0.307,0.171-0.443-0.136-0.75
		c-0.308-0.444-0.581-0.888-0.513-1.092c0.034-0.239,0.239-0.308,1.059-0.546c0.58-0.171,0.717-0.239,0.888-0.478
		c0.136-0.17,0.204-0.341,0.204-0.375c0-0.068,0.205-0.478,0.888-1.911c0.103-0.308,0.444-1.024,0.717-1.639
		c1.331-3.038,2.73-5.905,4.164-8.533l0.273-0.512l0.683,0.034c0.41,0,0.785,0.103,0.957,0.17c0.171,0.103,0.307,0.103,0.341,0.034
		c0.137-0.136,0.308-0.068,0.342,0.068c0.034,0.205,0.341,0.205,0.375,0.034c0.034-0.137,0.581-0.137,0.717,0.034
		c0.068,0.068,0.205,0.103,0.308,0.068c0.239-0.068,0.785,1.161,1.331,3.14c0.308,0.922,1.297,4.813,1.502,5.667
		c0.068,0.375,0.171,0.683,0.171,0.717s0.205,0.034,0.375-0.034c0.308-0.068,0.376-0.068,0.547,0.068
		c0.136,0.136,0.17,0.136,0.068,0.034c-0.103-0.136-0.068-0.17,0.204-0.239c0.376-0.068,0.58,0.137,0.683,0.512
		c0.034,0.136,0.103,0.273,0.171,0.307c0.137,0.034,0.239,0.341,0.103,0.341c-0.068,0,0,0.068,0.068,0.136
		c0.171,0.103,0.103,0.375-0.034,0.273c-0.034-0.034-0.103-0.034-0.103,0c0,0.068-0.103,0.102-0.239,0.136
		c-0.136,0-0.272,0.034-0.341,0.068c-0.034,0.068-0.103,0.068-0.103,0c0,0-0.103,0-0.308,0.034
		c-0.238,0.103-0.272,0.137-0.272,0.273c0.034,0.171,0,0.205-0.103,0.205c-0.239,0-0.273,0.136-0.205,0.512
		c0.034,0.239,0.103,0.341,0.239,0.41c0.171,0,0.171,0.034,0.068,0.137c-0.137,0.068-0.137,0.068,0,0.034s0.204,0,0.272,0.102
		c0.068,0.068,0.171,0.103,0.171,0.068c0.068-0.034,0.034-0.102-0.034-0.136s-0.103-0.137-0.034-0.205
		c0.034-0.068,0.068-0.034,0.205,0.068c0.034,0.103,0.103,0.137,0.103,0.068s0.103-0.068,0.272-0.068
		c0.342,0.068,0.444-0.068,0.171-0.205c-0.068-0.034-0.103-0.103-0.103-0.171c0.103-0.103,0.342-0.034,0.308,0.137
		c0,0.034,0.068,0.068,0.171,0.068c0.068,0,0.204,0.034,0.272,0.102c0.103,0.034-0.204,0.171-0.921,0.307
		c-0.068,0.034-0.171,0.068-0.171,0.068s-0.034,0.034-0.103,0.034c-0.034,0.034-0.103,0.034-0.137,0.034
		c0,0.034-0.103,0.068-0.171,0.068c-0.443,0.034-0.443,0.136-0.136,2.082c0.238,1.399,0.238,1.57,0.307,2.116
		c0.034,0.239,0.103,0.649,0.137,0.956c0.068,0.273,0.103,0.751,0.137,1.058c0,0.341,0.034,0.614,0.068,0.648
		c0.034,0.068,0.068,0.239,0.068,0.444c0,0.239,0.034,0.444,0.034,0.478c0.102,0.171,0.102,0.308,0.033,0.308
		C135.87,52.443,135.802,52.307,135.768,52z M119.417,52.034c0-0.068-0.034-0.103-0.034-0.103c-0.034,0-0.068,0.034-0.103,0.103
		c0,0.068,0,0.068,0.068,0.068C119.382,52.102,119.417,52.102,119.417,52.034z M120.133,51.249c-0.034,0-0.103,0.034-0.103,0.103
		c0,0.034-0.136,0.307-0.272,0.614c-0.308,0.648-0.308,0.648-0.103,0.648c0.171,0,0.171,0,0.137-0.205
		c-0.034-0.137,0-0.273,0.103-0.341c0.102-0.068,0.136-0.103,0.067-0.137c-0.034,0-0.034-0.034,0.034-0.068
		c0.034-0.034,0.103-0.136,0.137-0.205c0-0.103,0.068-0.239,0.068-0.307C120.27,51.283,120.236,51.249,120.133,51.249z
		 M120.543,54.56c0.136,0.239,0.136,0.273-0.068,0.444l-0.205,0.17v-0.17c-0.034-0.137-0.103-0.205-0.205-0.205
		c-0.272,0-0.238-0.239,0.034-0.239c0.103-0.034,0.239-0.068,0.239-0.137C120.407,54.354,120.475,54.423,120.543,54.56z
		 M120.338,51.078c0-0.034-0.034-0.102-0.068-0.102s-0.103,0.068-0.137,0.102c0,0.068,0,0.068,0.103,0.068
		C120.27,51.146,120.338,51.146,120.338,51.078z M120.167,54.287c-0.068-0.068,0.034-0.375,0.137-0.41
		c0.068,0,0.103,0.034,0.068,0.17C120.338,54.287,120.27,54.389,120.167,54.287z M120.475,50.668
		c0.034-0.205,0.034-0.205-0.068-0.068c-0.068,0.102-0.137,0.205-0.103,0.239C120.407,50.941,120.407,50.941,120.475,50.668z
		 M120.646,53.023c-0.034-0.034,0-0.068,0.033,0c0.103,0.034,0.068,0.137-0.136,0.444c-0.103,0.136-0.103,0.103-0.068-0.068
		c0.068-0.103,0.137-0.239,0.137-0.239C120.646,53.126,120.679,53.092,120.646,53.023z M120.612,50.976c0-0.034,0-0.068-0.034-0.068
		s-0.068,0.034-0.103,0.068c0,0.068,0,0.102,0.068,0.102C120.578,51.078,120.612,51.043,120.612,50.976z M120.578,53.809
		c-0.034-0.034-0.034-0.068-0.034-0.068c0.238-0.068,0.341-0.034,0.341,0.068S120.646,53.945,120.578,53.809z M120.782,50.02
		c-0.068-0.034-0.136-0.068-0.17,0c-0.068,0-0.068,0.034,0.034,0.034C120.748,50.054,120.782,50.02,120.782,50.02z M120.713,52.785
		c0-0.034,0.068-0.103,0.137-0.171c0.103-0.068,0.103-0.068,0.068,0.034C120.85,52.785,120.713,52.853,120.713,52.785z
		 M121.055,54.798c0,0.171-0.103,0.171-0.205,0.103c-0.103-0.103-0.068-0.239,0.068-0.239
		C120.987,54.662,121.055,54.73,121.055,54.798z M120.987,55.208c0,0.034-0.068,0.068-0.137,0.068c-0.034,0-0.034-0.034,0-0.068
		c0-0.034,0.068-0.103,0.103-0.103C121.021,55.105,121.021,55.174,120.987,55.208z M120.987,53.092
		c0.068,0.034,0.137,0.068,0.137,0.068c0,0.034-0.068,0.068-0.137,0.102s-0.103,0-0.103-0.102
		C120.884,53.092,120.918,53.092,120.987,53.092z M121.567,52.102c-0.171,0.273-0.272,0.512-0.341,0.75
		c-0.034,0.205-0.068,0.239-0.137,0.103c-0.034-0.034-0.034-0.17,0-0.341c0.034-0.136,0-0.239-0.034-0.239
		c-0.034,0.034-0.068-0.034-0.068-0.137s0.034-0.205,0.068-0.205s0.068-0.068,0.068-0.137c0-0.103,0.034-0.136,0.171-0.103
		c0.102,0.034,0.17,0,0.17-0.034c0-0.034,0.068-0.103,0.205-0.103C121.806,51.624,121.806,51.727,121.567,52.102z M121.294,52.068
		c0-0.068,0-0.137-0.034-0.137s-0.034,0.068-0.103,0.137c0,0.068,0,0.136,0.068,0.136C121.26,52.204,121.294,52.136,121.294,52.068z
		 M121.396,51.249c0-0.034,0.034-0.103,0.068-0.103c0.068,0,0.103,0.068,0.103,0.103c0,0.068-0.034,0.103-0.103,0.103
		C121.43,51.351,121.396,51.317,121.396,51.249z M122.284,50.225c-0.068-0.103-0.307,0-0.307,0.136c0,0.103,0.068,0.103,0.204,0.034
		C122.25,50.327,122.318,50.259,122.284,50.225z M122.215,49.781c-0.102,0-0.102,0.034-0.102,0.103
		c0.033,0.068,0.067,0.068,0.102,0.068c0,0,0.068,0,0.068-0.068C122.318,49.815,122.284,49.781,122.215,49.781z M123.171,49.815
		c0,0.068-0.239,0.717-0.308,0.751c-0.067,0-0.136,0.17-0.17,0.307c-0.068,0.205-0.273,0.41-0.273,0.205
		c0-0.034,0.034-0.102,0.103-0.17s0.103-0.205,0.103-0.341C122.625,50.225,123,49.678,123.171,49.815z M123.137,49.269
		c-0.034-0.034-0.068-0.068-0.103-0.068c-0.068,0-0.103,0.034-0.103,0.068c0,0.068,0.068,0.103,0.137,0.103
		S123.171,49.337,123.137,49.269z M123.24,48.688c-0.068,0.034-0.103,0.103-0.103,0.137c0,0.068-0.034,0.136-0.103,0.17
		c-0.068,0.068-0.103,0.103-0.068,0.103c0.068,0,0.137-0.034,0.171-0.068C123.308,48.961,123.376,48.654,123.24,48.688z
		 M123.513,48.381c0-0.137-0.034-0.171-0.137-0.171c-0.068,0.034-0.103,0.137-0.103,0.239c0,0.068,0.034,0.136,0.103,0.136
		C123.479,48.586,123.513,48.518,123.513,48.381z M124.981,42.613c-0.034,0.034-0.068,0.034-0.068-0.034
		c0-0.171-0.273,0.205-0.273,0.307c0,0.205,0.409,0,0.409-0.171C125.083,42.613,125.048,42.579,124.981,42.613z M125.185,42.408
		c0-0.034-0.068-0.068-0.103-0.136c-0.034,0-0.102,0-0.102,0.068c0,0.034,0.067,0.068,0.102,0.068S125.185,42.408,125.185,42.408z
		 M125.322,41.418l-0.137,0.239c-0.17,0.171-0.17,0.205-0.034,0.307c0.068,0.068,0.137,0.103,0.137,0.103s0.034-0.137,0.034-0.341
		V41.418z M125.936,40.257l0.068-0.205l-0.205,0.239c-0.102,0.171-0.204,0.341-0.204,0.478c0,0.068-0.034,0.205-0.103,0.239
		c-0.103,0.068-0.103,0.103,0,0.103c0.068,0,0.137-0.068,0.137-0.137c0.034-0.068,0.103-0.205,0.136-0.307
		C125.833,40.564,125.902,40.394,125.936,40.257z M126.073,42.169c-0.137,0.034-0.171,0.307-0.068,0.307
		c0.034,0,0.103-0.068,0.137-0.137C126.141,42.203,126.141,42.135,126.073,42.169z M126.312,41.896c0,0-0.068,0-0.137,0.068
		c-0.103,0.103-0.103,0.103,0.034,0.068C126.312,41.998,126.346,41.93,126.312,41.896z M126.415,41.759
		c0.068-0.034,0.136-0.068,0.136-0.103c0-0.136-0.204-0.068-0.238,0.068C126.278,41.793,126.312,41.793,126.415,41.759z
		 M129.486,41.145c-0.034-0.307-0.238-1.195-0.375-2.014c-0.137-0.751-0.274-1.434-0.308-1.536c-0.034-0.136-0.204,0.205-0.751,1.4
		c-0.136,0.307-0.443,0.921-0.683,1.399c-0.204,0.478-0.409,0.887-0.409,0.921s-0.137,0.307-0.239,0.614
		c-0.171,0.308-0.272,0.581-0.272,0.615s0.102,0.034,0.238,0s0.308-0.068,0.376-0.103c1.331-0.307,2.458-0.58,2.526-0.648
		C129.589,41.759,129.555,41.486,129.486,41.145z M126.687,40.94c0.034,0,0.068,0.068,0.034,0.137c0,0.068,0,0.136,0.068,0.136
		s0.103-0.034,0.068-0.068s-0.034-0.103,0.034-0.171c0.103-0.103-0.034-0.205-0.171-0.103
		C126.619,40.94,126.619,40.94,126.687,40.94z M128.701,46.06c-0.102,0.034-0.17,0.103-0.17,0.137c0,0.102,0.272,0.034,0.307-0.068
		C128.837,46.06,128.803,46.06,128.701,46.06z M129.043,44.797c-0.171-0.205-0.376-0.205-0.274,0c0,0.102,0.034,0.102,0.068,0.034
		c0-0.103,0.068-0.103,0.171,0C129.146,44.934,129.146,44.934,129.043,44.797z M131.842,37.083
		c-0.034-0.103-0.068-0.068-0.068,0.034c0,0.102,0.034,0.17,0.034,0.136C131.842,37.219,131.842,37.117,131.842,37.083z
		 M132.115,53.467c0-0.034-0.034-0.068-0.068-0.068c-0.068,0-0.068,0.034-0.068,0.068c0.034,0.068,0.068,0.103,0.103,0.103
		S132.115,53.536,132.115,53.467z M132.422,56.3c0.034,0.068,0.034,0.137,0,0.171c-0.034,0.034-0.068-0.034-0.068-0.103
		C132.354,56.232,132.388,56.232,132.422,56.3z M132.559,40.155c0-0.136-0.068-0.239-0.103-0.273s-0.068,0.068-0.068,0.205
		C132.422,40.394,132.559,40.462,132.559,40.155z M132.832,57.7c-0.034-0.103-0.068-0.205-0.103-0.205c0,0,0,0.102,0,0.205
		s0.034,0.171,0.068,0.171C132.866,57.871,132.866,57.802,132.832,57.7z M133.412,53.911c-0.034,0-0.103,0.034-0.103,0.068
		c0,0.068,0.034,0.103,0.068,0.103c0,0,0.034-0.034,0.068-0.103C133.48,53.945,133.446,53.911,133.412,53.911z M133.378,50.088
		c0,0.068,0,0.137,0.034,0.137s0.068-0.034,0.068-0.103c0-0.103-0.034-0.171-0.068-0.171
		C133.378,49.917,133.378,49.951,133.378,50.088z M133.651,54.491c-0.103,0.103-0.103,0.103,0.034,0.068
		c0.068-0.034,0.136-0.068,0.102-0.103C133.754,54.423,133.72,54.457,133.651,54.491z M133.583,51.59
		c0,0.068,0.034,0.171,0.103,0.171c0.034,0,0.034-0.034,0.034-0.103C133.686,51.453,133.583,51.385,133.583,51.59z M133.787,54.798
		c-0.067-0.205-0.204,0-0.136,0.239c0.034,0.171,0.068,0.171,0.103,0.068C133.821,55.003,133.821,54.867,133.787,54.798z
		 M133.686,48.586c0,0.068,0.034,0.103,0.068,0.103c0.033,0,0.067-0.034,0.067-0.103c0-0.034-0.034-0.068-0.067-0.068
		C133.72,48.518,133.686,48.552,133.686,48.586z M133.821,52.341c0-0.205-0.102-0.239-0.136-0.034c0,0.068,0.034,0.137,0.068,0.137
		C133.787,52.443,133.821,52.409,133.821,52.341z M134.231,53.126c0,0-0.068-0.034-0.171-0.068s-0.137-0.068-0.068-0.171
		c0.068-0.068,0.103-0.102,0.103-0.034c0,0.068,0.034,0.034,0.068-0.068c0.068-0.068,0.103-0.068,0.103,0.136
		C134.266,53.023,134.231,53.126,134.231,53.126z M134.437,53.74c0,0.034-0.068,0.068-0.137,0.034c-0.103-0.034-0.137,0-0.103,0.034
		c0.034,0.068,0.034,0.103-0.068,0.103c-0.137,0-0.137,0,0-0.171C134.3,53.604,134.437,53.604,134.437,53.74z M134.129,53.194
		c0,0.034,0.034,0.102,0.034,0.17s-0.034,0.103-0.034,0.103c-0.068,0-0.068-0.068-0.068-0.137
		C134.061,53.228,134.061,53.16,134.129,53.194z M134.368,54.662c0,0.136-0.034,0.205-0.068,0.205c0,0-0.034-0.068-0.068-0.205
		c0-0.068,0-0.171,0.034-0.171S134.368,54.594,134.368,54.662z M134.437,55.311c0,0.068,0,0.205,0,0.307
		c-0.034,0.068-0.068,0-0.068-0.171C134.368,55.311,134.402,55.208,134.437,55.311z M134.606,45.992
		c0.137,0.239,0.239,0.239,0.205,0c-0.034-0.41-0.137-0.614-0.205-0.478c-0.034,0.068-0.034,0.17,0,0.205
		c0.068,0.103,0.068,0.137,0,0.137S134.538,45.924,134.606,45.992z M134.812,50.088c0-0.137-0.068-0.205-0.137-0.205
		c-0.034,0-0.034,0.102,0.034,0.205C134.812,50.327,134.914,50.327,134.812,50.088z M134.777,42.613c0,0.102,0.034,0.17,0.034,0.102
		c0.068,0,0.068-0.102,0.034-0.136C134.812,42.476,134.777,42.51,134.777,42.613z M134.88,47.05c0.034,0,0.068-0.102,0.068-0.273
		c0-0.103-0.034-0.239-0.068-0.239s-0.068,0.136-0.068,0.239C134.812,46.948,134.846,47.05,134.88,47.05z M134.982,52.272
		c-0.068,0-0.103-0.034-0.103-0.137c0-0.034,0.034-0.102,0.034-0.102c0.068,0,0.137,0.068,0.137,0.102
		C135.119,52.238,135.051,52.272,134.982,52.272z M134.948,47.289c0.034,0,0.103,0,0.103-0.068c0-0.034-0.034-0.103-0.068-0.103
		c0,0-0.068,0.068-0.068,0.103C134.88,47.289,134.88,47.289,134.948,47.289z M135.051,47.733c0.034,0,0.034-0.068,0-0.171
		c0-0.103-0.068-0.17-0.103-0.17s-0.034,0.068-0.034,0.17C134.948,47.665,134.982,47.733,135.051,47.733z M135.289,49.098
		c-0.034-0.205-0.102-0.375-0.17-0.41c-0.103-0.068-0.103-0.103,0-0.103c0.068,0,0.068-0.068,0.068-0.17
		c0-0.171-0.137-0.239-0.137-0.068c0,0.068-0.034,0.205-0.068,0.341c-0.068,0.137-0.034,0.17,0.034,0.137
		c0.068-0.034,0.103-0.034,0.034,0.068c0,0.068,0,0.171,0.068,0.239s0.068,0.205,0.068,0.239c-0.034,0.034,0,0.068,0.034,0.068
		C135.323,49.439,135.323,49.371,135.289,49.098z M135.051,47.801c-0.068,0-0.068,0.171,0,0.341c0,0.103,0.068,0,0.068-0.136
		C135.119,47.903,135.085,47.801,135.051,47.801z M135.119,52.409c0.068,0.034,0.068,0.068,0.068,0.102c0,0.034,0,0.034-0.068,0.034
		c-0.034,0-0.068-0.068-0.068-0.102S135.085,52.375,135.119,52.409z M135.153,52.955c0.034,0.103,0.034,0.205-0.034,0.239
		c-0.034,0.034-0.068-0.068-0.068-0.171C135.051,52.75,135.085,52.716,135.153,52.955z M135.631,44.592
		c0.103,0.068,0.068,0.103-0.103,0.137c-0.341,0.136-0.409,0.068-0.239-0.068C135.46,44.524,135.528,44.524,135.631,44.592z
		 M135.563,42.579c0.068,0.068,0.171,0.102,0.171,0.136s-0.103,0.034-0.171,0.034c-0.137,0-0.205-0.034-0.205-0.136
		C135.357,42.51,135.426,42.51,135.563,42.579z M135.87,56.266c-0.034-0.034-0.068-0.136-0.068-0.205
		c0-0.103,0.034-0.103,0.103-0.034c0.034,0.068,0.067,0.136,0.034,0.205C135.938,56.3,135.904,56.3,135.87,56.266z M136.006,42.613
		c-0.067,0.17-0.238,0.205-0.17,0.034c0.034-0.068,0.068-0.103,0.103-0.137C136.006,42.476,136.04,42.544,136.006,42.613z
		 M135.938,56.573c0.033,0.034,0.033,0.103,0,0.137c-0.034,0.034-0.034-0.034-0.034-0.103
		C135.904,56.505,135.904,56.471,135.938,56.573z M136.04,52.887c0.034,0.137,0,0.239-0.034,0.239c0,0-0.034-0.034-0.034-0.068
		c-0.033,0-0.033-0.137-0.033-0.239c-0.034-0.103-0.034-0.205,0-0.205C136.006,52.614,136.04,52.75,136.04,52.887z M136.074,56.949
		c0.068,0.068,0.034,0.171,0,0.171c-0.068,0.068-0.103,0-0.103-0.103C135.972,56.813,136.006,56.778,136.074,56.949z
		 M136.245,44.319c-0.137,0.205-0.171,0.205-0.239,0.034c-0.034-0.034-0.034-0.068,0-0.034c0.068,0.034,0.137,0.034,0.239-0.034
		C136.348,44.183,136.348,44.183,136.245,44.319z M136.484,42.579c0,0.17-0.239,0.205-0.308,0.034c0-0.068,0.034-0.137,0.103-0.137
		C136.484,42.408,136.484,42.408,136.484,42.579z M136.45,44.456c0,0.068-0.068,0.102-0.068,0.102c-0.034,0-0.068-0.034-0.068-0.102
		c0-0.034,0.068-0.068,0.103-0.068S136.484,44.422,136.45,44.456z M136.553,43.534c0-0.068,0.068-0.103,0.068-0.103
		s0.034,0.034,0.034,0.103s-0.034,0.068-0.068,0.068C136.519,43.603,136.519,43.603,136.553,43.534z M136.621,42.544
		c0-0.068,0-0.103,0.067-0.068c0,0,0.068,0.068,0.068,0.103c0,0.068-0.068,0.068-0.068,0.068
		C136.621,42.647,136.621,42.613,136.621,42.544z M136.894,44.422c-0.068,0.034-0.137,0.102-0.137,0.034
		c-0.034,0-0.034-0.103-0.068-0.171c0-0.137,0-0.137,0.103-0.068C136.859,44.285,136.894,44.354,136.894,44.422z M136.825,43.397
		c0.068,0.034,0.068,0.103,0.068,0.137c-0.103,0.137-0.137,0.103-0.137-0.068C136.757,43.397,136.791,43.364,136.825,43.397z
		 M137.508,43.773c-0.068,0-0.204,0-0.307,0.068c-0.103,0-0.205,0-0.205-0.068c-0.068-0.102,0-0.136,0.205-0.102
		c0.103,0,0.238-0.034,0.238-0.068c0.034-0.068,0.068-0.034,0.103,0.034S137.542,43.773,137.508,43.773z M136.996,43.397
		c0-0.068,0.068-0.136,0.103-0.136s0.103,0.034,0.103,0.103c0,0.034-0.068,0.102-0.103,0.102
		C137.064,43.534,136.996,43.466,136.996,43.397z M137.372,44.114c0.033,0,0.033,0.068,0.033,0.103
		c-0.102,0.137-0.102,0.103-0.102-0.034C137.304,44.114,137.338,44.081,137.372,44.114z"/>
	<path fill="#4C4C4C" d="M157.439,58.109c-0.034,0.103-0.887-0.751-0.887-0.921c0-0.034-0.239-0.341-0.547-0.649
		c-0.136-0.136-0.272-0.273-0.307-0.341c0.103,0.137,0.171,0.273,0.103,0.273c-0.034,0,0,0.034,0.068,0.102
		c0.136,0.103,0.887,0.99,1.126,1.332c0.068,0.136,0.137,0.307,0.137,0.443c0,0.171,0,0.205-0.137,0.068
		c-0.034-0.034-0.171-0.068-0.239-0.034s-0.136,0-0.17-0.068c-0.034-0.034-0.034-0.034-0.034,0.034c0,0.171-0.171,0.239-0.171,0.103
		c0-0.103-0.376-0.512-1.024-1.297c-0.238-0.239-0.409-0.512-0.409-0.512c-0.034-0.068-0.068-0.103-0.137-0.103
		c-0.137,0,0.034,0.239,0.376,0.615c0.17,0.205,0.307,0.41,0.341,0.512c0,0.103,0.068,0.205,0.137,0.171
		c0.034,0,0.068,0.068,0.034,0.205c-0.034,0.137,0,0.137,0.103,0.103s0.103-0.034,0.103,0.034c-0.068,0.103,0.341,0.614,0.409,0.546
		c0.034-0.034,0.034,0,0,0.068c0,0.068-0.171,0.205-0.308,0.273c-0.136,0.103-0.238,0.205-0.238,0.239s-0.068,0.068-0.137,0.068
		s-0.137,0.068-0.137,0.102c0,0.137-0.717,0.683-0.819,0.615c0-0.034-0.103-0.034-0.204-0.068c-0.068,0-0.41-0.341-0.751-0.785
		c-0.342-0.41-1.161-1.331-1.81-2.082c-0.648-0.717-1.331-1.502-1.57-1.775c-0.205-0.239-0.648-0.785-0.955-1.161
		c-0.581-0.648-1.195-1.468-2.424-3.141c-1.229-1.604-1.399-1.911-1.604-2.219c-0.308-0.478-0.375-0.512-0.683-0.341
		c-0.205,0.205-0.205,0.273-0.376,1.161c0,0.171-0.067,0.41-0.067,0.546c-0.068,0.239-0.41,2.389-0.41,2.492
		c0,0.034,0,0.034-0.034,0.034c-0.103-0.103-0.068-0.888,0.068-1.741c0.068-0.41,0.137-0.785,0.103-0.819s-0.034-0.103,0.034-0.103
		c0.034,0,0.068-0.17,0.068-0.41c0.034-0.273,0-0.444-0.068-0.444c-0.034,0-0.068,0.103-0.068,0.171
		c0,0.103-0.068,0.171-0.103,0.171s-0.034,0.068,0,0.17s0.068,0.239,0.034,0.273c-0.068,0.137-0.171,0.888-0.239,1.366
		c0,0.273-0.067,0.478-0.136,0.512s-0.068,0.103,0,0.137c0.136,0.068,0,0.41-0.137,0.341c-0.103,0-0.171,0-0.239,0.068
		c0,0.068-0.034,0.034,0-0.068c0.034-0.171,0-0.205-0.068-0.205c-0.068,0.034-0.103,0.137-0.068,0.239
		c0,0.102-0.034,0.17-0.068,0.17c-0.102,0-0.102-0.102-0.067-0.41c0.033-0.307,0.033-0.409-0.034-0.375
		c-0.068,0,0-0.102,0.067-0.239c0.137-0.205,0.171-0.341,0.103-0.512c-0.068-0.307-0.034-0.887,0.137-1.126
		c0.137-0.308,0.137-0.581-0.068-0.581c-0.068,0-0.137,0.034-0.137,0.068c0,0.068-0.067,0.103-0.17,0.103
		c-0.068,0-0.103,0.034-0.068,0.102c0,0.068,0,0.171-0.068,0.239s-0.068,0.102,0,0.068c0.137-0.103,0.272,0.068,0.137,0.239
		c-0.137,0.137-0.239,0.512-0.137,0.444c0.068-0.068,0.137-0.034,0.137,0c0,0.068-0.068,0.102-0.103,0.102s-0.068,0.103-0.137,0.171
		c0,0.068-0.068,0.17-0.103,0.239c0,0.103,0,0.103,0.068,0.068c0.103-0.068,0.103-0.034,0,0.137c-0.034,0.102-0.137,0.17-0.239,0.17
		c-0.102,0-0.102,0,0,0.137c0.137,0.068,0.137,0.17,0.068,0.512c-0.068,0.239-0.137,0.444-0.17,0.478
		c-0.068,0.068-0.103,0.068-0.068-0.034c0.034-0.068,0.034-0.17,0-0.205c-0.068,0-0.103,0.034-0.103,0.17
		c0,0.137,0.034,0.205,0.103,0.205s0.034,0.068-0.068,0.136c-0.103,0.103-0.137,0.137-0.068,0.137
		c0.205-0.034,0.272,0.034,0.238,0.171c-0.067,0.205-0.17,0.239-0.238,0c-0.034-0.103-0.034-0.068-0.068,0.068
		c0,0.103,0.068,0.171,0.137,0.171c0.137,0,0.137,0.068,0.068,0.205c0,0.103-0.068,0.308-0.068,0.444
		c0,0.171-0.034,0.307-0.034,0.341s-0.103,0.034-0.171,0.034c-0.137,0.034-0.171,0-0.137-0.205c0.034-0.103,0.034-0.239,0.103-0.273
		c0.137-0.102,0.171-0.239,0.068-0.546c-0.068-0.273-0.205-0.307-0.41-0.103c-0.17,0.171-0.17,0.307,0.034,0.239
		c0.171-0.034,0.171,0,0.137,0.205c-0.034,0.171-0.068,0.41-0.068,0.58c0,0.239-0.034,0.273-0.272,0.273
		c-0.171,0-0.376,0.034-0.547,0.068c-0.17,0.034-0.409,0-0.648-0.102c-0.409-0.137-0.409-0.137-0.375-0.478
		c0.171-1.536,0.239-1.946,0.272-2.355c0.034-0.205,0.103-0.649,0.137-0.956c0.205-1.502,0.342-2.696,0.273-2.833
		c-0.034-0.103-0.068-0.205-0.137-0.205c-0.171,0-0.819-0.683-0.819-0.887c0-0.171,0.103-0.239,0.614-0.375
		c0.41-0.171,0.615-0.273,0.649-0.41c0.067-0.068,0.238-1.024,0.375-2.082c0.205-1.092,0.512-2.901,0.751-3.994l0.409-2.014
		l-0.272-0.205c-0.103-0.103-0.239-0.205-0.239-0.239c0-0.102-0.443-0.546-0.648-0.614c-0.068-0.034-0.546-0.41-0.99-0.853
		c-0.819-0.785-0.819-0.785-0.751-1.092c0.273-0.683,2.697-2.014,4.745-2.56c1.707-0.478,4.369-0.717,5.529-0.546
		c0.785,0.137,1.741,0.546,2.424,1.092c0.751,0.58,2.97,2.901,3.345,3.482c0.444,0.648,0.615,1.229,0.648,1.945
		c0.103,2.048-1.331,4.062-4.437,6.212c-0.615,0.444-1.98,1.331-2.39,1.536c-0.854,0.444-0.819,0.375-0.239,1.161
		c0.273,0.375,0.751,1.024,1.059,1.399c0.272,0.41,0.888,1.126,1.297,1.638c0.409,0.512,1.365,1.639,2.048,2.492
		c1.434,1.741,1.741,2.083,2.629,3.175C156.962,57.29,157.508,58.007,157.439,58.109z M141.329,52.238
		c-0.034,0-0.068,0.068-0.068,0.103s0.034,0.068,0.034,0.068c0.034,0,0.068-0.034,0.102-0.068
		C141.396,52.307,141.396,52.238,141.329,52.238z M141.772,52.409c-0.034,0-0.103,0.034-0.103,0.102c0,0.034,0,0.171-0.034,0.341
		c-0.034,0.273,0.068,0.375,0.171,0.137C141.875,52.75,141.841,52.409,141.772,52.409z M141.772,37.219
		c0-0.034-0.034-0.068-0.103-0.068c-0.034,0-0.034,0.034,0,0.068c0,0.068,0.034,0.103,0.068,0.103
		C141.738,37.322,141.772,37.288,141.772,37.219z M141.943,52c0-0.068-0.034-0.103-0.103-0.103c-0.034,0-0.103,0.034-0.103,0.103
		c-0.034,0.068,0,0.068,0.068,0.068S141.943,52.068,141.943,52z M143.274,53.058c-0.103,1.195-0.171,1.502-0.239,1.502
		c-0.103,0-0.137-0.103-0.103-0.41c0.034-0.205,0.068-0.512,0.103-0.648c0-0.239,0-0.307-0.137-0.341
		c-0.17-0.034-0.17-0.034-0.067,0.17c0.067,0.171,0.067,0.171-0.034,0.034c-0.103-0.034-0.171-0.17-0.171-0.239
		c0-0.103,0.238-0.205,0.307-0.068c0.034,0,0.103,0.034,0.171,0.034c0.034,0,0.034-0.034,0-0.068
		c-0.068-0.068-0.103-0.137-0.034-0.273C143.24,52.443,143.309,52.58,143.274,53.058z M142.864,52.853
		c-0.033,0-0.067-0.034-0.067-0.102c0-0.034,0.067-0.068,0.102-0.068s0.068,0.034,0.034,0.068
		C142.898,52.819,142.864,52.853,142.864,52.853z M143.24,51.043c-0.068,0-0.103,0.034-0.103,0.068c0,0.068,0.034,0.103,0.034,0.103
		c0.034,0,0.068-0.034,0.103-0.103C143.309,51.078,143.274,51.043,143.24,51.043z M143.377,50.225
		c-0.068,0.102-0.137,0.273-0.137,0.341c0,0.239,0.137,0.068,0.205-0.273C143.479,50.088,143.479,50.088,143.377,50.225z
		 M143.479,49.474c-0.068-0.171-0.068-0.137-0.068,0.068c0,0.205,0,0.239,0.068,0.17C143.548,49.61,143.581,49.542,143.479,49.474z
		 M143.581,54.457c0,0.068-0.033,0.103-0.102,0.103c-0.034,0-0.068-0.034-0.068-0.068s0.034-0.103,0.068-0.137
		C143.548,54.32,143.581,54.389,143.581,54.457z M143.684,53.672c0,0.103-0.068,0.205-0.103,0.205c-0.033,0-0.102-0.103-0.102-0.205
		c0-0.102,0.068-0.239,0.102-0.239C143.615,53.433,143.684,53.57,143.684,53.672z M143.991,42.305
		c0.068-0.068,0.137-0.102,0.068-0.136c0-0.034-0.103,0-0.205,0.068C143.684,42.408,143.786,42.442,143.991,42.305z M144.094,43.364
		c0,0-0.034-0.034-0.103-0.103c-0.034,0-0.068,0-0.068,0.068c0,0.034,0.034,0.068,0.068,0.068
		C144.06,43.397,144.094,43.397,144.094,43.364z M144.162,48.893c-0.034-0.102-0.068-0.068-0.068,0.034
		c0,0.103,0.034,0.171,0.034,0.103C144.162,49.03,144.162,48.927,144.162,48.893z M144.265,41.93c-0.034,0-0.103,0.068-0.103,0.171
		c0,0.171,0.068,0.137,0.136-0.068C144.298,41.93,144.298,41.862,144.265,41.93z M144.879,48.176c0-0.068-0.205-0.102-0.239-0.068
		c-0.034,0.034,0.034,0.068,0.103,0.068S144.879,48.176,144.879,48.176z M152.935,35.991c0-0.648-0.137-0.751-1.093-0.922
		c-0.888-0.136-2.116-0.068-3.516,0.171c-1.229,0.205-1.399,0.273-1.399,0.58c0,0.239-0.41,2.458-0.785,4.096
		c-0.342,1.707-0.751,3.687-0.751,3.721c0,0.103,0.171,0,1.331-0.751C151.159,40.121,152.935,38.141,152.935,35.991z
		 M149.385,44.319c-0.034,0.103,0,0.103,0.067,0.103c0.034,0,0.068-0.068,0.103-0.137C149.589,44.114,149.452,44.148,149.385,44.319
		z M153.378,54.867c-0.068-0.103-0.205-0.273-0.342-0.375l-0.238-0.239l0.205,0.239c0.102,0.103,0.17,0.273,0.17,0.341
		c0,0.103,0.068,0.171,0.137,0.171C153.446,55.071,153.48,55.037,153.378,54.867z M154.538,56.164
		c-0.067-0.102-0.341-0.409-0.58-0.648c-0.375-0.41-0.409-0.444-0.238-0.17c0.067,0.17,0.238,0.375,0.341,0.478
		c0.068,0.068,0.171,0.171,0.171,0.205c0,0.136,0.341,0.444,0.409,0.375C154.641,56.403,154.606,56.266,154.538,56.164z
		 M154.675,54.935c-0.103-0.103-0.238-0.205-0.238-0.205c-0.068,0,0.034,0.103,0.136,0.205c0.103,0.136,0.239,0.239,0.273,0.239
		S154.812,55.071,154.675,54.935z M155.255,55.652c-0.067-0.137-0.17-0.205-0.204-0.239c-0.068,0,0,0.103,0.137,0.239
		C155.426,55.925,155.46,55.925,155.255,55.652z M156.006,58.246c0.068,0,0.103,0.034,0.103,0.102c0,0.068-0.034,0.068-0.034,0.068
		c-0.034,0-0.068,0-0.103-0.068C155.938,58.28,155.938,58.246,156.006,58.246z M156.279,58.007c0,0.068,0.103,0.171,0.171,0.171
		c0.034,0,0.068-0.068,0.034-0.137C156.45,57.905,156.279,57.871,156.279,58.007z"/>
	<path fill="#4C4C4C" d="M171.91,34.045c-0.068,0-0.239,0-0.444,0.034c-0.512,0.034-1.058,0.103-1.16,0.171
		c-0.205,0.102,0.034,0.17,0.478,0.136c0.273-0.034,0.478,0,0.478,0.034c0,0.068-0.17,0.103-0.375,0.137
		c-0.443,0-2.936,0.307-3.004,0.41c-0.034,0.034-0.171,0.956-0.307,2.048c-0.171,1.126-0.444,2.901-0.581,3.959
		c-0.17,1.058-0.341,2.321-0.409,2.833c-0.068,0.512-0.376,2.628-0.717,4.676c-0.273,2.083-0.58,4.028-0.614,4.335
		c-0.068,0.307-0.205,1.194-0.308,2.014c-0.272,1.604-0.409,2.287-0.648,2.56c-0.103,0.239-0.409,0.341-0.308,0.137
		c0.068-0.103,0.068-0.103-0.033,0c-0.171,0.136-0.342,0.136-0.41-0.068c-0.034-0.103-0.034-0.103-0.103,0
		c-0.068,0.068-0.068,0.068-0.137-0.034c-0.067-0.103-0.136-0.103-0.375-0.068c-0.308,0.103-1.911-0.103-2.014-0.273
		c-0.205-0.307-0.239-0.819-0.137-1.57c0.137-1.161,0.751-5.018,1.365-8.841c0.205-1.16,0.375-2.252,0.409-2.389
		c0.068-0.785,1.195-7.612,1.366-8.567c0.067-0.239,0.067-0.239-0.205-0.205c-0.444,0.103-3.413,0.546-4.949,0.785
		c-0.888,0.137-1.639,0.273-1.741,0.273c-0.239,0.068-0.273-0.068-0.034-0.239c0.103-0.068,0.103-0.068-0.034-0.034
		c-0.171,0.034-0.205,0.034-0.205-0.103c0-0.102,0.034-0.205,0.103-0.273c0.103-0.068,0.103-0.103-0.034-0.034
		c-0.136,0.034-0.17,0-0.17-0.17c0-0.137-0.068-0.342-0.137-0.444c-0.171-0.273-0.648-1.468-0.648-1.673
		c0-0.205,0.409-0.443,0.887-0.58c0.888-0.205,5.052-0.921,6.35-1.092c0.17,0,0.887-0.137,1.638-0.205
		c0.717-0.103,1.536-0.171,1.775-0.239c0.273,0,0.751-0.068,1.126-0.136c0.717-0.068,2.492-0.205,3.789-0.308
		c0.648,0,0.854,0,0.854,0.068c0,0.103,0.034,0.103,0.103,0c0.034-0.068,0.171-0.068,0.239-0.068c0.136,0,0.375,0.308,0.375,0.478
		c-0.034,0.068,0,0.103,0.034,0.103s0.068,0.239,0.068,0.546c0.034,0.478,0,0.581-0.103,0.444c-0.137-0.103-0.819-0.103-0.888,0.034
		c0,0.034,0,0.103,0.068,0.103s0.103,0.068,0.103,0.102c0,0.103-0.103,0.137-0.341,0.137c-0.205,0-0.376,0.034-0.41,0.068
		c-0.034,0-0.171,0-0.239-0.068c-0.102,0-0.238,0-0.375,0.068c-0.103,0.103-0.239,0.103-0.342,0.103
		c-0.034-0.034-0.17-0.034-0.238,0.034c-0.068,0.034-0.103,0.068-0.103,0.034s-0.137-0.034-0.239,0.034
		c-0.137,0.034-0.204,0.034-0.204,0c0-0.068-0.068-0.068-0.137,0c-0.103,0.034-0.239,0.034-0.342,0
		c-0.238-0.102-0.272-0.102-0.341,0.034c0,0.103,0,0.137,0.103,0.103c0.067-0.034,0.102-0.034,0.102,0.034
		c0,0.103-0.136,0.103-0.375,0c-0.103-0.034-0.205,0-0.273,0.068c-0.068,0.068-0.137,0.068-0.204,0.068
		c-0.034-0.034-0.103-0.034-0.171,0c-0.205,0.103,0.103,0.171,0.478,0.103c0.273,0,0.41,0,0.41,0.068s0,0.034,0.034-0.034
		c0.067-0.068,0.204-0.103,0.443-0.034c0.205,0,0.341,0,0.409-0.068c0-0.034,0.103-0.102,0.171-0.102
		c0.137,0,0.137,0.034,0.034,0.102c-0.103,0.068-0.103,0.068,0.103,0.068c0.137,0,0.239,0,0.239-0.068
		c0-0.034,0.102-0.034,0.238-0.034s0.273,0.034,0.308,0.034s0.034,0.068-0.034,0.137c-0.068,0.103-0.068,0.137,0.034,0.137
		c0.068,0,0.137-0.068,0.137-0.137c0-0.103,0.102-0.137,0.272-0.137c0.205,0,0.239,0.034,0.205,0.137
		c-0.034,0.068,0.034,0.137,0.137,0.137C171.979,33.875,172.08,34.011,171.91,34.045z M164.64,48.416
		c-0.103-0.137-0.137-0.068-0.137,0.273c0,0.205,0,0.341,0.034,0.205c0.034-0.068,0.068-0.17,0.103-0.239
		S164.674,48.518,164.64,48.416z M165.391,43.125c-0.034-0.068-0.068-0.068-0.068,0.034s0.034,0.137,0.068,0.103
		C165.425,43.261,165.425,43.159,165.391,43.125z M165.492,42.442c-0.067-0.103-0.067-0.068-0.067,0.034
		c0,0.068,0,0.137,0.033,0.103C165.492,42.544,165.492,42.476,165.492,42.442z M168.735,34.489c-0.034,0-0.103-0.034-0.171,0
		s-0.034,0.068,0.068,0.068C168.701,34.557,168.77,34.523,168.735,34.489z M169.043,34.455c0-0.034-0.068-0.103-0.103-0.103
		s-0.103,0.068-0.103,0.103c0,0.068,0.068,0.103,0.103,0.103S169.043,34.523,169.043,34.455z M169.213,34.352
		c-0.034,0-0.103,0.068-0.103,0.103c0,0.068,0.034,0.103,0.068,0.103s0.103-0.034,0.137-0.103
		C169.35,34.42,169.315,34.352,169.213,34.352z M169.998,34.284c-0.238-0.103-0.512-0.034-0.512,0.102
		c-0.034,0.137,0,0.137,0.308,0.034C170.066,34.352,170.135,34.318,169.998,34.284z M170.374,32.884
		c0.034,0.068,0.068,0.103,0.103,0.034c0.034-0.034,0.272-0.068,0.512-0.102c0.307-0.034,0.546,0,0.614,0
		c0.137,0.102,0.342-0.034,0.342-0.205c0-0.068-0.239-0.068-1.264,0.103C170.408,32.748,170.34,32.816,170.374,32.884z
		 M170.578,33.875c0-0.068-0.034-0.103-0.034-0.103c-0.033,0-0.067,0.034-0.102,0.103c-0.034,0.034-0.034,0.068,0.034,0.068
		C170.544,33.942,170.578,33.909,170.578,33.875z M171.5,33.806c-0.068,0-0.137-0.034-0.205,0c-0.034,0.034,0,0.068,0.068,0.068
		C171.466,33.875,171.5,33.84,171.5,33.806z M171.671,34.352c0,0.068-0.068,0.103-0.171,0.103s-0.137-0.034-0.137-0.103
		c0.034-0.034,0.137-0.068,0.171-0.068C171.603,34.284,171.671,34.318,171.671,34.352z M172.08,33.669c-0.17,0-0.341,0-0.307-0.034
		c0.103-0.068,0.683-0.136,0.683-0.034C172.456,33.635,172.285,33.669,172.08,33.669z M173.07,33.875
		c0.103,0.068,0.103,0.068-0.443,0.102c-0.273,0.034-0.444-0.034-0.41-0.068c0.034-0.034,0.103-0.103,0.205-0.103
		c0.137-0.034,0.205-0.103,0.205-0.171s0.068-0.136,0.204-0.136c0.171,0,0.239,0.068,0.205,0.136S173.036,33.806,173.07,33.875z
		 M172.695,32.748c0.067,0.034,0.102,0.068,0.033,0.068c-0.033,0-0.136,0.034-0.238,0.068c-0.068,0.034-0.137,0-0.137-0.034
		C172.354,32.68,172.524,32.646,172.695,32.748z M173.65,33.909c0,0.034-0.034,0.034-0.068,0.034c-0.068,0-0.103-0.068-0.103-0.068
		c0-0.068,0.034-0.068,0.103-0.068C173.616,33.875,173.65,33.875,173.65,33.909z"/>
</g>
</svg>
