<?xml version="1.0" encoding="utf-8"?>
<!-- Generator: Adobe Illustrator 15.0.0, SVG Export Plug-In . SVG Version: 6.00 Build 0)  -->
<!DOCTYPE svg PUBLIC "-//W3C//DTD SVG 1.1//EN" "http://www.w3.org/Graphics/SVG/1.1/DTD/svg11.dtd">
<svg version="1.1" id="Layer_1" xmlns="http://www.w3.org/2000/svg" xmlns:xlink="http://www.w3.org/1999/xlink" x="0px" y="0px"
	 width="256px" height="128px" viewBox="0 0 256 128" enable-background="new 0 0 256 128" xml:space="preserve">
<g>
	<path fill="#FFFFFF" d="M253,72.571C253,78.883,245.684,84,236.659,84H23.341C14.316,84,7,78.883,7,72.571V20.429
		C7,14.117,14.316,9,23.341,9h213.318C245.684,9,253,14.117,253,20.429V72.571z"/>
	<g>
		<g opacity="0.8">
			<path fill="#1F1F1F" d="M247.371,72.041c1.219-8.782,1.905-28.09,2.418-48.45c2.39-9.9-8.068-13.421-17.277-12.802
				c-9.522-0.214-18.122-0.431-24.616-0.693c-10.007-0.23-17.643-0.462-23.36-0.743c-4.818-0.239,6.34,0.053,23.36,0.743
				l27.169,0.541c-13.166-1.047-25.82-2.082-34.886-2.932l-20.224-0.233C149.857,7.085,120.74,7.022,90.96,6.376
				c-10.8-0.257-34.362-0.32-44.828-0.837l131.216,0.774l-3.534-0.184l-68.983-1.116c-3.904-0.016-7.849-0.068-11.912-0.194
				l11.912,0.194c10.218,0.035,20.145-0.215,31.276-0.265c6.87,0.065,14.717,0.456,21.6,0.517
				c5.612,0.089,10.774,0.546,16.107,0.864l10.298,0.168c1.006-0.045,2.078-0.083,3.177-0.097c-0.037-0.008-0.106-0.019-0.133-0.029
				C178.632,4.098,91.926,1.187,77.54,1.578C66.077,1.839,55.622,3.526,42.863,3.722c-4.263,0.065-7.862-0.389-11.131,0
				c-0.324,0.258-1.959,0.454-3.601,0.651c-1.061,0.017-2.124,0.016-3.182,0.003l-1.597-0.026c-0.612-0.008-1.224,0.002-1.835,0.026
				c-2.443,0.113-4.87,0.529-7.168,1.314C12.056,6.477,9.88,7.629,8.052,9.227c-1.909,1.649-3.375,3.815-3.992,5.969
				c-0.248,0.746-0.56,1.654-0.794,2.721c-0.248,1.001-0.341,2.487-0.515,3.254c-0.337,1.856-0.81,3.913-1.268,5.857
				c-0.916,3.888-1.776,7.326-1.386,7.815c2.856,3.587,0.78,0.98,0.519,11.78c-0.062,1.311,1.105,5.56,0.978,8.18
				C1.236,59.215,1.3,62.077,1.495,65.104l0.353,4.877l0.093,1.417c0.032,0.731,0.07,1.488,0.197,2.267
				c0.242,1.555,0.785,3.199,1.721,4.818c1.413,2.368,3.408,4.15,5.03,5.269c1.684,1.173,3.295,1.961,4.814,2.572
				c3.043,1.201,5.73,1.72,8.361,1.921c1.412,0.088,2.395,0.078,3.521,0.088c1.111,0.001,2.253-0.017,3.467-0.065
				c2.428-0.1,5.146-0.327,8.497-0.78c1.628-0.197,22.566-1.365,22.566-1.365c16.358,0.257,26.497-1.172,39.262,0.838
				c14.718-1.754,34.356,0.322,50.057-0.006c15.703-0.326,22.255,1.103,36,2.334c3.924,0.194,6.869,0.063,9.158,0.451
				c2.293,0.392,7.849-0.714,11.773-0.52l-0.977,0.779l5.238,0.256c1.312,0.067,0.979,0.327,0.655,0.587
				c-0.655,0.52-1.304,1.04,0.986,1.428c5.472,0.441,11.064,0.782,16.793,1.024l8.73-0.643c3.868-0.356,7.682-1.371,11.257-3.25
				c0.276-0.518,0.613-1.057,1.451-1.85c1.974-1.32,3.84-2.959,5.405-5.046c0.4-1.707-0.618-1.814-0.472-2.897
				c-0.461-0.313-0.556-1.117-0.647-2.094c-0.089-0.979-0.197-2.139-0.504-3.133c-0.621-2.023-1.858-3.115-2.814-2.34
				c-0.272,0.262-0.504,2.272-2.196,3.988c-1.617,1.758-4.428,2.93-6.265,2.981c-0.857-0.029,0.688-1.331,0.897-2.354
				c-1.782,0.869-2.994,0.864-3.388,0.66c-0.42-0.214-0.125-0.664,0.52-1.212c-0.866,0.182-1.771,0.26-1.771,0.258
				c0.195-0.288,0.667-1.182,0.657-1.18c-0.557,0.058-1.129,0.082-1.709,0.073c-0.29-0.003-0.581-0.02-0.874-0.04l-1.016-0.092
				l-5.459-0.44c-3.667-0.298-7.38-0.593-11.083-0.828c-7.403-0.469-14.766-0.695-21.635-0.208
				c-2.945,0.128-7.849,0.714-11.118,1.104c-1.632,0.194-5.23-0.26-6.544-0.325c-2.291,0.714-1.96,1.557-2.939,2.336
				c-10.144-0.776-32.069-2.137-31.406,0.654c-8.177-0.129-9.815,1.168-18.32,1.299c-11.27,0.221-25.563,0.381-39.656,0.488
				c-7.706,0.186-15.118-0.049-22.596-0.049L57.481,79H37.134l-9.76,0.123l-2.404,0.072l-2.237,0.011
				c-1.305-0.066-2.584-0.236-3.8-0.56c-1.214-0.326-2.365-0.768-3.385-1.336c-1.002-0.543-1.955-1.295-2.526-1.931
				c-0.602-0.657-1.069-1.436-1.301-2.285c-0.256-0.922-0.145-1.449-0.142-3.264l0.214-18.188l0.127-18.125l0.006-9.14l-0.015-4.357
				c-0.019-0.824,0.204-1.65,0.613-2.374c0.203-0.364,0.45-0.703,0.728-1.018c0.261-0.296,0.603-0.623,1.029-0.96
				c0.829-0.652,1.838-1.224,2.944-1.679c1.107-0.456,2.314-0.789,3.568-1.003c1.307-0.217,2.398-0.263,4.155-0.286
				c6.461-0.144,13.077-0.342,19.899-0.607c55.02-2.139,112.828-1.601,160.271-0.449l17.279,0.456l8.227,0.242l4.002,0.123
				l1.972,0.063c0.579,0.023,1.079,0.059,1.609,0.122c2.087,0.244,4.047,0.841,5.68,1.705c0.808,0.439,1.547,0.927,2.143,1.465
				c0.633,0.558,0.95,0.979,1.301,1.532c0.314,0.538,0.528,1.115,0.619,1.704c0.037,0.295,0.058,0.588,0.038,0.879l-0.028,0.49
				l-0.03,0.843l-0.239,6.53c-0.623,16.893-1.142,29.551-1.298,36.326L247.371,72.041z"/>
		</g>
	</g>
</g>
</svg>
