<?xml version="1.0" encoding="utf-8"?>
<!-- Generator: Adobe Illustrator 15.0.0, SVG Export Plug-In . SVG Version: 6.00 Build 0)  -->
<!DOCTYPE svg PUBLIC "-//W3C//DTD SVG 1.1//EN" "http://www.w3.org/Graphics/SVG/1.1/DTD/svg11.dtd">
<svg version="1.1" id="Layer_1" xmlns="http://www.w3.org/2000/svg" xmlns:xlink="http://www.w3.org/1999/xlink" x="0px" y="0px"
	 width="2000px" height="2000px" viewBox="0 0 2000 2000" enable-background="new 0 0 2000 2000" xml:space="preserve">
<g>
	<path fill="#FFFFFF" d="M1392.876,1338.836c71.24,0,402.726,35.235,402.726,35.235s57.489-266.986-14.508-266.986
		c-71.996,0-156.486,93.001-156.486,93.001s-206.989,77.995-232.488,14.999"/>
	<g>
		<g opacity="0.8">
			<path fill="#212121" d="M1407.806,1208.735c-0.129,2.03,0.275,4.523,2.524,7.362c2.208,2.83,6.547,5.849,12.563,8.047
				c5.99,2.232,13.45,3.702,21.531,4.438c8.094,0.743,16.829,0.787,25.731,0.35c17.83-0.88,36.3-3.646,53.045-6.744
				c16.761-3.106,31.847-6.56,43.289-9.053c17.491-4.359,30.783-8.012,40.821-10.539c4.227-1.082,1.519-0.16-5.988,1.945
				c-7.508,2.094-19.831,5.324-34.833,8.594c-13.3,3.292-29.045,7.029-47.651,10.481c23.692-1.929,46.587-5.239,63.046-7.64
				c11.602-3.372,23.276-6.948,35.098-10.809l4.535-1.521l2.314-0.796l1.156-0.402l0.578-0.203c0.19-0.071,0.401-0.113,0.529-0.277
				c1.188-1.245,2.393-2.479,3.608-3.706l3.501-3.47c2.271-2.22,4.565-4.412,6.878-6.577c4.626-4.331,9.324-8.559,14.093-12.682
				c9.537-8.244,19.352-16.079,29.514-23.369c10.163-7.282,20.68-14.027,31.636-19.898c10.948-5.854,22.362-10.857,34.164-14.23
				c4.531-1.272,10.424-2.781,17.017-3.737c3.295-0.479,6.76-0.819,10.287-0.931c0.896-0.031,1.75-0.039,2.597-0.044l1.429,0.014
				c0.397,0.004,0.76,0.021,1.136,0.045c1.492,0.093,2.926,0.35,4.28,0.764c2.708,0.824,5.11,2.302,7.183,4.318
				c2.077,2.004,3.809,4.505,5.206,7.124c2.797,5.274,4.302,10.867,5.113,15.159c-1.161-4.328-2.6-8.506-4.438-12.262
				c-1.83-3.75-4.077-7.069-6.699-9.438c-2.627-2.377-5.547-3.802-8.955-4.288c-0.83-0.124-1.775-0.19-2.59-0.197l-1.791,0.005
				l-1.603,0.037c-2.225,0.075-4.458,0.241-6.694,0.491c-8.948,1.003-17.898,3.33-26.633,6.479
				c-8.742,3.154-17.284,7.128-25.599,11.612c-16.634,8.998-32.371,19.972-47.348,31.904c-7.486,5.979-14.785,12.218-21.889,18.675
				c-3.551,3.229-7.054,6.514-10.498,9.851c-1.722,1.67-3.429,3.352-5.115,5.048l-2.935,3.005l-2.973,3.135
				c-0.147,0.155-0.361,0.212-0.564,0.286l-0.607,0.221l-1.217,0.438l-2.434,0.87l2.515-0.743l1.263-0.371l0.632-0.186
				c0.211-0.062,0.434-0.107,0.591-0.248l1.777-1.633c1.09-1.117,2.188-2.23,3.303-3.333l2.87-2.787
				c1.85-1.772,3.719-3.529,5.604-5.271c3.77-3.481,7.603-6.898,11.485-10.252c7.771-6.702,15.749-13.146,23.936-19.262
				c16.365-12.2,33.587-23.225,51.67-31.583c6.074-2.946,12.376-5.516,18.984-7.447c-6.401,2.05-12.742,4.579-18.984,7.447
				c-7.945,3.88-15.5,8.413-22.992,13.438c-7.493,5.03-14.936,10.551-22.68,16.58c-9.736,7.192-21.127,15.314-30.254,23.478
				c-3.762,3.277-7.514,6.281-11.237,9.243l-5.554,4.439l-1.376,1.121l-0.707,0.587l-0.825,0.716
				c-1.102,0.955-2.178,1.919-3.242,2.885l-1.699,1.751c-0.146,0.145-0.35,0.203-0.548,0.27l-0.591,0.205l-1.182,0.407l-2.359,0.808
				l-4.599,1.531l-7.981,2.54c-1.687,0.718-3.505,1.455-5.394,2.133c0.072-0.002,0.206-0.012,0.262,0.003
				c1.58,0.086,4.379-0.214,8.174-0.871c1.898-0.329,4.044-0.747,6.414-1.255c2.901-0.723,6.315-1.542,9.864-2.668l4.548-4.132
				l1.215-1.085c0.404-0.356,0.858-0.767,1.127-0.98l1.905-1.581c2.585-2.136,5.335-4.381,8.225-6.698
				c5.777-4.637,12.112-9.566,18.809-14.534c13.386-9.939,28.273-19.993,42.861-28.233c14.568-8.288,28.827-14.61,40.339-18.271
				c11.539-3.753,20.151-4.878,24.281-5.55l5.85-0.869c0.086-0.019,0.236-0.034,0.406-0.049l0.477-0.047l0.478-0.047l0.238-0.024
				l0.119-0.012l0.06-0.093l0.029-0.088h0.015c0.176,0-0.222,0.085-0.18,0.084l0.619-0.119l1.067-0.252
				c0.653-0.152,1.252-0.268,2.037-0.208c0.775,0.066,1.742,0.358,2.839,1.007c2.203,1.277,4.765,4.007,6.902,7.638
				c2.161,3.631,3.967,8.114,5.237,13.121c1.692,6.753,1.136,12.953,2.856,18.344c0.824,0.466,1.677,3.199,2.47,5.997
				c0.741,7.331,0.341,14.812-0.011,21.846c-0.353,7.044-0.654,13.662,0.289,19.497c0.339,4.083-2.935,11.651-6.139,18.31
				c-3.19,6.671-6.277,12.47-5.195,13.436c3.952,3.528,4.484,4.029,3.716,5.998c-0.779,1.974-2.827,5.42-4.275,14.9
				c-0.437,2.275,2.127,10.197,1.149,14.793c-2.058,7.677-2.577,12.751-2.773,18.185c-0.203,5.43-0.082,11.216-1.045,20.257
				c-0.387,6.429-1.079,11.61-1.88,16.096c-0.4,2.242-0.828,4.312-1.262,6.277l-0.326,1.456c-0.106,0.468-0.232,1.032-0.285,1.194
				l-0.41,1.49c-0.536,1.954-1,3.747-1.246,5.97c-0.124,1.116-0.196,2.346-0.209,3.812c-0.007,0.734,0.001,1.527,0.023,2.4
				l0.042,1.373l0.028,0.736l0.015,0.382c0,0.061,0.012,0.138,0.002,0.187l-0.107,0.037c-0.474,0.166-0.976,0.354-1.518,0.563
				c-0.348,0.111-1.899,0.275-4.245,0.439c-2.338,0.165-5.499,0.327-8.861,0.45l-1.264,0.044l-0.635,0.022l-0.89-0.006l-3.534-0.033
				l-6.214-0.062l-6-0.064c-29.419-3.796-48.12-1.405-70.552-9.649c-27.056,2.547-61.874-7.051-90.313-8.729
				c-28.442-1.677-39.881-6.986-64.42-12.815c-7.053-1.193-12.412-1.257-16.457-2.761c-4.058-1.512-14.391,0.927-21.453-0.222
				l1.956-2.169l-9.438-1.522c-2.364-0.386-1.703-1.107-1.051-1.832c1.31-1.448,2.615-2.898-1.462-4.378
				c-9.838-2.087-19.95-3.866-30.374-5.303c-10.433,0.45-20.759,1.106-31.041,2.068c-0.645,1.032-1.387,2.058-2.86,2.854
				l-9.22,1.366c-1.918,2.255-1.375,4.79-2.648,6.301c-0.093,3.278-3.365,6.415-6.182,9.541c-2.826,3.121-5.153,6.229-3.673,9.218
				c0.58,0.866,5.063,1.46,10.377,2.382c5.311,0.911,11.433,2.119,15.166,3.864c1.716,1.047-2.504,2.957-4.344,5.194
				c9.915,0.495,10.357,3.066,6.167,4.953l4.636,0.645l-2.497,2.957c24.865,4.298,52.617,12.105,77.515,11.266
				c5.321,0.061,14.285-0.927,20.266-1.576c2.983-0.32,9.342,1.593,11.684,1.996c4.312-1.753,3.938-4.305,5.9-6.458
				c18.068,3.9,57.151,11.616,56.742,3.246c14.686,1.774,18.002-1.786,33.363-0.7c20.36,1.305,46.16,3.364,71.58,5.6
				c13.938,0.847,27.271,2.349,40.745,3.73l14.567,1.407l10.077,0.987l13.191,1.363l27.095,2.952l0.186-0.167
				c0.045-0.078,0.054-0.209,0.082-0.311l0.143-0.652l0.284-1.301l0.564-2.596l1.119-5.17l2.211-10.293l2.115-10.299l1.915-9.708
				c1.938-9.803,3.762-19.454,5.468-29.03c3.405-19.15,6.354-37.994,8.557-57.106c2.181-19.114,3.669-38.496,3.616-58.751
				c-0.042-10.128-0.479-20.477-1.631-31.122c-1.188-10.642-2.996-21.598-6.545-32.871c-1.671-5.222-3.667-10.476-6.365-15.684
				c-2.711-5.179-6.12-10.414-11.032-14.948c-2.445-2.251-5.284-4.288-8.432-5.844c-3.137-1.566-6.565-2.62-9.962-3.116
				c-1.699-0.249-3.391-0.368-5.05-0.376c-0.811-0.004-1.732,0.027-2.272,0.061l-2.052,0.115c-2.819,0.187-5.509,0.48-8.223,0.879
				c-10.811,1.602-21.082,4.705-30.841,8.568c-9.763,3.877-19.036,8.531-27.935,13.603c-17.787,10.18-34.127,21.968-49.475,34.283
				c-7.667,6.171-15.077,12.494-22.24,18.928c-3.581,3.218-7.101,6.464-10.557,9.743c-1.729,1.64-3.44,3.288-5.138,4.95l-1.874,1.82
				l-1.776,1.765c-0.091,0.139-0.271,0.147-0.414,0.208l-0.453,0.149l-0.903,0.294l-1.799,0.576l-4.257,1.355
				c-3.244,1.032-6.48,2.033-9.703,3.006c-6.446,1.944-12.838,3.774-19.154,5.493c-12.632,3.438-24.963,6.439-36.87,8.996
				c-23.807,5.109-45.959,8.442-65.338,9.781c-19.341,1.366-35.994,0.607-47.836-1.955c-5.914-1.255-10.554-2.933-13.75-4.592
				c-3.228-1.663-4.98-3.22-6.021-4.313C1411.357,1211.163,1409.556,1210.406,1407.806,1208.735z"/>
		</g>
	</g>
</g>
<g>
	<g opacity="0.8">
		<path fill="#020202" d="M441.824,1278.564c-1.918-7.683-3.304-17.77-3.496-29.717c-0.193-11.94,0.826-25.739,3.667-40.713
			c2.829-14.97,7.5-31.106,14.307-47.624c6.793-16.517,15.736-33.404,26.685-49.878c10.933-16.479,23.869-32.531,38.21-47.522
			c14.333-14.999,30.056-28.93,46.239-41.403c16.177-12.485,32.8-23.509,48.751-32.981c15.949-9.479,31.217-17.404,44.664-23.913
			c21.006-9.678,40.463-17.105,57.921-23.067c17.473-5.952,32.957-10.446,46.362-14.079c5.654-1.521,6.61-1.831,3.574-1.173
			c-3.029,0.673-10.043,2.335-20.105,5.152c-10.057,2.821-23.155,6.815-38.178,12.264c-15.017,5.447-31.954,12.358-49.574,20.903
			c-15.963,7.358-32.826,16.025-50.164,26.392c-17.329,10.366-35.143,22.435-52.762,36.582
			c20.096-18.961,42.639-36.167,65.243-50.696c22.582-14.564,45.175-26.453,64.813-35.655c30.379-11.14,62.6-20.172,96.362-26.785
			c37.145-7.225,75.184-11.098,113.161-11.779c37.98-0.685,75.938,1.801,113.056,7.397c74.271,11.167,145.024,34.808,206.902,68.95
			c11.249,6.16,25.361,14.643,40.113,24.887c14.77,10.225,30.14,22.224,44.352,34.925c14.244,12.682,27.31,26.055,38.287,38.547
			c11.005,12.485,19.943,24.073,26.665,32.966c-25.406-38.142-59.396-73.013-100.008-102.797
			c-40.589-29.802-87.806-54.513-139.127-72.766c-51.3-18.28-106.7-30.044-163.077-34.69c-56.365-4.656-113.664-2.393-168.907,6.813
			c5.939-1.209,11.87-2.367,17.738-3.489c58.51-8.66,119.168-9.698,178.548-2.963c59.376,6.725,117.34,21.391,170.284,43.152
			c17.835,7.58,35.376,15.865,52.975,24.96c-16.982-9.113-34.683-17.455-52.975-24.96c-23.329-9.916-47.126-18.68-72.294-26.222
			c-25.161-7.525-51.711-13.841-80.437-18.391c-17.789-2.591-37.112-4.252-56.442-5.07c-19.339-0.828-38.674-0.814-56.68-0.469
			c-29.42,0.756-56.129,4.904-82.98,9.963c-17.47,2.595-34.738,5.871-51.713,9.808c-5.064,0.873-10.456,1.915-15.908,3.162
			c0.172-0.079,0.502-0.213,0.613-0.291c4.75-2.417,15.575-6.356,31.477-10.687c15.893-4.316,36.905-8.976,61.771-12.569
			c24.851-3.61,53.539-6.117,84.269-6.497c30.726-0.406,63.506,1.371,96.117,5.682c32.615,4.277,65.009,11.091,95.08,19.785
			c30.092,8.669,57.832,19.188,81.789,30.112c23.979,10.917,44.193,22.198,59.96,32.084c15.777,9.892,27.163,18.349,33.811,23.759
			c21.305,17.217,37.972,36.049,52.748,56.035c14.761,20.043,27.694,41.237,41.063,64.581c4.457,7.807,8.977,14.881,12.784,21.66
			c3.806,6.774,6.895,13.252,8.362,19.735c-1.028,1.593,0.399,8.055,1.511,14.558c5.609,16.234,11.447,32.485,15.275,48.132
			c3.844,15.619,5.669,30.599,3.734,43.566c-0.322,4.532,1.117,11.031,3.093,18.428c1.99,7.392,4.496,15.694,6.595,23.677
			c4.275,15.938,6.712,30.618,3.857,32.313c-5.208,3.116-8.203,4.813-9.858,6.358c-1.661,1.54-1.986,2.913-1.953,5.27
			c0.029,2.356,0.431,5.699,0.059,11.162c-0.394,5.457-1.529,13.06-5.108,23.754c-0.772,2.608-4.551,7.703-8.744,13.309
			c-4.183,5.619-8.798,11.734-10.901,16.778c-3.124,8.632-6.499,15.57-10.069,21.666c-3.578,6.096-7.358,11.354-11.556,16.615
			c-4.204,5.258-8.826,10.521-14.293,16.568c-5.475,6.043-11.777,12.88-19.622,21.173c-12.231,12.021-22.209,21.507-30.899,29.778
			c-8.716,8.251-16.172,15.267-23.844,21.891c-7.685,6.61-15.591,12.834-25.457,19.179c-9.871,6.325-21.712,12.797-37.406,19.413
			c-1.885,0.817-8.998,4.41-18.873,8.988c-9.863,4.589-22.527,10.101-35.233,15.058c-12.69,4.98-25.41,9.403-34.981,12.495
			c-9.571,3.095-15.963,4.931-15.958,4.939c-19.126,7.119-37.266,12.275-54.439,16.329c-17.189,4.053-33.425,7.008-49.131,9.577
			c-15.717,2.566-30.914,4.74-46.285,7.06c-15.38,2.312-30.937,4.766-47.606,7.694c-19.506-1.412-40.318-2.458-61.979-3.916
			c-21.649-1.45-44.141-3.315-66.677-6.169c-22.529-2.835-45.094-6.657-66.638-11.678c-21.541-5.005-42.039-11.214-60.338-18.458
			c-18.304-7.247-33.643-13.784-47.537-19.776c-13.881-6.007-26.305-11.489-38.435-17.003
			c-12.119-5.524-23.946-11.082-36.348-17.505c-12.392-6.428-25.367-13.722-39.425-22.955c-15.323-11.1-24.64-20.82-34.152-27.076
			c-4.781-3.15-10.284-10.088-15.848-17.89c-5.596-7.8-11.208-16.455-17.111-23.056c-0.524,1.75-1.029,3.514-1.511,5.28
			c-2.032-2.218-5.028-5.55-7.94-8.927c-2.915-3.375-5.749-6.791-7.61-9.093c-3.73-4.599-4.333-2.852-4.956-1.093
			c-0.618,1.763-1.211,3.53-2.679,3.913c-1.461,0.379-3.831-0.615-7.857-4.474c-16.45-19.454-30.588-40.794-41.674-63.646
			c-7.172-23.453-11.112-46.979-11.995-70.04c2.004-1.537,3.967-3.281,5.293-6.603c0.176-6.82,0.612-13.593,1.244-20.314
			c4.568-4.229,10.008-3.105,13.096-5.871c6.94-0.278,13.322-7.275,19.897-13.144c6.557-5.897,13.174-10.72,19.508-7.647
			c1.85,1.211,3.038,10.547,5.496,21.377c2.383,10.835,6.207,23.124,10.988,30.346c2.694,3.279,5.54-5.363,9.914-9.185
			c1.624,9.714,4.197,14.648,6.428,16.095c2.265,1.447,4.263-0.566,5.645-4.714c1.359,4.406,2.86,8.758,2.866,8.757
			c1.329-1.332,5.392-5.256,5.398-5.247c4.238,11.541,9.734,23.131,16.116,34.513c6.38,11.388,13.64,22.566,21.328,33.426
			c7.688,10.867,15.795,21.418,23.86,31.692c8.063,10.281,16.072,20.292,23.588,30.201c3.425,4.14,7.672,9.856,12.179,15.684
			c4.489,5.834,9.238,11.779,13.214,16.481c1.979,2.348,6.257,5.393,10.637,8.146c4.379,2.76,8.851,5.227,11.091,6.648
			c2.085,3.877,2.015,6.338,1.364,8.457c-0.646,2.119-1.859,3.887-1.88,6.375c9.433,5.285,21.794,11.831,35.179,18.32
			c13.375,6.51,27.77,12.947,40.894,18.655c13.114,5.729,24.941,10.764,32.919,15.047c7.971,4.275,12.093,7.888,9.564,10.646
			c8.752,2.813,15.642,5.238,21.633,7.543c5.993,2.299,11.083,4.477,16.275,6.642c5.191,2.162,10.482,4.317,16.909,6.46
			c6.427,2.136,13.991,4.275,23.742,6.23c25.777,5.298,55.824,9.435,87.937,11.033c32.106,1.64,66.203,0.748,99.511-2.977
			c36.583-3.486,70.944-10.995,104.058-21.098c12.394-3.718,24.216-7.742,35.25-11.897c29.941-11.202,57.189-24.57,81.666-39.43
			c24.481-14.871,46.199-31.235,65.231-48.618c38.063-34.81,65.438-73.546,82.999-114.192
			c17.535-40.688,25.305-83.389,23.316-127.361c-1.021-21.975-4.535-44.24-10.894-66.696c-6.358-22.45-15.547-45.096-28.016-67.717
			c-12.562-22.803-28.78-44.794-48.24-65.268c-19.45-20.479-42.129-39.441-67.382-56.302
			c-25.244-16.867-53.049-31.637-82.575-43.895c-29.522-12.266-60.758-22.018-92.755-29.072
			c-31.998-7.062-64.746-11.43-97.304-13.188c-32.562-1.761-64.942-0.956-96.253,2.176c-31.325,3.128-61.596,8.608-90.168,16.03
			c-28.583,7.416-55.461,16.775-80.226,27.541c-24.772,10.766-47.428,22.936-67.795,35.953
			c-20.375,13.017-38.457,26.881-54.287,41.056c-31.702,28.378-54.229,57.911-69.705,85.214
			c-15.518,27.354-24.109,52.479-29.074,73.395c-4.946,20.952-6.378,37.748-7.146,49.42
			C446.432,1260.219,443.884,1269.328,441.824,1278.564z"/>
	</g>
</g>
<ellipse fill="#FFFFFF" cx="969.862" cy="778.008" rx="292.473" ry="302.473"/>
<path fill="#FFFFFF" d="M956.591,1747.053l74.997,88.496l184.49-76.496l-22.863,109.639c0,0,117.359,61.353,190.855,61.353
	s136.493,13.009,169.491-45.243s-76.85-99.58-100.672-99.58s48.545-137.613,34.11-201.135s-23.442-59.022-75.932-77.021
	s-86.941,9.076-86.941,9.076l-354.266,142.682L956.591,1747.053z"/>
<g>
	<g opacity="0.8">
		<path fill="#1D1D1D" d="M1432.771,1513.397c-14.287-16.255-42.208-9.624-56.731-13.843c-5.145-0.272-9.214-0.915-12.542-2.235
			c-2.809-1.124,3.017-0.552,12.542,2.235c3.909,0.198,8.44,0.177,13.746,0.079c-8.692-6.133-17.121-12.253-23.441-17.483
			c-3.181,0.544-6.437,0.967-9.797,1.254c-14.678,1.563-28.077,5.478-43.281,4.979c-5.574-0.362-16.446,2.718-22.542,0.287
			l61.642-13.864c-0.676-0.228-1.369-0.518-2.081-0.892l-34.237,1.789c-1.815,0.469-3.745,0.659-5.917,0.296l5.917-0.296
			c4.733-1.277,8.599-4.723,13.526-6.8c3.292-0.531,7.869,1.307,11.156,0.749c2.782-0.156,6.31,2.608,9.555,4.262l5.117-0.251
			c0.341-0.498,0.729-0.961,1.191-1.24c-0.036-0.05-0.098-0.126-0.137-0.203c-9.237-14.807-56.181-24.284-61.704-19.064
			c-4.537,3.76-4.922,18.449-10.213,21.905c-1.769,1.155-4.581-1.831-5.06,1.686c0.522,2.057,0.285,3.822,0.048,5.6
			c-3.521,2.306-9.911-3.972-10.862,3.082c-1.243,3.211-17.961-27.604-16.389-21.397c5.761,22.72,1.572,6.196-4.012,5.81
			c-0.756-0.286,0.333,9.423-1.187,8.831c-5.863-4.212-4.535,3.741-8.299,7.81c-4.483,9.352-10.677-4.25-12.07,11.88
			c-0.23,1.775-6.726,14.012-6.726,14.012c-8.102,0.479-9.012,13.114-20.012-0.551c-2.153,15.845-16.45,2.696-22.736,7.622
			c-6.295,4.91-12.972-5.195-22.403-12.674c-2.287-0.913-3.283,0.557-5.33-2.118c-2.054-2.685-1.72,6.737-4.006,5.824l-1.573-6.202
			l-3.045-1.199c-0.77-0.32-1.289-2.384-1.813-4.451c-1.047-4.135-2.097-8.269-4.144-10.938c-3.627-2.596-7.055-4.403-10.28-5.406
			c-1.562,3.89-2.966,8.139-4.189,12.804c0.778,2.82,1.531,5.644,1.931,8.014l-0.719,5.277c1.568,6.192,3.905,12.705,4.952,16.846
			c5.705,17.11,8.128,34.782,14.079,50.151c1.812,4.446,6.618,4.492,11.244,11.924c1.279,2.348,2.086,8.244,3.661,14.445
			c2.527-0.842,4.856,5.656,5.663,11.542l1.523,0.607l2.097,8.27c8.909,5.41,20.913,17.625,24.636,7.977
			c1.007-1.439,1.721-6.732,2.194-10.265c0.24-1.75,3.052,1.23,3.817,1.542c-0.805-5.892-3.137-12.39-4.709-18.586
			c6.623,4.496,20.106,11.734,12.584-9.838c4.05-0.233,1.439-10.551,4.966-12.858c4.55-3.418,10.633-6.826,16.761-9.797
			c3.021-2.608,6.518-3.349,9.918-4.482c1.234-0.524,2.439-1.017,3.594-1.464c24.741-10.536,49.135,0.108,68.454-24.632
			c38.945-49.884,110.678-18.281,124.606-17.561L1432.771,1513.397z"/>
	</g>
</g>
<ellipse fill="#FFFFFF" cx="929.998" cy="1279" rx="497.002" ry="374"/>
<g>
	<g opacity="0.8">
		<path fill="#020202" d="M694.195,658.762c-7.255,10.393-16.276,28.726-22.396,52.564c-3.067,11.894-5.394,25.122-6.563,39.14
			c-1.179,14.014-1.191,28.813,0.11,43.75c1.287,14.938,3.887,30.007,7.622,44.58c3.724,14.577,8.579,28.648,14.118,41.722
			c11.047,26.201,24.903,48.176,36.29,64.1c9.068,12.06,17.894,22.096,25.999,30.595c8.116,8.496,15.518,15.463,21.987,21.328
			c2.731,2.465,3.17,2.932,1.646,1.738c-1.515-1.201-4.984-4.073-9.833-8.517c-9.676-8.865-24.896-24.176-39.8-45.143
			c-13.74-18.328-28.222-41.436-40.021-70.778c5.677,18.972,13.279,37.195,21.703,53.428c8.403,16.253,17.59,30.517,25.896,42.088
			c14.001,15.311,29.61,29.488,46.758,42.283c18.883,14.036,39.22,25.84,60.467,35.365c21.25,9.523,43.428,16.797,66.128,21.673
			c45.406,9.769,92.859,9.969,139.158,0.326c8.397-1.72,19.197-4.442,30.962-8.326c11.771-3.861,24.488-8.903,36.81-14.77
			c12.327-5.852,24.242-12.522,34.683-19.088c10.455-6.551,19.449-12.964,26.283-17.917c-27.245,22.304-58.299,39.741-91.245,51.654
			c-32.949,11.934-67.79,18.36-102.696,19.145c-34.908,0.803-69.87-4.056-103.167-14.159c-33.292-10.104-64.974-25.3-93.556-45.027
			l8.961,6.821c30.535,20.184,64.435,35.401,100.077,44.838c35.636,9.438,73.011,12.948,110.08,10.095
			c12.569-1.174,25.219-2.909,38.202-5.188c-12.637,2.481-25.398,4.211-38.202,5.188c-16.441,1.54-32.737,2.17-49.397,1.609
			c-16.651-0.568-33.677-2.335-51.361-5.899c-10.871-2.409-22.3-5.89-33.466-9.979c-11.176-4.077-22.085-8.753-32.168-13.287
			c-16.409-7.579-30.158-17.177-43.765-27.376c-9.113-6.033-17.921-12.51-26.377-19.4c-2.633-1.801-5.405-3.803-8.141-5.985
			c0.072,0.103,0.215,0.283,0.253,0.373c1.89,3.029,6.776,8.607,14.429,15.668c7.647,7.053,18.097,15.557,31.036,24.219
			c12.928,8.666,28.352,17.448,45.584,25.199c17.224,7.769,36.282,14.476,56.077,19.329c19.786,4.878,40.284,7.896,60.13,8.979
			c19.849,1.111,39.027,0.302,56.244-1.765c17.226-2.05,32.483-5.326,44.767-8.71c12.291-3.387,21.626-6.833,27.228-9.229
			c17.918-7.568,33.723-17.718,48.809-29.228c15.095-11.564,29.509-24.461,44.954-38.789c10.276-9.568,20.031-16.809,25.942-26.074
			c-0.144-1.553,2.762-6.166,5.484-10.892c8.567-10.951,17.342-21.817,24.705-32.788c7.365-10.941,13.301-21.959,16.202-32.424
			c1.237-3.562,4.24-8.146,7.89-13.285c3.655-5.131,7.952-10.837,11.907-16.422c7.934-11.127,14.359-21.854,13.067-23.876
			c-4.724-7.396-5.443-8.274-3.817-11.898c0.793-1.805,2.166-4.275,3.734-8.576c1.558-4.299,3.35-10.438,4.612-19.554
			c0.373-2.2-0.369-7.031-1.203-12.342c-0.82-5.321-1.745-11.107-1.395-15.492c1.771-14.808,0.868-24.53-0.876-34.548
			c-0.899-5.015-2.06-10.121-3.469-16.018c-1.42-5.895-3.083-12.582-5.191-20.736c-3.605-11.997-6.589-21.528-9.159-29.847
			c-2.586-8.309-4.78-15.392-7.231-22.216c-2.461-6.816-5.176-13.377-9.045-20.431c-3.873-7.039-8.898-14.593-16.181-23.03
			c-0.862-1.033-3.942-5.345-8.331-11.008c-4.377-5.671-10.09-12.664-15.981-19.236c-11.703-13.238-24.251-24.515-24.245-24.509
			c-8.791-9.755-17.625-17.765-26.224-24.726c-8.607-6.961-16.989-12.876-25.157-18.42l-24.106-16.115
			c-7.98-5.401-15.968-11.037-24.386-17.428c-11.605-3.313-23.756-7.358-36.476-11.417c-12.709-4.062-25.986-8.126-39.603-11.544
			c-13.606-3.425-27.551-6.194-41.326-7.827c-13.769-1.641-27.362-2.144-40.074-1.261c-12.713,0.887-23.531,1.893-33.365,2.814
			c-9.834,0.936-18.688,1.792-27.403,2.719c-8.71,0.94-17.29,1.948-26.507,3.456c-9.21,1.516-19.067,3.517-30.218,6.727
			c-12.491,4.338-21.063,9.341-28.671,11.454c-3.824,1.069-9.285,4.972-15.058,9.531c-5.792,4.552-11.873,9.748-17.498,13.197
			l0.747-4.698c-3.856,2.266-11.368,7.042-15.058,9.59c-3.71,2.514-3.526,0.942-3.354-0.656c0.367-3.165,0.776-6.438-6.584-2.795
			c-16.17,10.46-31.67,23.079-45.856,37.77c-11.936,16.326-21.935,33.586-29.88,51.259c0.785,1.762,1.473,3.671,1.257,6.618
			c-2.068,5.335-3.957,10.699-5.708,16.065c1.567,4.527,5.404,5.156,6.499,8.133c4.347,2.125,6.21,9.243,8.564,15.492
			c2.332,6.271,5.059,11.691,10.104,11.069c1.573-0.416,5.284-7.138,10.236-14.634c4.907-7.523,11.142-15.742,16.381-19.84
			c2.709-1.706,1.862,5.648,3.472,9.756c3.997-6.843,7.117-9.824,8.963-10.265c1.865-0.435,2.515,1.665,2.137,5.178
			c2.186-2.917,4.442-5.749,4.442-5.749c0.438,1.394,1.816,5.515,1.827,5.511c12.257-14.863,27.506-28.257,43.169-40.119
			c15.687-11.938,31.724-22.417,46.343-33.408c3.227-2.207,7.393-5.428,11.746-8.685c4.343-3.268,8.872-6.571,12.579-9.135
			c1.849-1.281,5.23-2.41,8.574-3.279c3.346-0.875,6.649-1.495,8.362-1.959c4.776-5.035,2.778-8.228,4.268-12.349
			c7.013-1.419,16.062-3.015,25.645-4.336c9.583-1.342,19.693-2.407,28.851-3.327c9.159-0.94,17.373-1.765,23.208-3.104
			c5.83-1.339,9.316-3.248,8.83-6.323c11.578,0.225,18.558-0.621,25.79-1.508c7.212-0.823,14.701-1.693,26.896,0.056
			c16.146,2.251,34.318,6.343,52.891,12.716c18.579,6.35,37.522,14.958,55.209,25.418c19.651,10.967,36.819,24.453,52.591,39.514
			c5.926,5.589,11.451,11.264,16.489,16.864c27.423,30.296,46.289,64.437,57.736,99.129c11.44,34.758,15.547,70.162,13.245,104.738
			c-2.324,34.601-11.053,68.452-25.979,100.85c-14.944,32.337-36.142,63.176-64.84,90.814
			c-14.465,13.918-30.796,26.27-48.462,36.647c-17.663,10.384-36.657,18.79-56.377,24.994
			c-39.452,12.473-81.743,15.929-122.178,10.747c-40.477-5.102-79.034-18.761-112.433-38.123
			c-33.456-19.344-61.637-44.497-83.283-71.941c-21.719-27.449-36.952-57.08-46.502-85.57c-9.6-28.531-13.583-55.878-14.112-79.914
			c-0.544-24.084,2.288-44.875,5.938-61.633c3.668-16.785,8.109-29.608,11.305-38.464
			C691.417,673.65,692.637,666.205,694.195,658.762z"/>
	</g>
</g>
<g>
	<g opacity="0.8">
		<path fill="#1D1D1D" d="M924.203,851.487c2.727-2.544,4.108-8.523,3.976-14.859c-0.046-3.165-0.446-6.401-0.981-9.348
			c-0.525-2.951-1.187-5.611-1.575-7.72c-0.953-3.078-1.788-5.447-2.268-7.355c-0.465-1.617,1.229,1.805,2.268,7.355
			c0.723,2.339,1.505,5.095,2.159,8.36c0.912-4.64,1.239-9.432,1.408-13.081c-0.975-2.076-2.029-4.15-3.177-6.233
			c-2.563-4.562-5.724-8.688-9.169-12.533c-3.451-3.85-7.185-7.429-11.056-11.031c-1.386-1.333-3.809-3.165-6.264-4.929
			c-2.451-1.775-4.931-3.487-6.309-4.853c6.731,3.831,13.184,8.257,19.05,13.429c5.863,5.163,11.13,11.088,15.362,17.697
			c-0.147-0.416-0.282-0.84-0.397-1.273c-4.159-7.215-9.546-13.787-15.643-19.567c-1.101-0.899-2.178-1.848-3.218-2.935
			c1.092,0.956,2.166,1.935,3.218,2.935c2.879,2.338,6,4.291,9.018,7.112c1.714,1.897,3.042,4.62,4.548,6.644
			c1.175,1.716,1.532,3.843,2.076,5.811c0.619,1.078,1.211,2.168,1.775,3.271c0.281,0.247,0.56,0.527,0.797,0.846
			c0.006-0.02,0.014-0.055,0.028-0.076c0.573-1.258,0.288-4.13-0.89-7.756c-1.167-3.619-3.271-7.954-5.94-12.014
			c-2.653-4.07-5.837-7.853-8.701-10.681c-2.862-2.837-5.373-4.748-6.651-5.309c-4.065-1.9-9.321-0.569-13.62-2.276
			c-1.445-0.571-2.182-2.059-3.63-1.787c-0.354,0.472-1.074,0.612-1.794,0.763c-2.864-1.01-4.843-4.211-7.677-3.469
			c-0.889,0.03-1.526-2.554-2.134-4.968c-0.6-2.412-1.156-4.649-1.62-3.89c-3.384,5.569-0.898,1.503-4.461-0.321
			c-0.415-0.288-2.689,1.709-3.495,1.157c-2.563-2.476-4.117-0.677-7.779-0.955c-2.849,0.265-4.281-0.622-5.729-1.248
			c-1.441-0.62-2.897-0.978-5.646,0.474c-0.673,0.264-8.339,1.321-8.323,1.353c-5.487-1.645-9.405,0.956-13.107-4.128
			c-2.81,1.565-5.701,0.997-8.625,0.068c-2.917-0.928-5.869-2.214-8.613-2.097c-5.476,0.247-7.473-3.087-12.147-6.111
			c-1.355-0.508-2.403-0.263-3.168-1.168c-0.773-0.909-2.83,1.474-4.188,0.997l0.403-1.728l-1.834-0.632
			c-0.46-0.162-0.327-0.737-0.195-1.314c0.265-1.153,0.535-2.306-0.264-3.196c-1.936-1.038-3.943-1.839-6.021-2.396
			c-2.065,0.853-4.097,1.833-6.099,2.958c-0.107,0.798-0.233,1.595-0.505,2.247l-1.77,1.337c-0.32,1.745-0.152,3.628-0.361,4.795
			c0.102,4.912-2.135,9.774-1.331,14.24c0.214,1.287,3.37,1.63,4.786,3.947c0.329,0.715-0.405,2.317-0.692,4.062
			c1.792-0.021,1.902,1.866,1.186,3.462l0.833,0.283l-0.4,2.322c4.473,2.138,9.288,6.436,13.689,4.447
			c0.94-0.248,2.555-1.481,3.644-2.296c0.544-0.405,1.634,0.673,2.04,0.844c0.825-1.547,0.837-3.431,1.26-5.147
			c3.195,1.912,9.875,5.548,10.259-0.657c2.606,0.543,3.433-2.282,6.235-2.263c3.717-0.074,8.408,0.183,12.999,0.676
			c2.556-0.011,4.93,0.514,7.33,0.965l2.604,0.435c9.024,1.504,16.43,4.54,23.59,7.428c7.189,2.929,14.098,5.629,22.82,7.44
			c8.814,1.846,17.051,6.218,23.363,12.127c6.358,5.882,10.621,13.23,12.686,20.165c2.115,6.963,2.177,13.411,1.662,18.382
			c-0.521,4.997-1.544,8.602-1.826,10.521C922.736,849.969,923.472,850.717,924.203,851.487z"/>
	</g>
</g>
<g>
	<g opacity="0.8">
		<path fill="#1D1D1D" d="M1022.872,851.487c-3.221-2.467-4.888-8.339-4.985-14.598c-0.068-3.126,0.232-6.33,0.669-9.259
			c0.427-2.935,0.991-5.594,1.273-7.729c0.852-3.085,1.594-5.483,1.971-7.443c0.38-1.666-1.211,1.822-1.971,7.443
			c-0.647,2.344-1.35,5.093-1.912,8.337c-1.337-4.715-2.057-9.673-2.523-13.496c0.957-2.093,1.987-4.189,3.108-6.304
			c2.51-4.624,5.654-8.802,9.078-12.708c3.432-3.913,7.141-7.565,10.966-11.296c1.368-1.383,3.79-3.255,6.241-5.07
			c2.447-1.825,4.916-3.6,6.259-5.065c-6.761,3.906-13.244,8.413-19.136,13.673c-5.889,5.25-11.174,11.271-15.407,17.976
			c0.133-0.431,0.249-0.873,0.344-1.327c4.089-7.378,9.444-14.135,15.533-20.099c1.11-0.916,2.188-1.892,3.214-3.031
			c-1.092,0.988-2.164,1.999-3.214,3.031c-2.907,2.378-6.133,4.285-9.212,7.139c-1.725,1.946-2.966,4.808-4.477,6.875
			c-1.166,1.763-1.394,4.026-1.845,6.085c-0.608,1.102-1.189,2.216-1.741,3.342c-0.298,0.24-0.592,0.515-0.837,0.835
			c-0.009-0.022-0.02-0.06-0.038-0.083c-0.747-1.377-0.64-4.405,0.397-8.221c1.025-3.808,3.025-8.366,5.639-12.638
			c2.597-4.282,5.769-8.263,8.646-11.227c2.876-2.975,5.423-4.962,6.747-5.504c4.209-1.867,9.864,0.029,14.245-1.631
			c1.475-0.556,2.146-2.218,3.677-1.809c0.4,0.566,1.16,0.775,1.918,0.997c2.912-0.974,4.769-4.553,7.745-3.525
			c0.92,0.089,1.423-2.869,1.917-5.638c0.486-2.768,0.943-5.34,1.463-4.433c3.792,6.656,1.007,1.8,4.589-0.142
			c0.413-0.315,2.853,2.128,3.651,1.523c2.509-2.764,4.193-0.591,7.921-0.749c2.92,0.438,4.34-0.541,5.789-1.214
			c1.442-0.667,2.913-1.029,5.76,0.779c0.7,0.339,8.499,1.854,8.478,1.888c5.497-1.753,9.513,1.42,13.109-4.474
			c2.872,1.917,5.766,1.314,8.688,0.28c2.917-1.034,5.864-2.498,8.627-2.315c5.508,0.377,7.466-3.537,12.146-7.063
			c1.36-0.587,2.418-0.29,3.182-1.353c0.772-1.068,2.862,1.764,4.226,1.207l-0.416-2.044l1.846-0.736
			c0.463-0.19,0.325-0.871,0.189-1.553c-0.273-1.364-0.552-2.729,0.25-3.777c1.953-1.218,3.98-2.159,6.082-2.813
			c2.095,1.011,4.151,2.169,6.18,3.496c0.107,0.944,0.231,1.886,0.507,2.655l1.789,1.575c0.317,2.062,0.14,4.289,0.347,5.668
			c-0.12,5.807,2.102,11.542,1.252,16.824c-0.214,1.526-3.359,1.947-4.771,4.687c-0.328,0.845,0.398,2.738,0.677,4.8
			c-1.774-0.021-1.885,2.209-1.18,4.095l-0.823,0.336l0.392,2.746c-4.42,2.533-9.143,7.594-13.5,5.206
			c-0.931-0.299-2.538-1.772-3.624-2.747c-0.543-0.483-1.608,0.778-2.008,0.976c-0.835-1.837-0.869-4.064-1.31-6.097
			c-3.151,2.226-9.701,6.406-10.196-0.929c-2.58,0.594-3.457-2.757-6.248-2.792c-3.704-0.166-8.377,0.022-12.945,0.468
			c-2.553-0.088-4.907,0.454-7.293,0.902l-2.59,0.419c-8.977,1.439-16.278,4.65-23.327,7.608c-7.085,3-13.868,5.658-22.682,7.03
			c-8.914,1.406-17.188,5.606-23.417,11.447c-6.28,5.815-10.334,13.184-12.112,20.077c-1.833,6.927-1.553,13.281-0.759,18.135
			c0.8,4.88,2.041,8.36,2.388,10.212C1024.604,850.018,1023.735,850.739,1022.872,851.487z"/>
	</g>
</g>
<path fill="#FFFFFF" d="M605.611,1286.583c105.252-53.498,210.997,29.503,210.997,29.503s84.49-93.001,156.486-93.001
	c71.997,0,14.508,266.986,14.508,266.986c-340.468-36.19-340.674-35.235-402.726-35.235c-71.24,0-167.248-45.755-167.248-167.248
	S459.765,1150,459.765,1150L605.611,1286.583"/>
<g>
	<g opacity="0.8">
		<path fill="#212121" d="M467.463,1165.026c-0.657,0.036-1.338,0.194-2.052,0.434c-0.747,0.265-1.655,0.719-2.626,1.334
			c-1.952,1.229-4.169,3.101-6.405,5.529c-4.5,4.852-9.034,11.967-12.89,20.604c-3.882,8.637-7.123,18.781-9.637,29.745
			c-2.521,10.969-4.324,22.763-5.526,34.841c-0.603,6.04-1.057,12.153-1.38,18.282c-0.31,6.121-0.564,12.325-0.557,18.229
			c0.011,11.921,1.077,23.613,3.142,34.557c2.053,10.946,5.109,21.129,8.732,30.138c3.616,9.017,7.768,16.862,11.762,23.375
			c6.37,9.901,13.171,17.87,19.641,24.389c6.478,6.525,12.63,11.617,18.07,15.784c2.3,1.749,2.691,2.061,1.417,1.23
			c-1.26-0.849-4.168-2.871-8.178-6.122c-4.002-3.253-9.103-7.754-14.538-13.623c-5.436-5.858-11.185-13.108-16.411-21.658
			c-4.837-7.524-9.407-16.175-13.245-26.054c-3.841-9.872-6.931-20.975-8.868-33.235c1.206,15.486,4.59,30.624,9.693,44.038
			c5.056,13.438,11.767,25.085,18.292,34.258c10.819,12.388,23.813,23.104,38.352,31.812c16.015,9.556,33.476,16.334,51.433,20.502
			c8.985,2.076,18.106,3.5,27.286,4.228c4.573,0.368,9.231,0.54,13.767,0.563l13.532,0.162c9.007,0.125,17.971,0.349,26.927,0.799
			c8.956,0.444,17.91,1.09,26.877,1.857c17.933,1.544,35.905,3.515,53.961,5.672c26.184,3.16,83.453,9.177,108.742,13.363
			c-26.563-2.942-53.128-5.855-79.692-8.654c-26.56-2.776-53.133-5.524-79.649-7.642c-13.261-1.045-26.476-1.873-39.703-2.24
			c-6.616-0.19-13.251-0.277-19.918-0.332l-10.015-0.072c-3.286-0.014-6.855-0.051-10.285-0.229
			c-13.829-0.678-27.521-2.92-40.823-6.563c-13.3-3.646-26.213-8.731-38.391-15.248c2.582,1.536,5.18,3.02,7.766,4.453
			c13.084,6.379,26.927,11.179,41.148,14.4c7.113,1.609,14.324,2.818,21.6,3.606c3.639,0.392,7.292,0.68,10.959,0.855
			c1.825,0.089,3.687,0.143,5.49,0.179l5.272,0.102c14.069,0.256,27.926,0.585,41.771,1.495c13.851,0.884,27.749,2.177,41.669,3.589
			c9.466,0.822,19.033,1.827,28.863,3.107c-9.625-1.079-19.248-2.126-28.863-3.107c-12.386-1.063-24.598-1.805-37.02-2.24
			c-12.432-0.451-25.028-0.469-38.575-0.391c-4.179-0.056-8.524-0.159-12.955-0.298c-4.627-0.129-9.42-0.468-14.121-0.991
			c-9.433-1.04-18.719-2.81-27.29-4.813c-13.979-3.398-26.113-8.982-37.951-15.493c-7.813-3.813-15.354-8.185-22.505-13.125
			c-2.189-1.289-4.493-2.747-6.768-4.365c0.065,0.074,0.19,0.209,0.226,0.273c1.729,2.211,5.995,6.305,12.693,11.217
			c6.694,4.898,15.857,10.574,27.163,15.717c11.289,5.154,24.701,9.778,39.494,12.807c7.394,1.517,15.127,2.644,23.09,3.255
			c1.97,0.153,4.043,0.268,5.966,0.359l5.576,0.272l11.155,0.546c14.834,0.712,29.365,1.815,43.57,3.273
			c14.178,1.435,27.87,3.049,40.277,4.5c24.823,2.931,44.504,5.222,53.258,5.78c27.907,1.974,53.828-0.418,84.902,2.218
			c10.384,0.882,18.99,3.141,27.057,2.82c0.864-0.684,4.898-0.847,8.953-1.011c20.689,1.775,41.077,6.844,57.215,6.213
			c5.619,0.108,15.861,4.105,25.025,7.819c4.583,1.856,8.896,3.643,12.228,4.836c0.833,0.299,1.604,0.56,2.304,0.776
			c0.185,0.055,0.322,0.103,0.533,0.156l0.818,0.173l1.489,0.278c1.849,0.316,3.118,0.393,3.614,0.153
			c3.397-1.646,5.113-2.656,6.591-3.141c1.462-0.485,2.628-0.449,4.515-0.047c3.751,0.804,10.431,3.082,28.125,5.605
			c0.057-0.098,0.122-0.183,0.172-0.292l0.1-0.397l0.202-0.812l0.409-1.677l0.846-3.59c0.609-2.444,1.057-8.564,1.557-14.902
			c0.518-6.383,0.998-12.989,2.08-17.731c0.508-1.992,0.981-3.92,1.416-5.786l0.913-3.743c0.529-2.263,0.957-4.366,1.313-6.373
			c0.71-4.014,1.127-7.642,1.451-11.385c0.639-7.489,0.939-15.43,2.235-27.918c1.257-18.627,3.19-29.819,4.653-40.61
			c1.411-10.779,2.408-21.181,0.608-38.022c-0.187-2.039-0.468-16.137-1.552-29.752c-0.521-6.807-1.232-13.488-1.885-18.465
			c-0.647-4.977-1.2-8.248-1.196-8.248c-0.785-10.308-2.421-19.693-5.013-28.383c-1.305-4.343-2.856-8.512-4.763-12.507
			c-0.966-2.019-1.971-3.898-3.188-5.895c-1.248-2.031-2.599-3.963-4.082-5.753c-2.953-3.586-6.425-6.632-10.359-8.865
			c-3.932-2.237-8.297-3.618-12.813-4.171c-2.259-0.273-4.555-0.35-6.888-0.426c-2.125-0.075-4.082-0.116-6.155-0.124
			c-4.104-0.027-8.277,0.069-12.59,0.24c-9.293,3.353-18.844,7.215-28.507,11.631c-9.657,4.41-19.42,9.368-28.984,14.785
			c-19.117,10.825-37.453,23.51-51.909,36.801l-11.987,10.991l-1.374,1.25l-1.145,1.026l-1.724,1.509
			c-1.128,0.978-2.213,1.896-3.253,2.759c-1.162,0.964-2.269,1.856-3.321,2.683l-1.537,1.191l-0.737,0.562l-0.36,0.273l-0.178,0.135
			c-0.061,0.027-0.135-0.112-0.202-0.159l-6.463-6.36l-2.995-2.965l-0.716-0.711l-0.18-0.177c-0.061-0.06-0.104-0.108-0.261-0.226
			l-0.783-0.602l-3.213-2.422c-4.38-3.242-9.158-6.563-14.618-9.969c-8.933-5.008-16.189-7.578-21.348-10.836
			c-2.594-1.636-7.628-2.958-13.224-4.164c-5.598-1.22-11.748-2.301-16.676-3.854l3.083-1.592
			c-3.311-1.113-9.995-3.096-13.411-3.955c-3.404-0.891-2.398-1.465-1.382-2.059c2.021-1.16,4.13-2.352-1.844-4.681
			c-14.552-4.038-30.23-6.507-46.605-6.675c-16.109,1.691-31.819,5.5-46.353,11.22c-0.572,1.273-1.279,2.577-3.075,4.038
			c-4.179,1.908-8.251,3.965-12.213,6.145c-1.642,3.149,0.152,5.141-0.881,7.242c1.247,3.025-1.619,7.73-3.668,12.214
			c-2.079,4.482-3.427,8.687-0.302,10.442c1.091,0.427,6.697-1.806,13.466-3.73c6.753-1.976,14.68-3.506,19.794-3.215
			c2.413,0.354-2.12,3.729-3.48,6.594c5.903-1.753,9.245-1.792,10.477-1.171c1.244,0.643,0.426,1.991-1.705,3.593
			c2.773-0.477,5.546-0.836,5.546-0.834c-0.54,0.895-2.07,3.594-2.061,3.597c14.703-1.799,30.321-0.568,45.483,2.253
			c15.211,2.791,30.035,7.053,44.467,10.566c3.057,0.863,7.22,1.843,11.504,2.922c4.284,1.07,8.685,2.24,12.201,3.259
			c3.537,0.988,10.026,5.831,12.438,7.413c5.455,0.585,6.062-1.921,9.129-2.838l1,0.727l0.513,0.375l0.129,0.095l0.231,0.156
			l0.476,0.32c1.291,0.871,2.626,1.786,4,2.753c2.747,1.938,5.651,4.048,8.675,6.468c6.87,0.604,12.871,1.267,17.839,1.963
			c0.147,0.01,0.297,0.07,0.443,0.037l0.443-0.099l0.91-0.198l1.907-0.399l4.186-0.813c2.959-0.551,6.289-1.121,10.055-1.725
			c3.12-3.174,6.259-6.209,9.345-9.154l6.896-6.488c3.156-2.969,5.993-5.736,8.268-8.19c4.549-4.904,6.851-8.6,4.918-10.189
			c7.459-6.019,11.438-10.202,15.504-14.51c4.081-4.269,8.247-8.697,16.422-14.345c10.789-7.48,23.534-15.211,37.559-21.136
			c7.002-2.949,14.319-5.422,21.724-7.027c3.701-0.802,7.421-1.387,11.115-1.706c2.104-0.172,3.065-0.219,4.377-0.246
			c1.261-0.021,2.528,0.1,3.759,0.39c2.729,0.533,5.218,1.98,7.163,3.93c0.98,0.971,1.844,2.054,2.608,3.199
			c0.192,0.285,0.378,0.575,0.556,0.871l0.26,0.434l0.316,0.554c0.423,0.76,0.831,1.554,1.221,2.376
			c1.562,3.295,2.841,7.011,3.892,10.901c1.052,3.896,1.883,7.978,2.565,12.153c1.052,6.231,1.718,12.482,2.15,18.49
			c1.295,17.854,0.806,35.546-0.315,52.703c-1.155,17.18-3.032,33.903-5.273,50.274c-2.25,16.373-4.88,32.402-7.753,48.241
			l-2.204,11.845l-1.136,5.9l-0.457,2.286l-0.34,1.625l-1.376,6.417l-0.7,3.164l-0.354,1.573l-0.179,0.784l-0.09,0.392
			c-0.046,0.109-0.009,0.332-0.194,0.249l-10.777-1.303l-6.373-0.722l-10.043-1.084c-13.42-1.43-26.968-2.793-40.744-4.071
			c-27.553-2.555-56.022-4.771-86.223-6.467c-33.628-1.88-67.63-4.271-101.566-6.821c-16.97-1.268-33.922-2.577-50.841-3.758
			c-16.91-1.173-33.839-2.211-50.694-2.584c-8.42-0.196-16.777-0.239-25.037-0.279l-6.182-0.032l-3.064-0.021l-2.944-0.053
			c-3.923-0.11-7.835-0.368-11.724-0.757c-15.558-1.565-30.713-5.263-44.815-10.722c-14.106-5.459-27.162-12.719-38.573-21.438
			c-11.424-8.708-21.176-18.877-28.952-29.896c-7.795-11.016-13.603-22.859-17.648-34.836c-4.058-11.983-6.385-24.089-7.469-35.848
			c-0.542-5.881-0.792-11.679-0.78-17.361c0.006-2.841,0.056-5.651,0.18-8.431c0.118-2.841,0.263-5.713,0.43-8.505
			c0.672-11.203,1.729-21.744,3.131-31.507c2.787-19.529,7.066-35.919,11.918-48.264c2.414-6.18,4.946-11.351,7.358-15.501
			c2.411-4.158,4.693-7.292,6.577-9.566c1.008-2.121,2.11-4.093,3.219-5.789c0.55-0.847,1.105-1.622,1.588-2.274
			C466.461,1166.117,466.902,1165.535,467.463,1165.026z"/>
	</g>
</g>
<g>
	<g>
		<g>
			<g>
				<g opacity="0.8">
					<path fill="#4E4E4E" d="M1279.336,1559.997c-0.352,0.113-0.648,0.183-1.055,0.343c-0.143,0.075-0.35,0.203-0.442,0.235
						l-0.247,0.071l-0.486,0.134l-1.905,0.506c-1.263,0.334-2.532,0.679-3.829,1.052c-2.591,0.745-5.286,1.6-8.102,2.567
						c-5.628,1.931-11.731,4.304-18.225,6.958c-12.975,5.311-27.522,11.711-42.438,17.926
						c-14.904,6.227-30.163,12.264-44.246,17.166c-14.078,4.912-26.965,8.704-36.979,10.708c-14.94,4.281-26.557,6.72-35.507,7.697
						c-3.773,0.392-1.453-0.301,5.085-1.652c6.539-1.361,17.295-3.425,30.422-6.045c11.355-3.276,24.638-7.627,40.071-13.45
						c-21.828,1.882-42.605,2.239-57.625,1.325c-9.499,3.252-19.2,6.232-29.156,8.924c-21.846,6.051-43.383,11.585-65.089,15.992
						c-21.698,4.403-43.564,7.677-65.852,9.061c-8.092,0.426-20.819,1.84-33.537,2.658c-12.715,0.843-25.41,1.093-33.311-0.104
						c64.688-4.166,129.11-15.316,191.299-34.488c-1.798,0.199-3.604,0.336-5.411,0.381c-33.252,8.17-66.905,14.059-100.655,17.87
						c-5.663,0.991-11.451,1.672-17.497,1.775c5.834-0.529,11.667-1.123,17.497-1.775c14.824-2.655,28.681-7.649,44.395-12.044
						c9.871-2.011,21.768-2.298,31.619-4.77c8.101-1.732,16.377-0.789,24.642-1.057c4.967-1.214,9.925-2.48,14.873-3.797
						c1.292-0.813,2.695-1.622,4.193-2.281c-0.071-0.031-0.199-0.073-0.263-0.133c-4.293-2.55-15.465-3.003-30.021-2.684
						c-14.563,0.337-32.526,1.377-50.54,2.313c-18.014,0.969-36.081,1.835-50.891,2.694c-14.809,0.871-26.374,1.793-31.357,3.268
						c-7.964,2.152-15.263,6.777-22.947,11.279c-7.673,4.498-15.734,8.872-24.952,10.426c-6.17,1.035-11.655-1.934-16.203,1.292
						c-0.334,1.95-2.62,3.572-4.934,5.188c-6.197,0.892-12.526-0.335-18.435-1.036c-5.916-0.7-11.416-0.868-16.135,2.167
						c-3.339,1.304-9.897-5.796-15.602-12.552c-5.723-6.749-10.629-13.151-11.336-10.247c-5.191,21.215-1.48,5.858-16.962,3.696
						c-1.852-0.493-8.196,8.051-11.979,6.977c-6.303-2.862-10.423-2.563-14.864-1.324c-4.434,1.23-9.181,3.408-16.605,4.124
						c-11.14,2.632-17.677,0.343-23.899-1.1c-6.25-1.46-12.172-2.073-22.684,3.424c-1.265,0.582-9.748,2.063-17.984,3.201
						c-8.229,1.159-16.204,1.982-16.204,1.982c-11.701-2.986-21.664-2.766-30.693-4.169c-8.997-1.403-17.067-4.443-24.16-14.027
						c-12.017,3.597-24.104-0.521-35.542-6.319c-11.49-5.803-22.279-13.259-33.18-16.391c-10.938-3.16-17.465-8.374-22.794-14.76
						c-5.324-6.408-9.5-14.013-15.587-22.521c-4.017-3.832-7.979-4.979-9.193-9.042c-0.602-2.036-3.54-2.227-6.825-2.463
						c-3.28-0.229-6.914-0.515-8.755-2.563l4.236-4.174c-1.221-1.349-3.589-4.045-4.761-5.393c-1.159-1.375,0.287-2.73,1.715-4.099
						c2.871-2.733,5.668-5.507,4.896-9.514c-3.842-6.565-7.857-12.629-12.035-18.198c-7.013-1.825-14.064-3.56-21.042-5.095
						c-2.081,1.688-4.212,3.322-6.344,4.267l-6.95-0.789c-4.91,3.249-9.215,7.846-12.557,9.949
						c-5.941,5.649-13.302,9.638-20.6,13.306c-7.25,3.74-14.601,6.892-19.585,12.633c-0.676,0.9-0.543,2.498,0.002,4.432
						c0.541,1.932,1.494,4.204,2.538,6.647c2.08,4.894,4.556,10.447,4.54,15.695c-0.406,2.885-6.838,4.185-12.106,7.165
						c3.554,3.377,4.403,6.22,3.554,8.467c-0.851,2.234-3.416,3.831-6.735,4.398l2.871,3.871c-1.713,1.074-6.919,4.195-6.925,4.188
						c7.255,11.372,14.542,23.976,23.417,34.702c8.833,10.705,19.207,19.477,31.55,22.673c4.987,1.913,14.658,2.46,21.014,2.617
						c3.156,0.108,7.044,6.019,8.852,7.503c5.976-2.879,8.325-8.738,12.429-13.145c6.221,6.455,16.734,15.902,26.799,20.969
						c10.055,5.1,19.363,5.86,22.64-4.002c6.066,2.916,10.616,2.294,15.249,1.433c4.644-0.87,9.376-1.979,15.999-0.237
						c17.665,4.31,39.887,9.59,61.843,13.888c12.21,1.448,23.587,4.183,35.213,6.316l12.603,1.97
						c21.831,3.122,42.127,6.218,61.746,8.966c19.612,2.74,38.542,5.117,57.46,6.538c18.917,1.41,37.8,1.872,57.272,0.564
						c19.458-1.314,39.488-4.414,60.353-10.293c42.042-11.843,84.411-21.735,125.459-31.504
						c41.025-9.719,80.733-19.342,116.813-29.34c36.063-9.945,68.466-20.254,94.451-29.948
						c25.976-9.648,45.546-18.672,55.772-24.899l3.38-7.169l1.737-3.705l0.931-1.935c0.18-0.345,0.298-0.64,0.554-1.051l0.202-0.244
						l0.097-0.119l0.037-0.068l0.147-0.275L1279.336,1559.997z"/>
				</g>
			</g>
		</g>
	</g>
</g>
<g>
	<path fill="#FFFFFF" d="M569.5,1817.5c0,0,50.327,20.074,100.833,13C781,1815,823.72,1705.618,823.72,1705.618
		S725.56,1634.405,654,1624c-84.25-12.25-142.125-152-221-152s-85.97,83.97-85.97,83.97s-63.401,107.59,10.479,238.732
		c39.004,69.235-85.783-3.438-85.783,113.099"/>
	<g>
		<g opacity="0.8">
			<path fill="#232323" d="M254.804,1907.801c0.92-5.188,1.897-11.929,3.711-19.922c1.846-7.959,4.472-17.307,9.676-26.971
				c2.603-4.806,5.898-9.646,9.991-14.067c4.079-4.427,8.958-8.376,14.277-11.526c5.318-3.165,11.031-5.537,16.768-7.298
				c5.743-1.766,11.523-2.942,17.165-3.857l4.205-0.646l2.841-0.356c1.895-0.233,3.817-0.464,5.754-0.743
				c1.936-0.281,3.889-0.604,5.821-1.079c1.924-0.479,3.852-1.1,5.563-2.128c1.711-1.008,3.119-2.567,3.707-4.428
				c0.613-1.852,0.551-3.822,0.25-5.692c-0.647-3.764-2.15-7.292-3.764-10.69l-2.511-5.049l-2.996-6.213
				c-2.099-4.458-4.012-8.817-5.738-13.028c-3.453-8.423-6.147-16.247-8.149-23.065c-6.642-20.865-9.207-37.43-10.251-49.805
				c-0.207-2.612-0.181-3.066-0.003-1.703c0.185,1.363,0.531,4.543,1.173,9.186c1.276,9.273,3.81,24.443,9.082,42.322
				c2.538,7.922,5.681,16.451,9.615,25.527c1.964,4.531,4.136,9.229,6.504,14l1.491,2.997l1.414,2.771
				c0.962,1.849,1.886,3.744,2.711,5.71c-0.682-2.463-1.624-4.933-2.617-7.494l-1.528-4.037l-1.884-4.867
				c-2.459-6.512-4.616-12.926-6.459-19.12c-3.698-12.388-6.116-23.884-7.553-33.506c-3.737-13.671-6.354-27.792-7.665-42.259
				c-2.151-23.22-1.096-46.397,3.086-68.851c2.092-11.225,4.958-22.271,8.621-33.019c1.833-5.372,3.865-10.671,6.116-15.858
				c1.126-2.593,2.308-5.159,3.553-7.681l4.171-8.184c0.208-1.275,0.458-2.558,0.726-3.846l0.281-1.616l0.273-1.406
				c0.189-0.938,0.393-1.874,0.607-2.809c0.43-1.869,0.908-3.73,1.432-5.578c1.048-3.696,2.275-7.342,3.685-10.906
				c2.82-7.125,6.366-13.94,10.708-20.127c3.132-4.441,7.548-9.937,13.378-14.952c5.8-5.033,13.055-9.47,20.95-12.312
				c7.877-2.892,16.295-4.225,23.964-4.429c1.918-0.056,3.791-0.053,5.601,0.014c1.768,0.053,3.4,0.19,4.988,0.389
				c3.159,0.394,5.989,1.035,8.392,1.748c-2.611-0.586-5.242-1.013-7.883-1.262c-2.644-0.261-5.247-0.3-8.084-0.243
				c-5.554,0.118-11.049,0.706-16.377,1.862c-10.664,2.277-20.621,6.94-28.958,13.847c-8.362,6.877-15.084,15.868-20.118,25.856
				c-2.523,4.995-4.642,10.242-6.375,15.63c-0.866,2.693-1.636,5.424-2.305,8.175c-0.333,1.375-0.644,2.756-0.925,4.138l-0.4,2.072
				l-0.183,1.034l-0.217,1.365c-0.297,1.376-0.58,2.746-0.822,4.104c-0.334,0.757-0.713,1.508-1.059,2.273
				c-0.358,0.762-0.681,1.544-1.099,2.284l-0.988,1.931l-0.882,1.79c-1.163,2.399-2.271,4.846-3.331,7.317
				c-2.119,4.946-4.041,10.001-5.783,15.122c-3.482,10.245-6.242,20.761-8.288,31.418c-4.094,21.316-5.301,43.21-3.567,64.898
				c-0.063-2.489-0.062-4.967,0.009-7.406c-0.709-20.47,1.2-40.969,5.638-60.839c2.22-9.933,5.064-19.713,8.542-29.22
				c1.74-4.751,3.638-9.436,5.705-14.009c1.034-2.285,2.11-4.545,3.23-6.754l0.848-1.646l1.019-1.915
				c0.437-0.731,0.712-1.534,1.082-2.289l1.042-2.276c0.3-1.424,0.639-2.867,0.993-4.321l0.247-1.464l0.198-1.02l0.429-2.046
				c0.3-1.365,0.631-2.729,0.984-4.087c0.708-2.718,1.521-5.412,2.424-8.065c2.359-7.339,5.57-14.474,9.871-20.989
				c-4.055,6.453-7.333,13.564-9.871,20.989c-0.855,2.681-1.599,5.393-2.225,8.121c-0.312,1.364-0.597,2.732-0.85,4.101
				l-0.356,2.049l-0.159,1.02l-0.211,1.488c-0.323,1.478-0.633,2.949-0.905,4.406l-1.361,3.266l-0.337,0.831l-0.405,0.805
				l-0.688,1.405c-0.731,1.536-1.442,3.109-2.133,4.704c-1.381,3.192-2.681,6.476-3.915,9.832
				c-2.463,6.717-4.662,13.729-6.64,21.087c-1.968,6.758-3.982,14.052-5.629,21.458c-1.653,7.402-2.937,14.914-3.604,21.989
				c-1.195,11.518-2.646,22.203-2.962,33.39c0.244,7.166,0.807,14.33,1.685,21.464c0.437,2.057,0.901,4.256,1.34,6.514
				c0.007-0.082,0.015-0.234,0.036-0.294c1.007-5.872-0.7-28.006,3.063-55.622c1.84-13.783,5.037-28.882,9.804-43.716
				c2.375-7.414,5.126-14.766,8.204-21.815c1.538-3.523,3.158-6.972,4.845-10.283c0.843-1.654,1.703-3.275,2.572-4.833l0.758-1.36
				c0.358-0.707,0.835-1.361,1.081-2.115l1.756-4.312l1.523-5.17l0.223-1.292l0.108-0.581l0.073-0.333l0.306-1.341
				c0.211-0.896,0.435-1.792,0.67-2.683c0.47-1.783,0.984-3.546,1.533-5.27c1.099-3.45,2.334-6.746,3.661-9.831
				c2.652-6.179,5.676-11.494,8.695-15.829c6.056-8.709,11.997-13.42,15.069-15.951c3.496-2.821,7.106-5.353,11.059-7.613
				c3.949-2.253,8.253-4.21,12.991-5.729c2.365-0.766,4.841-1.401,7.413-1.926c1.289-0.25,2.598-0.487,3.936-0.67
				c0.667-0.101,1.343-0.177,2.021-0.259c0.667-0.08,1.244-0.143,1.877-0.195c4.969-0.415,10.291,0.035,15.79,1.604
				c3.679,1.049,6.919,2.69,9.929,4.304c3.017,1.619,5.82,3.21,8.811,4.324c0.924-0.349,3.942,0.797,6.971,2.144
				c7.105,4.557,13.456,10.504,19.36,16.22c5.915,5.728,11.435,11.248,17.125,15.253c3.768,3.037,8.112,11.598,11.85,19.445
				c3.742,7.841,6.997,14.966,8.572,14.926c5.741-0.149,6.523-0.174,7.824,2.015c1.323,2.185,3.075,6.6,11.198,15.297
				c1.902,2.185,11.035,6.28,15.063,10.506c6.507,7.48,11.624,11.589,17.371,15.479c2.886,1.939,5.948,3.822,9.554,5.978
				c3.612,2.15,7.759,4.584,12.97,7.48c7.912,4.013,14.496,7.01,20.384,9.446c5.893,2.424,11.097,4.295,16.364,5.697
				c2.634,0.695,5.285,1.269,8.046,1.679c2.173,0.321,4.313,0.631,6.684,0.943c4.715,0.624,10.109,1.198,17.017,1.82
				c0.833,0.091,4.071,0.703,8.469,1.74c4.397,1.032,9.949,2.523,15.382,4.17c10.875,3.262,21.23,7.182,21.228,7.174
				c15.43,7.611,28.164,13.487,39.67,19.721c11.479,6.258,21.707,12.935,31.463,22.714c1.1,0.468,2.202,0.961,3.306,1.478
				l2.519,1.097c1.626,0.737,3.298,1.583,4.983,2.51c3.37,1.856,6.793,4.026,10.057,6.351c0.768,0.248,0.207,0.887,0.034,1.401
				l-0.725,1.598c-0.5,1.063-1.029,2.123-1.581,3.176c-1.103,2.105-2.292,4.181-3.528,6.2c-1.237,2.019-2.521,3.981-3.825,5.873
				l-2.491,3.64c-0.893,1.285-1.797,2.56-2.71,3.821c-7.309,10.112-15.189,19.408-22.415,27.924
				c-5.195,6.12-10.161,10.871-14.95,14.781c-4.795,3.906-9.418,6.974-14.101,9.635c-4.687,2.656-9.437,4.908-14.589,7.053
				c-5.155,2.139-10.713,4.175-17.093,6.219c-7.076,2.734-12.247,5.101-16.771,5.455c-2.26,0.175-5.631,1.849-9.483,3.538
				c-3.839,1.696-8.175,3.396-11.967,3.827l1.385-2.643c-2.495,0.339-7.463,0.808-9.964,0.953c-2.443,0.136-1.919-0.727-1.435-1.563
				c0.991-1.705,1.872-3.358-2.286-3.998c-9.752-0.173-19.887-1.139-30.352-2.743c-10.499,0.273-21.238-0.222-31.902-1.272
				c-0.847,0.888-1.8,1.751-3.476,2.218c-3.246-0.228-6.492-0.512-9.715-0.874c-2.508,1.663-2.626,4.255-4.343,5.346
				c-0.959,3.137-5.261,5.188-9.282,7.126c-3.987,1.974-7.775,3.748-7.248,7.186c0.473,1.141,5.495,3.636,11.584,6.26
				c6.071,2.654,13.184,5.411,17.467,7.953c1.938,1.422-3.521,2.373-6.238,4.075c6.13,1.504,9.284,2.757,10.205,3.866
				c0.92,1.097-0.404,2.02-3.213,2.506c2.919,0.832,5.856,1.585,5.857,1.585c-0.879,0.624-3.581,2.447-3.585,2.444
				c15.837,4.692,33.301,8.938,51.787,10.008c4.612,0.266,9.276,0.328,13.958,0.145c4.673-0.176,9.441-0.635,13.849-1.281
				c8.953-1.303,17.649-3.529,25.663-6.689c3.473-1.233,7.974-3.261,12.41-5.595c4.443-2.327,8.813-4.959,12.222-7.155
				c1.705-1.089,4.684-2.279,7.592-3.428c2.909-1.143,5.749-2.241,7.208-2.939c3.868-4.612,1.854-6.396,2.679-9.569
				c5.464-2.594,12.372-6.288,19.317-10.811c6.954-4.505,13.928-9.83,19.768-15.168c5.851-5.329,10.576-10.638,13.345-14.847
				c2.771-4.217,3.616-7.292,1.787-8.334c6.222-7.096,8.896-12.184,11.448-17.358c1.266-2.599,2.484-5.237,4.002-8.258
				c0.758-1.511,1.591-3.116,2.535-4.865l1.503-2.738l1.747-3.08c6.646-11.564,13.015-24.75,17.129-38.03
				c-5.136-3.589-10.332-7.186-15.642-10.816c-5.323-3.608-10.855-7.209-16.375-10.707c-7.968-5.003-16.156-9.959-24.401-14.752
				c-14.71-8.104-28.795-16.03-43.503-23.301c-5.503-2.676-10.908-5.185-16.103-7.49c-14.097-6.203-28.095-11.648-42.339-15.891
				c-7.124-2.115-14.317-3.916-21.642-5.254l-5.179-0.88c-1.437-0.254-2.865-0.554-4.284-0.896
				c-2.839-0.683-5.641-1.536-8.403-2.535c-11.059-4.008-21.404-10.337-31.116-17.683c-9.723-7.369-18.854-15.762-27.771-24.564
				c-17.864-17.636-34.762-36.984-54.408-55.92c-9.856-9.438-20.418-18.831-32.628-27.317c-6.11-4.227-12.651-8.208-19.766-11.63
				c-7.11-3.409-14.824-6.259-23.079-7.95c-6.822-1.407-14.012-2.018-20.981-1.642c-6.679,0.325-13.412,1.208-20.047,2.774
				c-6.632,1.566-13.164,3.854-19.336,6.91c-6.177,3.046-11.975,6.869-17.186,11.302c-10.46,8.883-18.388,20.087-24.065,31.904
				c-2.851,5.921-5.174,12.021-7.047,18.215c-0.935,3.099-1.759,6.221-2.469,9.369c-0.354,1.575-0.683,3.155-0.979,4.745
				l-0.423,2.395l-0.194,1.204l-0.125,0.852c-0.122,0.872-0.233,1.747-0.31,2.625c-0.512,0.972-1.042,1.948-1.531,2.939
				l-0.946,1.924l-0.976,2.057c-1.279,2.744-2.48,5.499-3.622,8.267c-2.281,5.536-4.323,11.124-6.163,16.75
				c-3.677,11.252-6.543,22.653-8.656,34.085c-4.23,22.862-5.381,45.841-3.801,67.984c1.563,22.153,5.854,43.442,11.999,63.192
				c3.068,9.881,6.592,19.385,10.439,28.475c1.923,4.545,3.928,8.987,5.997,13.323l0.717,1.505l0.43,0.949l0.856,1.859
				c0.574,1.221,1.136,2.412,1.625,3.606c0.978,2.384,1.774,4.743,2.063,7.116c0.136,1.184,0.134,2.379-0.152,3.521
				c-0.277,1.141-0.894,2.206-1.782,3.004c-1.808,1.605-4.233,2.2-6.431,2.62c-2.235,0.4-4.399,0.58-6.445,0.745
				c-2.297,0.209-3.029,0.104-7.878,0.84c-3.957,0.58-7.958,1.281-11.946,2.201c-7.965,1.825-15.939,4.591-23.181,8.653
				c-7.25,4.024-13.618,9.347-18.519,15.056c-4.931,5.712-8.459,11.679-11.042,17.18c-2.582,5.52-4.267,10.614-5.492,15.116
				c-1.22,4.508-1.967,8.44-2.486,11.775C253.176,1895.125,253.838,1901.564,254.804,1907.801z"/>
		</g>
	</g>
</g>
<g>
	<path fill="#FFFFFF" d="M263.727,1928.801c48.157,23.043,117.851,24.926,162.697,22.953c101.094-4.445,92.045-5.297,153.845-35.313
		c0-70.628-40.611-33.548-40.611-72.394c0-38.845,50.593-14.48,8.066-155.047"/>
	<g>
		<g opacity="0.8">
			<path fill="#1F1F1F" d="M563.921,1684.1c-1.049,9.1,2.256,27.289,4.85,46.741c1.298,9.722,2.395,19.771,2.726,29.066
				c0.355,9.284-0.133,17.829-1.399,24.222c-1.359,9.893-4.296,17.353-7.465,22.201c-0.668,1.023-0.836,1.167-0.548,0.604
				c0.282-0.567,1.009-1.854,1.955-3.809c0.942-1.953,2.085-4.588,3.161-7.805c1.079-3.214,2.087-7.005,2.898-11.191
				c1.062-7.518,1.297-16.395,0.67-26.637c-0.799,6.52-1.915,12.871-3.379,18.564c-1.453,5.696-3.276,10.715-5.206,14.604
				c-1.151,5.991-3.214,11.823-6.509,16.993c-1.786,2.861-3.876,5.496-6.122,8.104c-2.235,2.613-4.643,5.225-6.813,8.244
				c-2.19,3.025-4.015,6.5-5.082,10.165c-0.545,1.833-0.925,3.725-1.165,5.621c-0.239,1.874-0.337,3.764-0.344,5.598
				c-0.002,3.691,0.277,7.552,1.672,11.5c0.703,1.961,1.735,3.927,3.127,5.662c1.383,1.741,3.096,3.194,4.839,4.336
				c3.523,2.281,7.009,3.523,10.008,4.923c1.561,0.711,2.746,1.324,4.015,2.09c1.237,0.755,2.41,1.603,3.471,2.572
				c1.538,1.399,3.329,3.438,4.74,6.033c1.435,2.609,2.448,5.521,3.243,9.09c1.353,6.338,1.214,12.456,0.554,15.778
				c-0.037-3.753-0.251-7.556-0.84-11.349c-0.148-0.948-0.318-1.895-0.52-2.837l-0.157-0.706l-0.193-0.796
				c-0.136-0.536-0.279-1.067-0.43-1.591c-0.152-0.522-0.313-1.037-0.48-1.546c-0.164-0.482-0.325-0.943-0.498-1.393
				c-0.348-0.906-0.737-1.799-1.177-2.668c-1.735-3.489-4.481-6.508-7.913-8.459c-0.85-0.498-1.729-0.945-2.626-1.359l-0.685-0.308
				l-0.797-0.342l-1.679-0.687c-2.307-0.937-4.938-1.896-7.792-3.44c-1.419-0.776-2.889-1.716-4.287-2.886
				c-1.396-1.164-2.702-2.561-3.773-4.086c-2.173-3.073-3.315-6.463-3.931-9.566c-0.613-3.131-0.761-6.096-0.734-8.954
				c0.012-1.445,0.088-2.933,0.243-4.422c0.154-1.493,0.398-3.048,0.731-4.54c0.667-3.006,1.728-5.916,3.151-8.634
				c0.702-1.348,1.522-2.699,2.341-3.906c0.823-1.218,1.681-2.36,2.538-3.445c3.466-4.319,6.74-7.804,9.248-11.641
				c-0.664,0.757-1.372,1.478-2.119,2.158c-1.533,1.904-3.24,3.775-5.069,5.802c-1.821,2.027-3.779,4.23-5.615,6.825
				c-1.878,2.647-3.513,5.632-4.657,8.763c-0.579,1.569-1.046,3.184-1.41,4.825c-0.365,1.645-0.622,3.327-0.785,4.919
				c-0.168,1.62-0.241,3.197-0.266,4.745c-0.025,1.567,0.023,3.184,0.168,4.854c0.309,3.325,0.998,6.989,2.85,10.743
				c0.921,1.86,2.153,3.698,3.613,5.303c1.457,1.609,3.108,2.965,4.73,4.055c3.273,2.178,6.296,3.401,8.791,4.509
				c3.657,1.427,5.55,2.323,7.555,4.081c-2.066-1.579-3.879-2.493-7.555-4.081c-2.258-0.891-4.908-1.825-7.887-3.423
				c-1.481-0.802-3.038-1.789-4.538-3.025c-1.5-1.231-2.925-2.711-4.122-4.33c-2.428-3.26-3.842-6.876-4.665-10.201
				c-0.825-3.354-1.134-6.541-1.207-9.647c0.025-1.935,0.211-4.036,0.597-6.197c0.391-2.217,0.985-4.424,1.768-6.548
				c0.781-2.125,1.751-4.163,2.84-6.075c1.078-1.903,2.321-3.744,3.427-5.282c1.887-2.529,3.948-4.388,5.896-6.012
				c1.955-1.623,3.836-3.032,5.54-4.601c1.834-2.268,3.427-4.591,4.773-7.091c0.23-0.806,0.472-1.661,0.763-2.519
				c-0.031,0.021-0.083,0.063-0.121,0.072c-1.042,0.53-2.476,1.92-4.397,3.693c-1.933,1.808-4.327,3.86-7.591,6.572
				c-1.631,1.378-3.507,2.956-5.604,5.028c-1.045,1.037-2.142,2.203-3.247,3.533c-0.542,0.649-1.12,1.394-1.68,2.169
				c-0.557,0.771-1.096,1.568-1.612,2.393c-2.068,3.294-3.732,7.033-4.833,11.054c-0.276,1.005-0.521,2.026-0.73,3.062
				c-0.209,1.021-0.379,1.991-0.525,2.979c-0.146,0.982-0.261,1.956-0.354,2.921c-0.09,0.938-0.165,1.852-0.214,2.818
				c-0.177,3.835-0.092,8.122,1.235,13.161c0.669,2.501,1.702,5.195,3.227,7.828c1.509,2.631,3.523,5.141,5.683,7.174
				c2.159,2.041,4.395,3.61,6.386,4.822c1.998,1.212,3.766,2.098,5.277,2.835l3.833,1.832l1.429,0.717l0.602,0.322
				c0.161,0.094,0.224,0.145,0.331,0.217c1.551,1.049,2.653,2.199,3.382,3.239c0.737,1.033,1.168,1.889,1.567,2.356
				c0.305,0.396,0.621,0.729,1.013,1.172c0.42,0.519,0.946,1.28,1.457,2.012l0.392,0.577c0.142,0.22,0.223,0.257,0.343,0.391
				c0.221,0.226,0.449,0.46,0.674,0.707c0.46,0.491,0.921,1.029,1.38,1.621c1.825,2.321,3.535,5.708,3.896,9.277
				c0.04,0.389,0.035,0.748-0.001,1.083c-0.028,0.16-0.016,0.344-0.093,0.469l-0.549,0.168c-1.5,0.444-2.832,0.706-3.211,1.757
				c0.492,0.614,0.153,1.429-0.288,2.3c-1.051,0.627-2.26,1.104-3.453,1.494c-0.597,0.195-1.193,0.368-1.773,0.534l-0.432,0.122
				l-0.223,0.065l-0.338,0.122l-1.335,0.489c-3.524,1.315-6.709,2.725-8.904,5.077c-1.685,1.353-6.533,0.464-10.746-0.631
				c-4.235-1.076-7.772-2.396-7.702-1.173c0.239,4.487,0.224,5.112-0.862,4.911c-1.097-0.217-3.271-1.189-7.402-0.284
				c-0.515,0.063-1.309,1.167-2.283,2.269c-0.969,1.102-2.126,2.2-3.208,2.267c-3.73-0.202-5.98,0.407-8.397,1.416
				c-2.417,0.995-4.981,2.371-9.378,3.385c-6.484,2.114-10.756,1.768-14.749,1.749c-4.017-0.03-7.82,0.234-13.856,3.3
				c-1.436,0.709-20.753,5.174-20.772,5.152c-7.652-0.02-13.805,1.125-19.57,1.6c-5.708,0.474-11.042,0.21-16.975-2.678
				c-6.733,2.727-14.712,2.493-22.716,1.537c-8.018-0.95-16.042-2.628-23.242-2.638c-7.213-0.021-12.229-1.324-16.883-3.236
				c-4.655-1.919-8.967-4.443-14.75-7.164c-3.369-1.094-6.008-1.15-7.799-2.644c-1.778-1.481-7.211,0.834-10.492-0.472l1.32-2.089
				l-4.292-1.729c-1.067-0.446-0.607-1.139-0.162-1.825c0.905-1.384,1.771-2.761,0.146-4.333c-4.207-2.335-8.437-4.511-12.688-6.549
				l-14.093-0.702c-0.626,0.895-1.294,1.771-2.204,2.34c-1.457,0.034-2.923,0.069-4.375,0.062c-1.663,1.807-2.423,4.221-3.558,5.414
				c-1.31,3.001-3.989,5.359-6.57,7.645c-2.571,2.29-5.041,4.537-5.631,7.571c-0.09,0.916,1.881,2.504,4.255,4.354
				c2.368,1.862,5.148,3.95,6.561,6.146c0.574,1.242-2.308,2.427-4.092,4.206c5.253,2.043,4.752,4.474,1.788,5.655l2.413,1.296
				l-2.339,2.441c6.447,3.913,13.288,8.258,20.414,11.58c7.113,3.323,14.486,5.618,21.664,5.49c3.039,0.192,8.25-0.681,11.669-1.334
				c1.706-0.313,5.082,1.551,6.363,1.917c2.568-1.788,2.565-4.331,3.825-6.501c4.799,1.815,12.499,4.267,19.022,5.081
				c6.524,0.826,11.799,0.064,11.726-4.1c7.911,0.851,9.678-2.933,17.849-3.053c10.843-0.324,24.526-0.776,37.978-1.566
				c1.836-0.202,3.654-0.365,5.46-0.508c1.8-0.141,3.542-0.252,5.304-0.347l10.514-0.471l7.583-0.45
				c12.648-0.81,24.54-1.205,36.204-1.787c11.644-0.617,23.209-1.334,35.134-3.858c5.934-1.258,11.853-3.016,17.454-5.134
				c5.614-2.115,10.912-4.531,16.043-7.082c2.568-1.278,5.098-2.595,7.615-3.948l8.423-4.617c7.28-3.991,14.543-8.053,21.487-12.156
				c0.619-0.859,0.262-2.36,0.188-3.669l-0.38-3.991c-0.478-4.521-0.924-8.906-1.616-13.238c-0.685-4.325-1.554-8.575-2.735-12.686
				c-0.293-1.004-0.623-2.095-0.936-3.002c-0.302-0.896-0.637-1.795-0.98-2.692c-0.36-0.911-0.707-1.768-1.132-2.724
				c-0.417-0.944-0.871-1.907-1.351-2.833c-1.911-3.723-4.309-7.164-7.241-10.06c-2.922-2.905-6.376-5.21-10.062-6.933
				c-1.8-0.856-3.856-1.65-5.42-2.204l-4.549-1.595c-1.373-0.499-2.573-0.995-3.547-1.509c-0.973-0.517-1.712-1.033-2.288-1.594
				c-0.58-0.562-1.041-1.184-1.451-1.995c-0.407-0.805-0.746-1.791-0.996-2.91c-0.504-2.219-0.644-5.006-0.54-7.669
				c0.121-2.638,0.526-4.893,1.334-7.151c0.401-1.112,0.898-2.183,1.474-3.199c0.574-1.015,1.21-1.958,1.995-3.007
				c1.538-2.051,3.481-4.18,5.56-6.539c2.076-2.354,4.262-4.952,6.24-7.795c1.986-2.837,3.754-5.903,5.206-9.044
				c2.922-6.303,4.603-12.775,5.663-18.926c1.055-6.171,1.512-12.096,1.72-17.757c0.202-5.663,0.135-11.069-0.049-16.225
				c-0.384-10.307-1.229-19.616-2.111-27.845c-1.815-16.443-3.766-28.579-5.126-34.979L563.921,1684.1z"/>
		</g>
	</g>
</g>
<g>
	<g opacity="0.8">
		<path fill="#1F1F1F" d="M926.271,1536.51c-1.846,0.729-3.56,1.678-5.24,2.564c-1.675,0.903-3.29,1.82-4.85,2.744
			c-3.12,1.849-6.018,3.728-8.72,5.623c-5.404,3.791-10.019,7.65-14.016,11.526c-7.992,7.754-13.506,15.576-17.874,23.129
			c-8.74,15.135-12.875,29.063-23.18,39.575c-0.944,1.591-1.936,3.037-3.023,4.3c-0.546,0.628-1.12,1.197-1.74,1.688
			c-0.31,0.247-0.629,0.479-0.974,0.662l-4.022,2.172l-5.172,2.857c-6.601,3.708-12.032,6.992-16.213,9.853
			c-4.1,2.771-7.049,5.223-8.044,6.741c-0.248,0.383-0.337,0.674-0.332,0.775c0.01,0.109,0.024-0.011-0.206-0.174
			c-0.117-0.09-0.262-0.174-0.442-0.249c-0.213-0.114-0.388-0.155-0.65-0.247c-0.267-0.095-0.522-0.156-0.806-0.215
			c-0.32-0.084-0.642-0.15-0.963-0.2l-1.083-0.17l-1.158-0.128c-0.425-0.05-0.849-0.088-1.271-0.115l-0.635-0.033l-0.71-0.019
			c-0.472-0.006-0.942,0.001-1.408,0.019c-0.238,0.001-0.454,0.041-0.708,0.017l-0.772-0.093l-1.533-0.184l-0.76-0.091l-0.189-0.022
			l-0.023-0.003c3.474-0.04-30.36,0.371-16.034,0.179l0.011-0.072l0.022-0.143l0.096-0.571c0.114-0.64,0.242-1.239,0.377-1.8
			c0.134-0.52,0.271-0.957,0.41-1.39c0.138-0.423,0.279-0.828,0.415-1.177c0.132-0.314,0.26-0.604,0.384-0.867
			c0.246-0.519,0.479-0.973,0.669-1.271c0.188-0.287,0.348-0.496,0.476-0.633c0.256-0.273,0.381-0.258,0.38,0.022
			c-0.001,0.296-0.118,0.772-0.353,1.753c-0.215,0.903-0.553,2.239-0.818,4.24c-0.065,0.52-0.123,1.068-0.168,1.644l-0.017,0.217
			l-0.004,0.054c-12.641,0.191,17.216-0.227,14.15-0.185l0.019,0.002l0.077,0.009l0.312,0.038l0.643,0.077l1.362,0.163
			c0.464,0.046,0.984,0.153,1.415,0.094c1.839-0.108,3.878,0.078,5.561,0.301l1.241,0.204c0.196,0.039,0.393,0.084,0.591,0.137
			c0.181,0.039,0.337,0.07,0.507,0.12c0.698,0.211,1.193,0.412,1.448,0.633c0.264,0.225,0.061,0.272,0.209-0.129
			c0.133-0.361,0.563-1.003,1.24-1.689c1.361-1.42,3.667-3.236,6.851-5.419c3.186-2.182,7.258-4.724,12.188-7.581l3.858-2.203
			l4.178-2.319c2.043-1.127,1.521-0.818,1.815-0.995l0.492-0.313c2.599-1.803,5.425-4.817,8.833-8.271
			c2.834-4.832,5.271-10.808,7.961-17.882c-11.467,8.167-22.818,16.335-33.526,24.251c-10.693,7.939-20.794,15.542-29.457,23.098
			c0.146,1.2,0.293,2.438,0.57,3.871c0.144,0.722,0.312,1.484,0.609,2.403c0.071,0.226,0.154,0.466,0.259,0.73
			c0.088,0.243,0.218,0.537,0.35,0.829c0.298,0.615,0.607,1.26,1.363,2.28l0.283,0.372l0.394,0.462l0.407,0.452
			c0.178,0.184,0.4,0.397,0.605,0.589c0.215,0.199,0.415,0.38,0.655,0.581c0.331,0.267,0.672,0.522,1.022,0.768l0.532,0.357
			l0.341,0.209l0.425,0.242c0.572,0.316,1.166,0.602,1.77,0.852c0.113,0.05,0.415,0.162,0.628,0.237l0.708,0.232
			c0.477,0.145,0.962,0.27,1.45,0.372c0.8,0.19,2.402,0.385,3.746,0.336c0.707-0.021,1.355-0.07,2.086-0.183
			c0.763-0.119,1.532-0.294,2.286-0.522s1.491-0.51,2.192-0.834c0.637-0.297,1.217-0.614,1.806-0.98
			c1.142-0.694,2.349-1.72,2.907-2.287c0.686-0.668,1.361-1.458,1.887-2.183c0.373-0.509,0.723-1.043,1.043-1.594
			c0.157-0.269,0.32-0.567,0.451-0.822l0.277-0.551c0.179-0.371,0.347-0.749,0.502-1.132l0.337-0.869
			c0.187-0.503,0.375-1.119,0.47-1.421c0.111-0.354,0.229-0.793,0.308-1.087l0.219-0.843c0.129-0.523,0.229-0.896,0.328-1.367
			l0.135-0.687l0.062-0.33l0.054-0.094l0.109-0.187l0.027-0.047l0.007-0.012l0.003-0.006l0.002-0.012
			c3.349,0.055-29.157-0.267-15.395-0.267h0.038l0.148,0.012c0.201,0.012,0.432,0.048,0.714,0.102
			c0.552,0.11,1.195,0.325,1.961,0.64c1.526,0.631,3.33,1.669,5.362,3.045c1.122,0.757,2.269,1.606,3.495,2.55
			c0.579,0.463,1.243,0.969,1.846,1.475l0.953,0.785c0.276,0.228,0.784,0.662,0.679,0.576c0.232,0.187,0.531,0.287,0.864,0.354
			c0.672,0.125,1.469,0.115,2.315,0.064c1.701-0.111,3.586-0.391,5.512-0.688c3.871-0.606,7.938-1.329,12.169-1.791
			c8.476-0.926,17.695-0.879,28.532,2.86c4.067,1.625,8.994,1.413,14.249,2.091c5.25,0.673,10.797,2.25,15.936,7.311
			c-11.202,1.422-22.737,3.527-33.782,5.991c-5.5,1.223-10.916,2.565-15.748,3.792c-2.397,0.598-4.661,1.188-6.412,1.487
			c-0.865,0.138-1.599,0.209-1.989-0.005c-0.027-0.012-0.05-0.026-0.067-0.045l-0.029-0.026l-0.015-0.014l-0.007-0.007l-0.059-0.063
			c-1.109-1.226-2.208-2.425-3.318-3.609c-2.166-2.343-4.369-4.617-6.454-6.741c-1.084-1.08-2.076-2.096-3.141-3.116
			c-0.995-0.991-2.067-1.986-3.039-2.913c-2.025-1.885-3.942-3.612-5.813-5.188c3.216,2.725,6.717,5.955,10.254,9.474
			c4.356,4.338,9.004,9.254,13.701,14.525l1.834,2.055c0.116,0.102,0.213,0.215,0.338,0.309c0.237,0.195,0.486,0.379,0.762,0.545
			c1.086,0.672,2.403,1.176,3.814,1.638c2.836,0.909,6.039,1.642,9.335,2.384c6.62,1.463,13.639,2.918,20.632,4.55
			c1.775-0.523,4.061-0.218,7.278,1.78c-2.424-0.613-4.852-1.205-7.278-1.78c-4.581,1.527-5.172,9.441-7.943,12.777
			c-1.535-0.032-4.236-1.804-6.879-3.576c-2.632-1.78-5.228-3.543-6.288-3.761c-1.159-0.584-3.611-3.173-6.444-6.404l-3.681-4.279
			c-2.21-2.562-4.418-5.057-6.567-7.451c-4.32-4.801-8.569-9.283-12.615-13.311c-5.248-5.197-10.176-9.621-14.515-12.871
			c-4.257-3.249-8.164-5.274-10.126-5.488c-0.147-0.018-0.278-0.043-0.386-0.043h-0.09h-0.022h-0.012h-0.005
			c96.267,1,26.412,0.539,48.412,0.869V1650h-0.237l0.003-0.119l0.051-0.031l0.199,0.087l0.193,0.103l0.094,0.053
			c0.031,0.027,0.063-0.021,0.088,0.219c0.108,0.695,0.199,1.397,0.272,2.108c0.074,0.72,0.126,1.401,0.161,2.11l0.037,1.063
			l-0.047,1.45l-0.095,1.458l-0.045,0.443l-0.063,0.517l-0.144,1.034c-0.107,0.701-0.215,1.351-0.362,2.093
			c-0.215,1.014-0.461,2.025-0.738,3.03c0.349-0.496,0.918-1.464,1.283-1.791l0.499-0.681l0.248-0.351l0.217-0.234
			c0.29-0.315,0.581-0.648,0.871-1c0.581-0.699,1.162-1.475,1.733-2.312c0.525-0.571,1.05-1.192,1.571-1.866
			c0.26-0.337,0.519-0.687,0.777-1.049c0.253-0.328,0.491-0.546,0.736-0.839c0.974-1.104,1.937-2.374,2.861-3.856l0.688-1.133
			c0.056-0.07,0.114-0.254,0.168-0.233l0.165-0.026l0.329-0.052l1.32-0.219l0.083-0.015l0.042-0.016
			c54.877,0.831-74.713-0.945-61.362-0.945h0.049l0.099,0.01l0.21,0.021c0.166,0.013,0.318,0.046,0.531,0.083
			c0.377,0.082,0.892,0.216,1.44,0.432c1.153,0.424,2.632,1.163,4.424,2.296c3.627,2.26,8.513,6.128,14.507,11.797
			c5.987,5.654,13.107,13.113,21.053,22.207c7.941,9.084,16.732,19.809,26.008,31.756l5.791,7.529
			c0.541,0.702,1.085,1.396,1.644,2.077c1.108,1.367,2.239,2.699,3.385,4.001c4.594,5.196,9.406,9.921,14.076,14.192
			c9.357,8.523,18.083,15.27,24.307,19.292c6.239,4.009,10.036,5.242,10.019,2.388c0.264-3.941-3.598-16.186-6.981-28.401
			c-3.413-12.202-6.332-24.38-4.896-27.829c0.986-2.318,7.077,7.943,4.276-1.885c-2.544-6.236-3.916-11.19-5.256-16.19
			c1.055-2.306,4.866,2.063,7.637,4.589c2.794,2.518,4.551,3.188,2.173-6.784c-0.317-2.136,2.188,2.564,5.867,10.58
			c3.684,8.014,8.527,19.346,13.033,30.407c9.058,22.11,16.623,43.18,13.47,33.521c-11.488-35.371-12.891-40.247-11.07-35.505
			c1.839,4.736,7.017,19.054,8.667,22.099c0.315,0.753-1.599-6.186-3.341-12.951c-1.75-6.765-3.314-13.359-2.682-11.814
			c3.055,8.811,2.605,7.194,1.564,2.227l-1.933-8.994l-1.192-5.716c-0.653-3.196-1.339-6.621-2.04-10.369
			c-2.085-11.083-3.392-19.602-4.362-26.784c-0.955-7.191-1.584-13.007-2.042-18.527c-0.459-5.483-0.761-10.641-0.892-16.135
			c-0.121-5.47-0.081-11.317,0.414-17.593c0.068-0.76,0.3-3.803,0.826-7.381c0.527-3.607,1.387-7.634,2.396-10.698
			c0.997-3.106,2.077-5.21,2.771-6.332c0.708-1.139,1.037-1.47,1.036-1.486c1.125-1.329,1.04-0.74-0.539-0.145
			c-1.545,0.638-4.418,1.296-8.083,1.455c-3.677,0.176-8.162-0.063-13.362-0.806c-5.223-0.742-11.099-1.985-17.997-3.852
			l-3.042-0.854l-1.557-0.462c-0.521-0.198-1.044-0.438-1.565-0.664l-1.563-0.711c-0.243-0.164-0.556-0.16-0.86-0.182l-0.912-0.066
			l-1.836-0.134l-0.461-0.034l-0.115-0.008l-0.029-0.002c2.491,0.931-21.834-8.129-11.528-4.286l0.029,0.029l0.114,0.116
			l0.439,0.462c2.265,2.43,3.358,4.493,3.57,6.328c0.426,3.667-2.676,6.448-6.904,9.298c-4.224,2.831-9.575,5.751-13.52,9.314
			c-3.943,3.524-6.475,7.711-4.96,12.37c3.038,9.239-4.551,15.03-16.877,23.002c-6.137,3.998-13.44,8.484-20.897,14.428
			c-7.439,5.95-15.096,13.286-21.409,23.44c-1.573,5.463-0.903,10.271-0.808,14.781c0.096,4.523-0.373,8.807-4.031,13.927
			c-3.682,5.134,2.989,10.151,10.862,15.003c3.921,2.424,8.174,4.877,11.576,7.539c3.424,2.695,6.022,5.64,6.778,9.396
			c-6.428,2.425-12.938,4.726-19.468,6.894c0.292,1.373,0.678,3.095,1.13,4.985c0.477,1.916,1.005,3.985,1.612,6.095
			c1.188,4.199,2.62,8.459,3.684,11.308c2.045,5.74-4.108,8.71-10.511,11.474c-6.375,2.777-12.822,5.399-17.84,9.283
			c-4.995,3.889-8.591,9.116-8.602,17.373c5.014,15.801,12.811,31.714,22.938,46.497c10.103,14.793,22.511,28.427,36.16,40.021
			c17.635,4.421,34.665,6.258,50.487,6c15.845-0.256,30.479-2.578,43.949-6.402c3.253-8.83,6.624-17.615,11.001-24.513
			c7.385-3.824,14.291-8.117,20.94-12.577c2.744-9.936,4.076-20.441,5.201-30.114c1.112-9.676,2.005-18.524,3.39-25.225
			c0.92-14.317,2.989-28.459,4.928-42.507c1.961-14.044,3.814-27.998,4.924-41.835c1.11-13.834,1.573-27.55,0.919-41.029
			c-0.73-13.475-1.62-26.753-2.807-39.796l-0.152-1.394l-0.042-0.339l-0.021-0.168l-0.213-0.021
			c5.027,69.486,1.305,19.248,2.305,34.75v-0.024l0.054-0.099l-0.054-0.201v-1.771l-0.102-5.912
			c-0.139-3.559-0.099-6.151-0.107-8.344c-0.006-2.191,0.068-3.742,0.111-4.982c0.043-1.225,0.12-2.086,0.163-2.66
			c0.09-1.159,0.149-1.341,0.13-1.241c-0.018,0.118-0.088,0.521-0.167,0.853c-0.072,0.318,0.106-0.446,0.131-0.609
			c-0.119,0.638-0.304,1.324-0.347,1.473c-0.054,0.188,0.007-0.009,0.113-0.418c-0.118,0.464-0.278,0.986-0.278,0.982l0.149-0.502
			c-0.373,1.349-0.98,2.871-1.534,3.888c-0.551,1.041-1.027,1.601-1.054,1.624c-0.041,0.041,0.398-0.439,1.479-1.153
			c1.086-0.727,2.8-1.656,5.084-2.556c0.979-0.391,2.411-0.903,4.126-1.406c1.704-0.505,3.682-0.982,5.38-1.325
			c0.436-0.094,0.996-0.205,1.625-0.315c0.663-0.132,1.35-0.235,2.093-0.36c1.451-0.232,2.948-0.425,3.767-0.523l2.499-0.272
			l1.271-0.111c3.381-0.306,8.019-0.544,13.51-0.523c2.712,0.02,5.692,0.073,8.669,0.23c3.051,0.126,6.09,0.356,9.156,0.604
			c12.119,1.02,23.353,2.916,22.608,2.788c8.404,1.351,13.811,2.395,19.324,3.506l4.252,0.888l1.123,0.24l0.572,0.123l-0.629-0.136
			c-0.964-0.213-1.897-0.411-2.769-0.624c-3.498-0.823-6.15-1.569-6.928-1.987c-2.644-1.26-4.74-3.049-6.246-5.278
			c-0.193-0.272-0.374-0.555-0.543-0.848l-0.252-0.436l-0.063-0.109l-0.031-0.055l-0.015-0.027l0.231-0.014
			c0.51-1.571-0.506-0.439,0.494-0.792v-0.006l-0.242-0.014l-0.176-0.419l-0.115-0.42l-0.042-0.104c0-0.023-0.024-0.022-0.019-0.065
			l0.027-0.18l0.129-0.721l0.26-1.443c0.077-0.456,0.188-1.023,0.227-1.362l0.621-4.721c0.813-6.547,1.644-14.026,1.952-23.263
			c-0.663-5.127-1.156-10.71-1.799-16.85c-0.33-3.121-0.688-6.311-1.165-9.783c-0.227-1.677-0.504-3.517-0.789-5.277
			c-0.31-1.865-0.622-3.652-1.01-5.602c-0.746-3.793-1.688-7.831-2.883-12.011c-1.187-4.161-2.646-8.513-4.44-12.953
			c-3.548-8.84-8.532-18.075-14.821-26.486c-4.813-6.175-10.172-11.79-15.594-16.552c-5.426-4.778-10.913-8.753-16.123-12.012
			c-3.536-2.156-7.006-4.041-10.354-5.69c-3.312-1.624-6.543-3.043-9.602-4.26c-6.104-2.425-11.689-4.158-16.679-5.479
			c-10.044-2.63-18.012-3.827-24.929-4.756c-6.895-0.894-12.679-1.424-17.92-1.897l-14.199-1.217l-22.932-1.979
			c-6.881-0.548-13.225-0.933-19.194-0.882c-11.909,0.104-22.405,1.959-31.045,7.987c-8.604,6.025-15.3,16.24-18.745,32.971
			c-3.448,16.862-7.86,29.682-13.571,39.507c-5.71,9.835-12.653,16.625-21.105,21.637c-4.238,2.52-8.844,4.587-14.045,6.58
			c-2.605,1.004-5.363,1.991-8.378,3.102c-3.023,1.122-6.283,2.334-10.135,4.112c-1.934,0.901-4.026,1.953-6.425,3.387
			c-2.417,1.471-5.1,3.221-8.568,6.262c-1.736,1.54-3.672,3.4-5.961,6.077l-0.863,1.03l-0.924,1.164
			c-0.58,0.728-1.297,1.719-1.935,2.617c-0.308,0.427-0.698,1.016-1.043,1.538l-1.058,1.646l-1.135,1.907l-0.558,0.979l-0.607,1.13
			c-0.406,0.77-0.777,1.485-1.18,2.317c-0.429,0.895-0.843,1.797-1.241,2.707c-0.375,0.84-0.847,2.014-1.25,3.069
			c-0.414,1.089-0.788,2.104-1.226,3.463l-0.601,1.931l-0.283,0.971l-0.284,1.033c-0.399,1.516-0.756,3.045-1.07,4.582l-0.241,1.256
			l-0.232,1.342c-0.147,0.896-0.28,1.795-0.398,2.696l-0.166,1.352l-0.153,1.546c-0.093,1.038-0.167,2.078-0.22,3.119l-0.065,1.563
			c-14.01,0.754,121.41,0.402,64.3,0.512l0.826,0.1l1.65,0.197c0.269,0.022,0.564,0.09,0.811,0.075l0.741-0.031
			c0.494-0.015,0.989-0.016,1.484-0.003c0.966,0.023,1.785,0.098,2.659,0.204c0.735,0.05,1.584,0.218,2.176,0.309
			c1.31,0.248,2.279,0.609,2.611,0.906c0.182,0.154,0.141,0.256,0.14,0.101c0.004-0.146,0.106-0.396,0.336-0.762
			c0.454-0.693,1.34-1.597,2.486-2.574c1.199-1.055,2.586-2.071,4.282-3.289c3.326-2.34,7.51-4.959,12.297-7.754
			c2.353-1.36,4.984-2.877,7.613-4.311c1.378-0.771,2.762-1.529,4.151-2.273l4.35-2.332c2.877-1.504,6.093-3.215,9.189-4.775
			l4.904-2.501l5.032-2.521l10.544-5.187l9.327-4.491c0.809-0.402,1.545-1.003,2.267-1.686c1.438-1.371,2.816-3.068,4.227-4.848
			c1.408-1.783,2.834-3.678,4.294-5.604c2.917-3.863,5.966-7.861,9.092-11.813c6.247-7.917,12.796-15.647,18.921-22.603
			c12.244-13.938,22.774-24.808,25.449-29.456l-12.715,2.205l-6.351,1.118C930.461,1535.643,928.324,1535.952,926.271,1536.51z"/>
	</g>
</g>
<g>
	<g opacity="0.8">
		<path fill="#1D1D1D" d="M1421.436,1932.216l-2.158-0.924c-0.722-0.3-1.474-0.587-2.26-0.862c-1.57-0.551-3.272-1.054-5.098-1.515
			c-3.648-0.923-7.781-1.68-12.266-2.325c-8.967-1.289-19.335-2.139-29.943-2.94c-10.606-0.798-21.453-1.553-31.329-2.533
			c-9.876-0.976-18.778-2.179-25.463-3.699c-10.321-1.433-18.147-3.068-23.932-4.928c-4.848-1.636,6.419,0.931,23.932,4.928
			c7.849,1.083,17.144,2.041,28.092,2.858c-13.72-5.199-26.618-10.771-35.625-15.541c-6.728-0.555-13.505-1.319-20.347-2.358
			c-15.029-2.205-29.747-4.685-43.685-8.865c-6.941-2.101-13.689-4.651-19.776-7.947c-6.046-3.268-11.498-7.428-14.688-12.158
			c-1.136-1.721-2.397-3.864-3.15-6.244c-0.381-1.19-0.645-2.443-0.764-3.759c-0.029-0.304-0.059-0.722-0.051-0.911l-0.027-0.639
			l-0.01-0.203l-0.002-0.051c0.009,0.063-0.021-0.157,0.02,0.138l0.024,0.019l0.049,0.037l0.197,0.151l0.099,0.075
			c0.017,0.001,0.01-0.035,0.016-0.051l0.016-0.124l0.037-0.247c0.219-1.323,0.559-2.645,0.909-3.966
			c1.439-5.278,3.208-10.568,4.984-15.488c1.788-4.916,3.627-9.457,5.397-13.166c-2.194,7.03-4.327,13.996-6.281,20.933
			c-0.961,3.471-1.927,6.928-2.628,10.422c-0.083,0.437-0.161,0.875-0.218,1.313l-0.019,0.165l-0.01,0.082
			c0.006,0.025-0.007,0.022-0.04-0.012l-0.074-0.064l-0.299-0.258c-0.016,0.123-0.07-0.249-0.056-0.189l0.002,0.032l0.006,0.065
			l0.042,0.52l0.034,0.46l0.067,0.561c0.098,0.744,0.258,1.462,0.464,2.176c0.818,2.816,2.643,5.671,5.565,8.426
			c2.9,2.744,6.744,5.262,11.005,7.432c8.579,4.356,18.644,7.441,28.93,9.819c10.329,2.369,21.015,4.038,31.803,5.292
			c-1.153-0.371-2.292-0.789-3.404-1.264c-11.224-2.03-22.278-4.535-32.706-7.847c-5.202-1.659-10.242-3.526-14.925-5.659
			c-4.672-2.127-9.007-4.539-12.517-7.169c-2.497-1.559-4.6-3.451-5.777-5.53c1.358,1.807,3.358,3.722,5.777,5.53
			c3.296,2.045,7.278,3.525,11.565,4.733c4.303,1.21,8.941,2.168,13.927,3.239c6.01,1.817,12.985,5.152,19.533,6.406
			c5.283,1.224,10.015,4.155,15.122,6.296c3.354,0.608,6.729,1.174,10.118,1.699c1.012-0.163,2.091-0.295,3.188-0.303
			c-0.036-0.04-0.103-0.102-0.126-0.158c-1.943-2.833-8.71-6.204-17.545-10.084c-8.809-3.875-19.756-8.331-29.396-13.281
			c-4.806-2.461-9.257-5.047-12.769-7.537c-3.517-2.478-6.034-4.872-7.164-6.515c-0.584-0.819-0.825-1.434-0.851-1.78
			c-0.008-0.088,0.004-0.158,0.019-0.215c0.009-0.027,0.025-0.051,0.034-0.071l0.025-0.026c-0.002,0.001,0.021-0.019-0.001-0.001
			l-0.186,0.151c-0.949,0.779-1.761,1.373-2.438,1.83c-1.357,0.912-2.143,1.285-2.574,1.481c-0.41,0.182-0.471,0.184-0.411,0.169
			c0.059-0.018,0.16-0.046,0.391-0.097l0.375-0.073c0.164-0.024,0.301-0.109,0.537,0.112l0.154,0.116
			c0.024,0,0.052,0.085,0.073,0.015l0.067-0.143l0.267-0.569l0.033-0.07c-0.847-0.015,7.349,0.037,3.903,0.044l0.047,0.056
			l0.093,0.11l0.187,0.222l0.735,0.871l0.005-0.439l0.015-0.874l0.057-3.432c0.052-4.506-0.097-8.75-0.265-12.835
			c-0.163-4.09-0.334-8.015-0.216-11.997c0.121-3.989,0.531-8.033,1.601-12.535c0.711-3.002,2.21-6.23,3.414-9.192
			c1.198-2.947,2.099-5.619,1.498-7.134c-1.62,0.702-2.249-0.739-2.928-2.05c1.326-5.567,4.628-12.628,7.348-19.196
			c2.7-6.506,4.8-12.466,3.171-14.117c-0.14-0.991,2.146-4.807,5.665-10.217c3.515-5.397,8.275-12.426,12.974-19.495
			c9.373-14.063,18.549-28.456,15.519-25.565c-8.606,8.208-11.527,11.18-11.337,10.271c0.022-0.11,0.093-0.279,0.206-0.503
			l0.405-0.755c0.262-0.494,0.658-1.176,1.142-2.012c0.968-1.677,2.281-3.959,3.601-6.688c-0.574-0.674-2.127-0.744-5.695,0.774
			c-0.837,0.253-5.481,4.316-10.139,8.327c-4.68,4.023-9.342,7.977-10.935,8.418c-2.181,0.063-4.66,0.905-7.304,2.238
			c-2.65,1.336-5.479,3.169-8.515,5.293c-6.089,4.257-12.95,9.652-21.445,14.849c-6.815,4.733-11.457,7.341-15.325,9.159
			c-3.849,1.806-6.887,2.799-9.985,3.985c-3.093,1.19-6.229,2.535-9.975,4.792c-3.729,2.251-8.112,5.471-13.229,10.14
			c-0.612,0.532-2.932,2.108-5.94,4.069c-3.012,1.963-6.694,4.292-10.165,6.437c-6.973,4.31-13.038,7.831-13.041,7.829
			c-2.527,0.638-4.924,1.336-7.217,2.075c-1.737,0.57-3.379,1.184-4.956,1.802c-3.154,1.235-6.057,2.485-8.934,3.385
			c-5.725,1.792-11.466,2.235-18.22-1.939c-6.009,5.636-14.365,6.201-22.127,4.916l-3.137-0.538l-3.257-0.596
			c-2.165-0.404-4.315-0.813-6.435-1.16c-4.239-0.696-8.351-1.153-12.238-0.86c-7.781,0.577-13.198-1.175-18.171-3.979
			c-4.966-2.813-9.532-6.674-15.456-10.587c-3.462-1.426-6.189-1.119-7.904-3.426c-0.854-1.156-2.694-0.501-4.736,0.218
			c-2.037,0.721-4.288,1.498-5.818,0.661l1.621-3.813c-1.015-0.546-2.941-1.656-3.86-2.211c-0.922-0.577-0.34-1.829,0.213-3.086
			c1.133-2.516,2.154-5.049,1.062-7.397c-1.579-1.572-3.01-3.035-4.172-4.343c-1.154-1.303-2.048-2.463-2.407-3.31
			c-0.52,0.326-0.883,0.728-1.208,1.168c-0.35,0.424-0.745,0.841-1.18,1.238c-0.869,0.795-1.917,1.521-3.06,2.078
			c-1.252,1.322-2.525,2.618-3.653,3.517c-0.918,0.336-1.842,0.563-2.651,0.655c-2.916,2.188-6.015,4.998-7.963,6.307
			c-2.029,1.736-4.074,3.21-6.063,4.418c-1.99,1.216-3.906,2.166-5.694,3.029l-2.612,1.277l-1.263,0.662l-0.627,0.349
			c-0.223,0.129-0.38,0.212-0.683,0.405c-0.306,0.191-0.464,0.297-0.744,0.459l-0.868,0.52c-0.572,0.353-1.131,0.72-1.675,1.103
			c-1.087,0.767-2.113,1.601-3.062,2.521l-0.886,0.708c-0.092,0.093-0.185,0.193-0.277,0.3c-0.184,0.212-0.368,0.451-0.547,0.717
			c-0.358,0.532-0.698,1.171-0.99,1.91c-0.587,1.474-0.957,3.369-0.972,5.479c-0.028,2.107,0.305,4.397,0.735,6.624
			c0.423,2.233,0.916,4.411,1.053,6.472c-0.068,1.113-1.235,1.859-2.877,2.537c-1.639,0.682-3.741,1.262-5.606,2.207
			c2.794,3.155,3.938,5.4,3.57,7.165c-0.343,1.733-2.158,2.9-4.772,3.087c1.438,1.732,3.021,3.34,3.021,3.339
			c-1.214,0.789-5.003,2.964-5.014,2.947c4.135,4.99,9.111,9.846,14.583,14.163c5.301,4.232,10.325,7.688,15.237,10.516
			c9.795,5.606,19.178,8.68,28.029,7.593c3.75-0.039,10.039-2.226,14.05-3.798c2.011-0.762,5.88,2.047,7.354,2.534
			c2.996-3.436,3.026-7.851,4.498-11.785c5.423,2.56,14.087,5.977,21.352,6.778c7.271,0.818,13.068-0.906,12.91-8.178
			c8.714,0.897,10.56-5.83,19.474-6.46l4.871-0.429c1.821-0.156,3.663-0.352,5.53-0.567c3.734-0.432,7.542-0.989,11.384-1.637
			c7.678-1.304,15.467-3.012,23.014-4.936c4.057-1.372,8.027-2.515,11.965-3.594l5.874-1.599l2.917-0.81l2.713-0.779l4.692-1.613
			c4.653-1.695,9.185-3.23,13.401-4.594c4.224-1.364,8.137-2.556,11.73-3.638c7.231-2.194,13.042-3.842,19.056-6.479l0.849-0.383
			l0.427-0.199c0.056-0.014,0.179-0.111,0.178-0.058l-0.098,0.273l-0.742,2.149c-0.476,1.411-0.91,2.779-1.302,4.11
			c-0.784,2.662-1.395,5.172-1.818,7.62c-0.85,4.923-0.941,9.508-0.285,15.312c0.398,3.437,0.399,7.546,0.354,12.133
			c0,1.148-0.016,2.326,0.074,3.545l0.048,0.458l0.035,0.231l0.021,0.115c0.002-0.022,0.011,0.094,0.023,0.245l0.036,0.391
			l0.06,0.54l0.019,0.081l0.038,0.163l0.076,0.325l0.038,0.162l0.057,0.289l0.119,0.592c0.081,0.416,0.162,0.748,0.242,1.075
			l0.255,0.998c0.175,0.664,0.371,1.325,0.576,1.981c1.652,5.264,4.33,10.168,7.528,14.209c3.194,4.071,6.83,7.332,10.502,10.033
			c3.685,2.698,7.432,4.859,11.151,6.72c7.448,3.698,14.801,6.253,22.023,8.434c14.444,4.277,28.443,7.028,41.974,9.496
			c13.524,2.425,26.566,4.438,38.96,6.28c24.78,3.65,46.975,6.643,64.844,8.924c17.861,2.26,31.393,3.746,38.677,3.854l3.965-2.958
			l1.998-1.492C1419.988,1933.233,1420.63,1932.736,1421.436,1932.216z"/>
	</g>
</g>
<g>
	<g opacity="0.8">
		<path fill="#1D1D1D" d="M1467.153,1547.055c-1.216,7.952,2.921,20.306,6.536,33.252c1.836,6.461,3.583,13.049,4.813,19.115
			c1.239,6.063,1.968,11.595,1.979,15.868c0.764,6.371,0.826,11.284,0.342,15.026c-0.22,1.576-0.346,0.603-0.363-2.145l0.021-12.882
			c-0.59-4.843-1.599-10.528-3.197-17.158c-1.349,9.55-3.53,18.367-5.83,24.582c0.757,3.931,1.332,7.938,1.703,12.027
			c0.896,8.975,1.498,17.766,1.396,26.526c-0.105,8.752-0.921,17.471-2.905,26.074c-0.766,3.114-1.533,8.079-2.649,12.956
			c-1.101,4.878-2.541,9.659-4.222,12.424c5.648-24.626,7.223-50.284,3.596-75.489c-0.102,0.723-0.243,1.445-0.436,2.164
			c0.708,13.394-0.027,26.694-2.013,39.692c-0.126,2.212-0.451,4.444-1.146,6.707c0.418-2.227,0.801-4.462,1.146-6.707
			c0.296-5.804-0.905-11.412-1.525-17.625c0.053-3.856,1.36-8.438,1.132-12.359c-0.012-3.202,1.555-6.412,2.406-9.708
			c-0.103-2-0.237-4.002-0.402-6.005c-0.315-0.529-0.616-1.101-0.816-1.709c-0.027,0.028-0.066,0.079-0.109,0.104
			c-1.993,1.707-3.615,6.164-5.227,11.812c-1.601,5.657-3.234,12.502-4.941,19.219l-4.778,18.714
			c-1.33,5.388-2.216,9.582-1.968,11.521c0.28,3.069,2.088,6.219,3.769,9.564c1.683,3.335,3.234,6.869,3.002,10.451
			c-0.157,2.401-2.551,3.942-1.239,6.086c1.09,0.421,1.747,1.505,2.397,2.606c-0.247,2.412-1.731,4.535-2.857,6.574
			c-1.127,2.044-1.89,4.011-0.724,6.269c0.339,1.454-4.53,2.604-9.07,3.411c-4.544,0.824-8.759,1.34-7.189,2.14
			c11.466,5.871,3.15,1.662,0.106,6.752c-0.251,0.285,0.651,1.412,1.478,2.625c0.414,0.606,0.809,1.233,1.034,1.781
			c0.056,0.138,0.102,0.27,0.135,0.395c0.015,0.174,0.001,0.379-0.018,0.553c-0.043,0.352-0.143,0.663-0.319,0.925
			c-3,3.323-3.844,6.018-4.122,8.798c-0.305,2.802-0.032,5.723-1.38,9.938c-0.112,0.714-0.259,1.387-0.427,2.026
			c0.873,2.739,0.958,4.771,0.841,6.567c-0.127,1.782-0.468,3.311-0.66,4.782c-0.196,1.471-0.242,2.882,0.098,4.335
			c0.332,1.449,1.063,2.935,2.198,4.456c0.282,0.438,0.889,3.706,0.796,6.325c-0.088,0.178,0.178,0.238,0.363,0.322l0.572,0.245
			l1.109,0.462l1.965,0.819l1.914,0.786c2.836,2.372,6.091,4.271,9.039,6.146c2.928,1.922,5.492,3.737,6.503,7.478
			c0.934,1.26,1.619,2.837,2.118,4.88c4.216-0.087,7.49,0.705,10.389,2.174c0.722,0.37,1.429,0.769,2.104,1.224
			c0.334,0.221,0.692,0.463,0.999,0.685c0.239,0.183,0.475,0.372,0.706,0.567c0.927,0.778,1.767,1.649,2.577,2.577
			c3.256,3.723,5.635,8.168,9.158,10.39c3.546,2.265,4.733,5.295,4.952,8.681c0.216,3.398-0.501,7.195-0.916,11.29
			c0.314,1.917,1.52,2.67,0.591,4.441c-0.471,0.882,0.639,1.146,1.895,1.484c1.252,0.331,2.653,0.748,2.675,1.708l-3.258,1.292
			c0.008,0.616-0.014,1.821-0.032,2.411c-0.035,0.603-1.135,0.989-2.23,1.393c-2.195,0.797-4.352,1.667-5.569,3.121
			c-0.97,2.51-1.737,4.662-2.241,6.503c2.153,0.902,4.45,1.877,6.885,2.844c1.578-0.227,3.161-0.427,4.475-0.441l2.784,0.923
			c3.479-0.186,7.215-0.718,9.548-0.769c4.884-0.577,9.787-0.445,14.571,0.025c4.781,0.436,9.425,1.137,13.896,0.412
			c1.312-0.278,2.11-2.149,2.95-4.472c0.855-2.301,1.769-4.962,3.71-6.989c1.252-1.027,4.729-0.007,8.3,0.17
			c-0.429-2.247,0.208-3.598,1.423-4.305c1.211-0.697,2.996-0.717,4.768-0.089l0.044-2.345c1.194-0.016,4.782,0.036,4.783,0.045
			c0.659-6.707,1.583-14.115,0.87-21.194c-0.684-7.04-3.018-13.675-8.077-17.789c-1.853-1.979-6.411-4.15-9.438-5.37
			c-1.489-0.625-1.672-4.267-2.141-5.334c-3.711,0.424-6.479,2.997-9.684,4.559c-1.097-4.191-3.564-10.604-7.071-14.611
			c-3.49-4.032-7.718-5.558-11.61-0.691c-2.098-2.228-4.35-2.383-6.661-2.391c-2.321-0.004-4.709,0.137-7.288-1.399l-4.908-2.718
			l-2.503-1.341l-1.413-0.596l-6.183-2.597l-1.552-0.635c-3.185-0.725-5.499-2.022-7.982-3.067l-2.894-1.042l-1.326-0.453
			l-0.647-0.224l-0.319-0.113l-0.158-0.056c-0.079-0.011,0.026-0.083,0.03-0.121c2.729-4.626,5.735-9.402,8.425-13.616
			c1.706-2.696,3.286-5.211,4.633-7.641c0.055-0.074,0.231-0.472,0.366-0.763l0.422-0.926l0.824-1.861
			c0.542-1.244,1.066-2.495,1.571-3.757c1.011-2.521,1.945-5.082,2.786-7.692c3.354-10.426,5.264-21.732,4.285-34.303
			c-1.446-18.435-1.861-36.302-2.518-53.699c-0.628-17.365-1.557-34.286-3.28-49.938c-1.686-15.629-4.138-29.931-6.733-41.429
			c-2.594-11.493-5.23-20.157-7.129-24.477C1471.554,1548.457,1469.352,1547.737,1467.153,1547.055z"/>
	</g>
</g>
<circle fill="#1D1D1D" cx="915.728" cy="419.516" r="71.778"/>
<g>
	<g opacity="0.8">
		<path fill="#1F1F1F" d="M815.713,1686.166c-1.573,5.463-0.903,10.271-0.808,14.781c0.096,4.523-0.373,8.807-4.031,13.927
			c-3.682,5.134,2.989,10.151,10.862,15.003c3.921,2.424,8.174,4.877,11.576,7.539c3.424,2.695,6.022,5.64,6.778,9.396
			c-6.428,2.425-12.938,4.726-19.468,6.894c0.292,1.373,0.678,3.095,1.13,4.985c0.477,1.916,1.005,3.985,1.612,6.095
			c1.188,4.199,2.62,8.459,3.684,11.308c2.045,5.74-4.108,8.71-10.511,11.474c-6.375,2.777-12.822,5.399-17.84,9.283
			c-4.995,3.889-8.591,9.116-8.602,17.373c5.014,15.801,12.811,31.714,22.938,46.497c10.103,14.793,22.511,28.427,36.16,40.021
			c17.635,4.421,34.665,6.258,50.487,6c15.845-0.256,30.479-2.578,43.949-6.402c3.253-8.83,6.624-17.615,11.001-24.513
			c7.385-3.824,14.291-8.117,20.94-12.577c2.744-9.936,4.076-20.441,5.201-30.114c1.112-9.676,2.005-18.524,3.39-25.225
			c0.92-14.317,2.988-28.459,4.928-42.507c1.961-14.044,3.814-27.998,4.924-41.835c1.11-13.834,1.574-27.55,0.92-41.029
			c-0.73-13.475-1.62-26.753-2.808-39.796l-0.152-1.394l-0.042-0.339l-0.021-0.168l-0.213-0.021
			c5.027,69.486,1.305,19.248,2.305,34.75v-0.024l0.055-0.099l-0.055-0.201v-1.771l-0.102-5.912c-0.14-3.559-0.1-6.151-0.107-8.344
			c-0.006-2.191,0.068-3.742,0.111-4.982c0.043-1.225,0.12-2.086,0.162-2.66c0.09-1.159,0.149-1.341,0.131-1.241
			c-0.018,0.118-0.088,0.521-0.166,0.853c-0.072,0.318,0.105-0.446,0.131-0.609c-0.119,0.638-0.304,1.324-0.347,1.473
			c-0.054,0.188,0.007-0.009,0.112-0.418c-0.117,0.464-0.277,0.986-0.277,0.982l0.148-0.502c-0.372,1.349-0.98,2.871-1.533,3.888
			c-0.551,1.041-1.027,1.601-1.055,1.624c-0.04,0.041,0.398-0.439,1.479-1.153c1.086-0.727,2.8-1.656,5.085-2.556
			c0.979-0.391,2.41-0.903,4.126-1.406c1.704-0.505,3.682-0.982,5.38-1.325c0.436-0.094,0.996-0.205,1.625-0.315
			c0.663-0.132,1.35-0.235,2.093-0.36c1.451-0.232,2.948-0.425,3.767-0.523l2.499-0.272l1.271-0.111
			c3.381-0.306,8.019-0.544,13.51-0.523c2.712,0.02,5.692,0.073,8.669,0.23c3.051,0.126,6.09,0.356,9.156,0.604
			c12.119,1.02,23.353,2.916,22.608,2.788c8.404,1.351,13.811,2.395,19.324,3.506l4.252,0.888l1.123,0.24l0.572,0.123l-0.629-0.136
			c-0.964-0.213-1.897-0.411-2.769-0.624c-3.498-0.823-6.15-1.569-6.928-1.987c-2.644-1.26-4.74-3.049-6.246-5.278
			c-0.193-0.272-0.374-0.555-0.543-0.848l-0.252-0.436l-0.063-0.109l-0.031-0.055l-0.015-0.027l0.231-0.014
			c0.51-1.571-0.506-0.439,0.494-0.792v-0.006l-0.242-0.014l-0.176-0.419l-0.115-0.42l-0.042-0.104c0-0.023-0.024-0.022-0.019-0.065
			l0.027-0.18l0.129-0.721l0.26-1.443c0.077-0.456,0.188-1.023,0.227-1.362l0.621-4.721c0.813-6.547,1.644-14.026,1.952-23.263
			c-0.663-5.127-1.156-10.71-1.799-16.85c-0.33-3.121-0.688-6.311-1.165-9.783c-0.227-1.677-0.504-3.517-0.789-5.277
			c-0.31-1.865-0.622-3.652-1.01-5.602c-0.746-3.793-1.688-7.831-2.883-12.011c-1.187-4.161-2.646-8.513-4.44-12.953
			c-3.548-8.84-8.532-18.075-14.821-26.486c-4.813-6.175-10.172-11.79-15.594-16.552c-5.426-4.778-10.913-8.753-16.123-12.012
			c-3.536-2.156-7.006-4.041-10.354-5.69c-3.312-1.624-6.543-3.043-9.602-4.26c-6.104-2.425-11.689-4.158-16.679-5.479
			c-10.044-2.63-18.013-3.827-24.929-4.756c-6.895-0.894-12.679-1.424-17.921-1.897l-14.199-1.217l-22.932-1.979
			c-6.881-0.548-13.225-0.933-19.194-0.882c-11.909,0.104-22.405,1.959-31.045,7.987c-8.604,6.025-15.3,16.24-18.745,32.971
			c-3.448,16.862-7.86,29.682-13.571,39.507c-5.71,9.835-12.653,16.625-21.105,21.637c-4.238,2.52-8.844,4.587-14.045,6.58
			c-2.605,1.004-5.363,1.991-8.378,3.102c-3.023,1.122-6.283,2.334-10.135,4.112c-1.934,0.901-4.026,1.953-6.425,3.387
			c-2.417,1.471-5.1,3.221-8.568,6.262c-1.736,1.54-3.672,3.4-5.961,6.077l-0.863,1.03l-0.924,1.164
			c-0.58,0.728-1.297,1.719-1.935,2.617c-0.308,0.427-0.698,1.016-1.043,1.538l-1.058,1.646l-1.135,1.907l-0.558,0.979l-0.607,1.13
			c-0.406,0.77-0.777,1.485-1.18,2.317c-0.429,0.895-0.843,1.797-1.241,2.707c-0.375,0.84-0.847,2.014-1.25,3.069
			c-0.414,1.089-0.788,2.104-1.226,3.463l-0.601,1.931l-0.283,0.971l-0.284,1.033c-0.399,1.516-0.756,3.045-1.07,4.582l-0.241,1.256
			l-0.232,1.342c-0.147,0.896-0.28,1.795-0.398,2.696l-0.166,1.352l-0.153,1.546c-0.093,1.038-0.167,2.078-0.22,3.119l-0.065,1.563"
			/>
	</g>
</g>
</svg>
